%TF.GenerationSoftware,KiCad,Pcbnew,6.0.2+dfsg-1*%
%TF.CreationDate,2024-07-15T16:46:16+10:00*%
%TF.ProjectId,SWRBridge,53575242-7269-4646-9765-2e6b69636164,2*%
%TF.SameCoordinates,Original*%
%TF.FileFunction,Copper,L1,Top*%
%TF.FilePolarity,Positive*%
%FSLAX46Y46*%
G04 Gerber Fmt 4.6, Leading zero omitted, Abs format (unit mm)*
G04 Created by KiCad (PCBNEW 6.0.2+dfsg-1) date 2024-07-15 16:46:16*
%MOMM*%
%LPD*%
G01*
G04 APERTURE LIST*
G04 Aperture macros list*
%AMRoundRect*
0 Rectangle with rounded corners*
0 $1 Rounding radius*
0 $2 $3 $4 $5 $6 $7 $8 $9 X,Y pos of 4 corners*
0 Add a 4 corners polygon primitive as box body*
4,1,4,$2,$3,$4,$5,$6,$7,$8,$9,$2,$3,0*
0 Add four circle primitives for the rounded corners*
1,1,$1+$1,$2,$3*
1,1,$1+$1,$4,$5*
1,1,$1+$1,$6,$7*
1,1,$1+$1,$8,$9*
0 Add four rect primitives between the rounded corners*
20,1,$1+$1,$2,$3,$4,$5,0*
20,1,$1+$1,$4,$5,$6,$7,0*
20,1,$1+$1,$6,$7,$8,$9,0*
20,1,$1+$1,$8,$9,$2,$3,0*%
G04 Aperture macros list end*
%TA.AperFunction,SMDPad,CuDef*%
%ADD10R,6.000000X12.000000*%
%TD*%
%TA.AperFunction,SMDPad,CuDef*%
%ADD11R,12.000000X6.000000*%
%TD*%
%TA.AperFunction,SMDPad,CuDef*%
%ADD12RoundRect,0.250000X-0.650000X0.412500X-0.650000X-0.412500X0.650000X-0.412500X0.650000X0.412500X0*%
%TD*%
%TA.AperFunction,ComponentPad*%
%ADD13C,1.700000*%
%TD*%
%TA.AperFunction,ComponentPad*%
%ADD14C,4.500000*%
%TD*%
%TA.AperFunction,ComponentPad*%
%ADD15C,1.524000*%
%TD*%
%TA.AperFunction,SMDPad,CuDef*%
%ADD16RoundRect,0.250001X-0.462499X-0.624999X0.462499X-0.624999X0.462499X0.624999X-0.462499X0.624999X0*%
%TD*%
%TA.AperFunction,SMDPad,CuDef*%
%ADD17RoundRect,0.249999X0.412501X0.650001X-0.412501X0.650001X-0.412501X-0.650001X0.412501X-0.650001X0*%
%TD*%
%TA.AperFunction,SMDPad,CuDef*%
%ADD18RoundRect,0.249999X-0.650001X0.412501X-0.650001X-0.412501X0.650001X-0.412501X0.650001X0.412501X0*%
%TD*%
%TA.AperFunction,SMDPad,CuDef*%
%ADD19RoundRect,0.250000X-0.550000X1.050000X-0.550000X-1.050000X0.550000X-1.050000X0.550000X1.050000X0*%
%TD*%
%TA.AperFunction,SMDPad,CuDef*%
%ADD20RoundRect,0.249999X-0.412501X-0.650001X0.412501X-0.650001X0.412501X0.650001X-0.412501X0.650001X0*%
%TD*%
%TA.AperFunction,SMDPad,CuDef*%
%ADD21RoundRect,0.250000X1.000000X-1.750000X1.000000X1.750000X-1.000000X1.750000X-1.000000X-1.750000X0*%
%TD*%
%TA.AperFunction,SMDPad,CuDef*%
%ADD22RoundRect,0.250000X-0.625000X0.462500X-0.625000X-0.462500X0.625000X-0.462500X0.625000X0.462500X0*%
%TD*%
%TA.AperFunction,ComponentPad*%
%ADD23R,1.700000X1.700000*%
%TD*%
%TA.AperFunction,ComponentPad*%
%ADD24O,1.700000X1.700000*%
%TD*%
%TA.AperFunction,SMDPad,CuDef*%
%ADD25RoundRect,0.250000X0.625000X-0.462500X0.625000X0.462500X-0.625000X0.462500X-0.625000X-0.462500X0*%
%TD*%
%TA.AperFunction,SMDPad,CuDef*%
%ADD26RoundRect,0.250000X-0.462500X-0.625000X0.462500X-0.625000X0.462500X0.625000X-0.462500X0.625000X0*%
%TD*%
%TA.AperFunction,SMDPad,CuDef*%
%ADD27RoundRect,0.250000X0.462500X0.625000X-0.462500X0.625000X-0.462500X-0.625000X0.462500X-0.625000X0*%
%TD*%
%TA.AperFunction,SMDPad,CuDef*%
%ADD28RoundRect,0.249999X-1.425001X0.450001X-1.425001X-0.450001X1.425001X-0.450001X1.425001X0.450001X0*%
%TD*%
%TA.AperFunction,SMDPad,CuDef*%
%ADD29RoundRect,0.250000X0.625000X-0.400000X0.625000X0.400000X-0.625000X0.400000X-0.625000X-0.400000X0*%
%TD*%
%TA.AperFunction,SMDPad,CuDef*%
%ADD30RoundRect,0.249999X1.425001X-0.450001X1.425001X0.450001X-1.425001X0.450001X-1.425001X-0.450001X0*%
%TD*%
%TA.AperFunction,SMDPad,CuDef*%
%ADD31RoundRect,0.250000X-0.625000X0.400000X-0.625000X-0.400000X0.625000X-0.400000X0.625000X0.400000X0*%
%TD*%
%TA.AperFunction,SMDPad,CuDef*%
%ADD32RoundRect,0.150000X0.150000X-0.725000X0.150000X0.725000X-0.150000X0.725000X-0.150000X-0.725000X0*%
%TD*%
%TA.AperFunction,SMDPad,CuDef*%
%ADD33R,2.000000X1.500000*%
%TD*%
%TA.AperFunction,SMDPad,CuDef*%
%ADD34R,2.000000X3.800000*%
%TD*%
%TA.AperFunction,SMDPad,CuDef*%
%ADD35RoundRect,0.150000X-0.725000X-0.150000X0.725000X-0.150000X0.725000X0.150000X-0.725000X0.150000X0*%
%TD*%
%TA.AperFunction,SMDPad,CuDef*%
%ADD36R,6.000000X6.000000*%
%TD*%
%TA.AperFunction,SMDPad,CuDef*%
%ADD37RoundRect,0.250000X-0.312500X-0.625000X0.312500X-0.625000X0.312500X0.625000X-0.312500X0.625000X0*%
%TD*%
%TA.AperFunction,SMDPad,CuDef*%
%ADD38RoundRect,0.250000X-0.412500X-0.650000X0.412500X-0.650000X0.412500X0.650000X-0.412500X0.650000X0*%
%TD*%
%TA.AperFunction,SMDPad,CuDef*%
%ADD39RoundRect,0.250000X0.312500X0.625000X-0.312500X0.625000X-0.312500X-0.625000X0.312500X-0.625000X0*%
%TD*%
%TA.AperFunction,ViaPad*%
%ADD40C,0.800000*%
%TD*%
%TA.AperFunction,ViaPad*%
%ADD41C,6.000000*%
%TD*%
%TA.AperFunction,Conductor*%
%ADD42C,0.750000*%
%TD*%
%TA.AperFunction,Conductor*%
%ADD43C,1.250000*%
%TD*%
%TA.AperFunction,Conductor*%
%ADD44C,0.250000*%
%TD*%
%TA.AperFunction,Conductor*%
%ADD45C,2.500000*%
%TD*%
%TA.AperFunction,Conductor*%
%ADD46C,5.000000*%
%TD*%
G04 APERTURE END LIST*
D10*
%TO.P,T2,1,1*%
%TO.N,Net-(J3-Pad1)*%
X146050000Y-81026000D03*
D11*
%TO.P,T2,2,2*%
%TO.N,GND*%
X110490000Y-83566000D03*
%TO.P,T2,3,3*%
%TO.N,Net-(R4-Pad1)*%
X148590000Y-92456000D03*
%TO.P,T2,4,4*%
%TO.N,Net-(R1-Pad1)*%
X115570000Y-92456000D03*
%TD*%
D12*
%TO.P,C11,1*%
%TO.N,Net-(C11-Pad1)*%
X129540000Y-115277500D03*
%TO.P,C11,2*%
%TO.N,GND*%
X129540000Y-118402500D03*
%TD*%
D13*
%TO.P,U5,1,ADDR*%
%TO.N,GND*%
X120555000Y-110991500D03*
%TO.P,U5,2,ALERT/RDY*%
%TO.N,unconnected-(U5-Pad2)*%
X118015000Y-110991500D03*
%TO.P,U5,3,GND*%
%TO.N,GND*%
X128175000Y-110991500D03*
%TO.P,U5,4,AIN0*%
%TO.N,/Reverse*%
X115475000Y-110991500D03*
%TO.P,U5,5,AIN1*%
%TO.N,/Forward*%
X112935000Y-110991500D03*
%TO.P,U5,6,AIN2*%
%TO.N,unconnected-(U5-Pad6)*%
X110395000Y-110991500D03*
%TO.P,U5,7,AIN3*%
%TO.N,unconnected-(U5-Pad7)*%
X107855000Y-110991500D03*
%TO.P,U5,8,VDD*%
%TO.N,/3V3*%
X130715000Y-110991500D03*
%TO.P,U5,9,SDA*%
%TO.N,Net-(R8-Pad2)*%
X123095000Y-110991500D03*
%TO.P,U5,10,SCL*%
%TO.N,Net-(R7-Pad2)*%
X125635000Y-110991500D03*
D14*
%TO.P,U5,GND*%
%TO.N,N/C*%
X107855000Y-123691500D03*
X130715000Y-123691500D03*
%TD*%
D15*
%TO.P,U4,1,RXD*%
%TO.N,unconnected-(U4-Pad1)*%
X121920000Y-144780000D03*
%TO.P,U4,2,TXD*%
%TO.N,unconnected-(U4-Pad2)*%
X124460000Y-144780000D03*
%TO.P,U4,3,INT1PD3*%
%TO.N,unconnected-(U4-Pad3)*%
X127000000Y-144780000D03*
%TO.P,U4,4,PD4*%
%TO.N,unconnected-(U4-Pad4)*%
X129540000Y-144780000D03*
%TO.P,U4,5,PD5*%
%TO.N,unconnected-(U4-Pad5)*%
X132080000Y-144780000D03*
%TO.P,U4,6,PD6*%
%TO.N,unconnected-(U4-Pad6)*%
X134620000Y-144780000D03*
%TO.P,U4,8,PB0*%
%TO.N,/3V3*%
X137160000Y-144780000D03*
%TO.P,U4,9,PB1*%
%TO.N,/DisplayReset*%
X147320000Y-129540000D03*
%TO.P,U4,10,PB2SS*%
%TO.N,/DisplaySelect*%
X144780000Y-129540000D03*
%TO.P,U4,11,PB3MOSI*%
%TO.N,/Data*%
X142240000Y-129540000D03*
%TO.P,U4,12,PB4MISO*%
%TO.N,unconnected-(U4-Pad12)*%
X139700000Y-129540000D03*
%TO.P,U4,13,PB5SCK*%
%TO.N,/SCLK*%
X137160000Y-129540000D03*
%TO.P,U4,14,PC0A0*%
%TO.N,unconnected-(U4-Pad14)*%
X132080000Y-129540000D03*
%TO.P,U4,15,PC1A1*%
%TO.N,unconnected-(U4-Pad15)*%
X129540000Y-129540000D03*
%TO.P,U4,16,PC2A2*%
%TO.N,unconnected-(U4-Pad16)*%
X127000000Y-129540000D03*
%TO.P,U4,17,PC3A3*%
%TO.N,unconnected-(U4-Pad17)*%
X124460000Y-129540000D03*
%TO.P,U4,18,PC4A4SDA*%
%TO.N,Net-(R8-Pad2)*%
X121920000Y-129540000D03*
%TO.P,U4,19,PC5A5SCL*%
%TO.N,Net-(R7-Pad2)*%
X119380000Y-129540000D03*
%TO.P,U4,20,GND*%
%TO.N,GND*%
X116840000Y-130810000D03*
%TO.P,U4,21,GND*%
X116840000Y-133350000D03*
%TO.P,U4,22,VBUS*%
%TO.N,unconnected-(U4-Pad22)*%
X116840000Y-135890000D03*
%TO.P,U4,23,RXD*%
%TO.N,unconnected-(U4-Pad23)*%
X116840000Y-138430000D03*
%TO.P,U4,24,TXD*%
%TO.N,unconnected-(U4-Pad24)*%
X116840000Y-140970000D03*
%TO.P,U4,25,DTR/RTS*%
%TO.N,unconnected-(U4-Pad25)*%
X116840000Y-143510000D03*
%TO.P,U4,26,RESET*%
%TO.N,unconnected-(U4-Pad26)*%
X119380000Y-144780000D03*
%TO.P,U4,27,3V3*%
%TO.N,/3V3*%
X139700000Y-144780000D03*
%TO.P,U4,28,VBUS*%
%TO.N,unconnected-(U4-Pad28)*%
X142240000Y-144780000D03*
%TO.P,U4,29,GND*%
%TO.N,GND*%
X144780000Y-144780000D03*
%TO.P,U4,30,VBAT*%
%TO.N,Net-(C13-Pad1)*%
X147320000Y-144780000D03*
%TO.P,U4,31,AREF*%
%TO.N,Net-(C14-Pad1)*%
X134620000Y-129540000D03*
%TD*%
D12*
%TO.P,C7,1*%
%TO.N,/Forward*%
X114300000Y-118224000D03*
%TO.P,C7,2*%
%TO.N,GND*%
X114300000Y-121349000D03*
%TD*%
D16*
%TO.P,L2,1,1*%
%TO.N,Net-(C5-Pad1)*%
X107732500Y-117246500D03*
%TO.P,L2,2,2*%
%TO.N,/Forward*%
X110707500Y-117246500D03*
%TD*%
D17*
%TO.P,C1,1*%
%TO.N,Net-(C1-Pad1)*%
X103162500Y-101600000D03*
%TO.P,C1,2*%
%TO.N,Net-(C1-Pad2)*%
X100037500Y-101600000D03*
%TD*%
D18*
%TO.P,C2,1*%
%TO.N,Net-(C2-Pad1)*%
X97790000Y-115277500D03*
%TO.P,C2,2*%
%TO.N,GND*%
X97790000Y-118402500D03*
%TD*%
D19*
%TO.P,C3,1*%
%TO.N,Net-(C3-Pad1)*%
X109220000Y-137900000D03*
%TO.P,C3,2*%
%TO.N,GND*%
X109220000Y-141500000D03*
%TD*%
D18*
%TO.P,C4,1*%
%TO.N,+5V*%
X104140000Y-108927500D03*
%TO.P,C4,2*%
%TO.N,GND*%
X104140000Y-112052500D03*
%TD*%
%TO.P,C5,1*%
%TO.N,Net-(C5-Pad1)*%
X101600000Y-117817500D03*
%TO.P,C5,2*%
%TO.N,GND*%
X101600000Y-120942500D03*
%TD*%
%TO.P,C6,1*%
%TO.N,Net-(C6-Pad1)*%
X148590000Y-107657500D03*
%TO.P,C6,2*%
%TO.N,Net-(C6-Pad2)*%
X148590000Y-110782500D03*
%TD*%
D19*
%TO.P,C8,1*%
%TO.N,Net-(C8-Pad1)*%
X108966000Y-130661000D03*
%TO.P,C8,2*%
%TO.N,GND*%
X108966000Y-134261000D03*
%TD*%
D18*
%TO.P,C9,1*%
%TO.N,Net-(C9-Pad1)*%
X142240000Y-118795000D03*
%TO.P,C9,2*%
%TO.N,GND*%
X142240000Y-121920000D03*
%TD*%
%TO.P,C10,1*%
%TO.N,+5V*%
X148590000Y-113715000D03*
%TO.P,C10,2*%
%TO.N,GND*%
X148590000Y-116840000D03*
%TD*%
D20*
%TO.P,C12,1*%
%TO.N,/Reverse*%
X119087500Y-119380000D03*
%TO.P,C12,2*%
%TO.N,GND*%
X122212500Y-119380000D03*
%TD*%
D17*
%TO.P,C13,1*%
%TO.N,Net-(C13-Pad1)*%
X148125000Y-149860000D03*
%TO.P,C13,2*%
%TO.N,GND*%
X145000000Y-149860000D03*
%TD*%
D18*
%TO.P,C14,1*%
%TO.N,Net-(C14-Pad1)*%
X134620000Y-132422500D03*
%TO.P,C14,2*%
%TO.N,GND*%
X134620000Y-135547500D03*
%TD*%
D21*
%TO.P,C15,1*%
%TO.N,/3V3*%
X156210000Y-122046500D03*
%TO.P,C15,2*%
%TO.N,GND*%
X156210000Y-114046500D03*
%TD*%
D22*
%TO.P,D1,1,K*%
%TO.N,Net-(D1-Pad1)*%
X96520000Y-137387000D03*
%TO.P,D1,2,A*%
%TO.N,Net-(D1-Pad2)*%
X96520000Y-140362000D03*
%TD*%
D23*
%TO.P,J1,1,Pin_1*%
%TO.N,Net-(D1-Pad2)*%
X96520000Y-144780000D03*
D24*
%TO.P,J1,2,Pin_2*%
%TO.N,GND*%
X96520000Y-147320000D03*
%TD*%
D23*
%TO.P,J4,1,Pin_1*%
%TO.N,GND*%
X157543500Y-147320000D03*
D24*
%TO.P,J4,2,Pin_2*%
%TO.N,/3V3*%
X157543500Y-144780000D03*
%TO.P,J4,3,Pin_3*%
%TO.N,unconnected-(J4-Pad3)*%
X157543500Y-142240000D03*
%TO.P,J4,4,Pin_4*%
%TO.N,/3V3*%
X157543500Y-139700000D03*
%TO.P,J4,5,Pin_5*%
%TO.N,/SCLK*%
X157543500Y-137160000D03*
%TO.P,J4,6,Pin_6*%
%TO.N,/Data*%
X157543500Y-134620000D03*
%TO.P,J4,7,Pin_7*%
%TO.N,/DisplaySelect*%
X157543500Y-132080000D03*
%TO.P,J4,8,Pin_8*%
%TO.N,/DisplayReset*%
X157543500Y-129540000D03*
%TD*%
D25*
%TO.P,L1,1,1*%
%TO.N,Net-(D1-Pad1)*%
X101600000Y-140362000D03*
%TO.P,L1,2,2*%
%TO.N,Net-(C3-Pad1)*%
X101600000Y-137387000D03*
%TD*%
D26*
%TO.P,L3,1,1*%
%TO.N,Net-(C8-Pad1)*%
X95032500Y-124460000D03*
%TO.P,L3,2,2*%
%TO.N,+5V*%
X98007500Y-124460000D03*
%TD*%
D27*
%TO.P,L4,1,1*%
%TO.N,Net-(C3-Pad1)*%
X154400000Y-149860000D03*
%TO.P,L4,2,2*%
%TO.N,Net-(C13-Pad1)*%
X151425000Y-149860000D03*
%TD*%
%TO.P,L5,1,1*%
%TO.N,Net-(C11-Pad1)*%
X121085000Y-115570000D03*
%TO.P,L5,2,2*%
%TO.N,/Reverse*%
X118110000Y-115570000D03*
%TD*%
D28*
%TO.P,R1,1*%
%TO.N,Net-(R1-Pad1)*%
X119189500Y-97851500D03*
%TO.P,R1,2*%
%TO.N,GND*%
X119189500Y-103951500D03*
%TD*%
D29*
%TO.P,R2,1*%
%TO.N,Net-(C1-Pad1)*%
X108140500Y-100901500D03*
%TO.P,R2,2*%
%TO.N,GND*%
X108140500Y-97801500D03*
%TD*%
D28*
%TO.P,R3,1*%
%TO.N,Net-(R1-Pad1)*%
X113284000Y-97851500D03*
%TO.P,R3,2*%
%TO.N,Net-(C1-Pad1)*%
X113284000Y-103951500D03*
%TD*%
%TO.P,R4,1*%
%TO.N,Net-(R4-Pad1)*%
X150876000Y-97915000D03*
%TO.P,R4,2*%
%TO.N,Net-(C6-Pad1)*%
X150876000Y-104015000D03*
%TD*%
D30*
%TO.P,R5,1*%
%TO.N,GND*%
X144716500Y-103951500D03*
%TO.P,R5,2*%
%TO.N,Net-(R4-Pad1)*%
X144716500Y-97851500D03*
%TD*%
D31*
%TO.P,R6,1*%
%TO.N,GND*%
X155575000Y-97827500D03*
%TO.P,R6,2*%
%TO.N,Net-(C6-Pad1)*%
X155575000Y-100927500D03*
%TD*%
D10*
%TO.P,T1,1,1*%
%TO.N,Net-(R1-Pad1)*%
X117919500Y-72326500D03*
D11*
%TO.P,T1,2,2*%
%TO.N,GND*%
X153479500Y-69786500D03*
%TO.P,T1,3,3*%
%TO.N,Net-(J2-Pad1)*%
X115379500Y-60896500D03*
%TO.P,T1,4,4*%
%TO.N,Net-(J3-Pad1)*%
X148399500Y-60896500D03*
%TD*%
D32*
%TO.P,U1,1,INM*%
%TO.N,Net-(C2-Pad1)*%
X97155000Y-111795000D03*
%TO.P,U1,2,COM*%
%TO.N,GND*%
X98425000Y-111795000D03*
%TO.P,U1,3,OFS*%
%TO.N,unconnected-(U1-Pad3)*%
X99695000Y-111795000D03*
%TO.P,U1,4,OUT*%
%TO.N,Net-(C5-Pad1)*%
X100965000Y-111795000D03*
%TO.P,U1,5*%
%TO.N,N/C*%
X100965000Y-106645000D03*
%TO.P,U1,6,ENB*%
%TO.N,+5V*%
X99695000Y-106645000D03*
%TO.P,U1,7,VPS*%
X98425000Y-106645000D03*
%TO.P,U1,8,INP*%
%TO.N,Net-(C1-Pad2)*%
X97155000Y-106645000D03*
%TD*%
D33*
%TO.P,U2,1,GND*%
%TO.N,GND*%
X95910000Y-129780000D03*
%TO.P,U2,2,VO*%
%TO.N,Net-(C8-Pad1)*%
X95910000Y-132080000D03*
D34*
X102210000Y-132080000D03*
D33*
%TO.P,U2,3,VI*%
%TO.N,Net-(C3-Pad1)*%
X95910000Y-134380000D03*
%TD*%
D35*
%TO.P,U3,1,INM*%
%TO.N,Net-(C9-Pad1)*%
X139665000Y-112395000D03*
%TO.P,U3,2,COM*%
%TO.N,GND*%
X139665000Y-113665000D03*
%TO.P,U3,3,OFS*%
%TO.N,unconnected-(U3-Pad3)*%
X139665000Y-114935000D03*
%TO.P,U3,4,OUT*%
%TO.N,Net-(C11-Pad1)*%
X139665000Y-116205000D03*
%TO.P,U3,5*%
%TO.N,N/C*%
X144815000Y-116205000D03*
%TO.P,U3,6,ENB*%
%TO.N,+5V*%
X144815000Y-114935000D03*
%TO.P,U3,7,VPS*%
X144815000Y-113665000D03*
%TO.P,U3,8,INP*%
%TO.N,Net-(C6-Pad2)*%
X144815000Y-112395000D03*
%TD*%
D36*
%TO.P,J2,1,In*%
%TO.N,Net-(J2-Pad1)*%
X98171000Y-60960000D03*
%TO.P,J2,2,Ext*%
%TO.N,GND*%
X98171000Y-68580000D03*
%TD*%
%TO.P,J3,1,In*%
%TO.N,Net-(J3-Pad1)*%
X159004000Y-61023500D03*
%TO.P,J3,2,Ext*%
%TO.N,GND*%
X159004000Y-53403500D03*
%TD*%
D37*
%TO.P,R7,1*%
%TO.N,/3V3*%
X117725000Y-149860000D03*
%TO.P,R7,2*%
%TO.N,Net-(R7-Pad2)*%
X120650000Y-149860000D03*
%TD*%
D38*
%TO.P,C16,1*%
%TO.N,/3V3*%
X135597500Y-109220000D03*
%TO.P,C16,2*%
%TO.N,GND*%
X138722500Y-109220000D03*
%TD*%
D39*
%TO.P,R8,1*%
%TO.N,/3V3*%
X127192500Y-149860000D03*
%TO.P,R8,2*%
%TO.N,Net-(R8-Pad2)*%
X124267500Y-149860000D03*
%TD*%
D40*
%TO.N,GND*%
X134620000Y-137160000D03*
X135255000Y-137795000D03*
X110490000Y-144780000D03*
X109537500Y-143827500D03*
X105410000Y-134620000D03*
X106404000Y-134261000D03*
X97550000Y-129780000D03*
X99060000Y-129540000D03*
X99060000Y-113665000D03*
X99352500Y-120942500D03*
X137795000Y-113665000D03*
X140335000Y-109220000D03*
X104140000Y-114300000D03*
X101600000Y-123190000D03*
X114935000Y-123190000D03*
X132080000Y-118110000D03*
X145415000Y-121920000D03*
X143510000Y-121920000D03*
X148590000Y-118745000D03*
X148590000Y-121920000D03*
X150177500Y-120332500D03*
%TO.N,/3V3*%
X137160000Y-124460000D03*
X136525000Y-123825000D03*
X135890000Y-123190000D03*
X135255000Y-122555000D03*
D41*
%TO.N,*%
X149860000Y-50800000D03*
X158750000Y-106680000D03*
X107950000Y-50800000D03*
X104140000Y-146050000D03*
D40*
%TO.N,GND*%
X107950000Y-86360000D03*
X119380000Y-105410000D03*
X96520000Y-66040000D03*
X113030000Y-85090000D03*
X160020000Y-54610000D03*
X106680000Y-95250000D03*
X99060000Y-71120000D03*
X95250000Y-68580000D03*
X144716500Y-105473500D03*
X111760000Y-81280000D03*
X115570000Y-81280000D03*
X97790000Y-68580000D03*
X157480000Y-95250000D03*
X156210000Y-68580000D03*
X156210000Y-54610000D03*
X156210000Y-72390000D03*
X151130000Y-68580000D03*
X158750000Y-54610000D03*
X97790000Y-71120000D03*
X99060000Y-66040000D03*
X158750000Y-71120000D03*
X148590000Y-68580000D03*
X99060000Y-69850000D03*
X158750000Y-50800000D03*
X156210000Y-67310000D03*
X148590000Y-67310000D03*
X157480000Y-54610000D03*
X151130000Y-72390000D03*
X95250000Y-67310000D03*
X152400000Y-72390000D03*
X161290000Y-52070000D03*
X161290000Y-53340000D03*
X156210000Y-55880000D03*
X105410000Y-83820000D03*
X100330000Y-69850000D03*
X113030000Y-81280000D03*
X114300000Y-81280000D03*
X160020000Y-53340000D03*
X148590000Y-72390000D03*
X95250000Y-71120000D03*
X149860000Y-72390000D03*
X143510000Y-106680000D03*
X106680000Y-81280000D03*
X151130000Y-71120000D03*
X110490000Y-86360000D03*
X107950000Y-81280000D03*
X160020000Y-55880000D03*
X154940000Y-67310000D03*
X158750000Y-67310000D03*
X153670000Y-68580000D03*
X161290000Y-50800000D03*
X97790000Y-69850000D03*
X95250000Y-66040000D03*
X154940000Y-72390000D03*
X97790000Y-67310000D03*
X109220000Y-86360000D03*
X161290000Y-55880000D03*
X115570000Y-82550000D03*
X100330000Y-67310000D03*
X152400000Y-67310000D03*
X158750000Y-68580000D03*
X157480000Y-52070000D03*
X110490000Y-82550000D03*
X105410000Y-86360000D03*
X97790000Y-66040000D03*
X157480000Y-72390000D03*
X158750000Y-53340000D03*
X115570000Y-85090000D03*
X149860000Y-67310000D03*
X115570000Y-83820000D03*
X156210000Y-71120000D03*
X157480000Y-53340000D03*
X96520000Y-68580000D03*
X99060000Y-67310000D03*
X151130000Y-67310000D03*
X148590000Y-71120000D03*
X96520000Y-71120000D03*
X107950000Y-85090000D03*
X96520000Y-69850000D03*
X161290000Y-54610000D03*
X106680000Y-86360000D03*
X153670000Y-71120000D03*
X99060000Y-68580000D03*
X96520000Y-67310000D03*
X158750000Y-69850000D03*
X100330000Y-66040000D03*
X158750000Y-52070000D03*
X114300000Y-86360000D03*
X153670000Y-72390000D03*
X156210000Y-53340000D03*
X148590000Y-69850000D03*
X107950000Y-96520000D03*
X158750000Y-55880000D03*
X160020000Y-52070000D03*
X120650000Y-106680000D03*
X160020000Y-50800000D03*
X156210000Y-50800000D03*
X110490000Y-81280000D03*
X105410000Y-85090000D03*
X157480000Y-55880000D03*
X113030000Y-86360000D03*
X156210000Y-52070000D03*
X156210000Y-96520000D03*
X111760000Y-86360000D03*
X100330000Y-68580000D03*
X157480000Y-67310000D03*
X110490000Y-85090000D03*
X158750000Y-72390000D03*
X105410000Y-82550000D03*
X95250000Y-69850000D03*
X107950000Y-82550000D03*
X113030000Y-82550000D03*
X157480000Y-50800000D03*
X115570000Y-86360000D03*
X153670000Y-67310000D03*
X109220000Y-81280000D03*
X105410000Y-81280000D03*
X100330000Y-71120000D03*
%TD*%
D42*
%TO.N,/3V3*%
X136842500Y-124142500D02*
X136525000Y-123825000D01*
X137160000Y-124460000D02*
X136842500Y-124142500D01*
D43*
X154114000Y-124142500D02*
X156210000Y-122046500D01*
X136842500Y-124142500D02*
X154114000Y-124142500D01*
%TO.N,GND*%
X150177500Y-120332500D02*
X156210000Y-114300000D01*
X156210000Y-114300000D02*
X156210000Y-114046500D01*
%TO.N,/3V3*%
X137160000Y-144780000D02*
X139700000Y-144780000D01*
D42*
%TO.N,/DisplaySelect*%
X144780000Y-129540000D02*
X147320000Y-132080000D01*
X147320000Y-132080000D02*
X157543500Y-132080000D01*
D43*
%TO.N,GND*%
X134620000Y-137160000D02*
X135255000Y-137795000D01*
X134620000Y-135547500D02*
X134620000Y-137160000D01*
X109537500Y-143827500D02*
X110490000Y-144780000D01*
X106404000Y-134261000D02*
X105769000Y-134261000D01*
X109220000Y-143510000D02*
X109537500Y-143827500D01*
X109220000Y-141500000D02*
X109220000Y-143510000D01*
X105769000Y-134261000D02*
X105410000Y-134620000D01*
X108966000Y-134261000D02*
X106404000Y-134261000D01*
X97550000Y-129780000D02*
X98820000Y-129780000D01*
X98820000Y-129780000D02*
X99060000Y-129540000D01*
X95910000Y-129780000D02*
X97550000Y-129780000D01*
D42*
X98425000Y-113030000D02*
X99060000Y-113665000D01*
X98425000Y-111795000D02*
X98425000Y-113030000D01*
X97790000Y-118402500D02*
X97790000Y-119380000D01*
X97790000Y-119380000D02*
X99352500Y-120942500D01*
X99352500Y-120942500D02*
X101600000Y-120942500D01*
X137795000Y-113665000D02*
X137160000Y-113665000D01*
X139665000Y-113665000D02*
X137795000Y-113665000D01*
D43*
X101600000Y-120942500D02*
X101600000Y-123190000D01*
X104140000Y-112052500D02*
X104140000Y-114300000D01*
X114300000Y-122555000D02*
X114935000Y-123190000D01*
X114300000Y-121349000D02*
X114300000Y-122555000D01*
X122212500Y-119380000D02*
X128562500Y-119380000D01*
X128562500Y-119380000D02*
X129540000Y-118402500D01*
X131787500Y-118402500D02*
X132080000Y-118110000D01*
X129540000Y-118402500D02*
X131787500Y-118402500D01*
X138722500Y-109220000D02*
X140335000Y-109220000D01*
X145415000Y-121920000D02*
X143510000Y-121920000D01*
X143510000Y-121920000D02*
X142240000Y-121920000D01*
X148590000Y-118745000D02*
X148590000Y-121920000D01*
X150177500Y-120332500D02*
X148590000Y-121920000D01*
X148590000Y-116840000D02*
X148590000Y-118745000D01*
X148590000Y-121920000D02*
X145415000Y-121920000D01*
D42*
%TO.N,Net-(C14-Pad1)*%
X134620000Y-129540000D02*
X134620000Y-132422500D01*
%TO.N,/3V3*%
X136525000Y-123825000D02*
X135890000Y-123190000D01*
X135890000Y-123190000D02*
X135255000Y-122555000D01*
X135255000Y-122555000D02*
X134937500Y-122237500D01*
X137795000Y-125095000D02*
X137160000Y-124460000D01*
%TO.N,/SCLK*%
X137160000Y-129540000D02*
X144780000Y-137160000D01*
X144780000Y-137160000D02*
X157543500Y-137160000D01*
%TO.N,/Data*%
X142240000Y-129540000D02*
X147320000Y-134620000D01*
X147320000Y-134620000D02*
X157543500Y-134620000D01*
%TO.N,/DisplayReset*%
X147320000Y-129540000D02*
X157543500Y-129540000D01*
%TO.N,Net-(C13-Pad1)*%
X147320000Y-144780000D02*
X147320000Y-149055000D01*
X147320000Y-149055000D02*
X148125000Y-149860000D01*
%TO.N,GND*%
X145000000Y-149860000D02*
X145000000Y-145000000D01*
X145000000Y-145000000D02*
X144780000Y-144780000D01*
%TO.N,Net-(C13-Pad1)*%
X151425000Y-149860000D02*
X148125000Y-149860000D01*
%TO.N,Net-(C3-Pad1)*%
X109220000Y-137900000D02*
X109325000Y-137795000D01*
X109325000Y-137795000D02*
X111760000Y-137795000D01*
X111760000Y-137795000D02*
X111760000Y-130810000D01*
X111760000Y-130810000D02*
X115570000Y-127000000D01*
X115570000Y-127000000D02*
X159385000Y-127000000D01*
X159385000Y-127000000D02*
X160655000Y-128270000D01*
X160655000Y-128270000D02*
X160655000Y-149860000D01*
X160655000Y-149860000D02*
X154400000Y-149860000D01*
X101600000Y-137387000D02*
X108707000Y-137387000D01*
X108707000Y-137387000D02*
X109220000Y-137900000D01*
D44*
%TO.N,Net-(R7-Pad2)*%
X120650000Y-149860000D02*
X120650000Y-130810000D01*
X120650000Y-130810000D02*
X119380000Y-129540000D01*
%TO.N,Net-(R8-Pad2)*%
X124267500Y-149860000D02*
X124267500Y-147763962D01*
X124267500Y-147763962D02*
X123006511Y-146502973D01*
X123006511Y-146502973D02*
X123006511Y-130626511D01*
X123006511Y-130626511D02*
X121920000Y-129540000D01*
D42*
%TO.N,/3V3*%
X125730000Y-151765000D02*
X118745000Y-151765000D01*
X117725000Y-150745000D02*
X117725000Y-149860000D01*
X127192500Y-149860000D02*
X127192500Y-150302500D01*
X127192500Y-150302500D02*
X125730000Y-151765000D01*
X118745000Y-151765000D02*
X117725000Y-150745000D01*
X139700000Y-147955000D02*
X137795000Y-149860000D01*
X139700000Y-144780000D02*
X139700000Y-147955000D01*
X137795000Y-149860000D02*
X127192500Y-149860000D01*
X130715000Y-109950000D02*
X131445000Y-109220000D01*
X130715000Y-110991500D02*
X130715000Y-109950000D01*
X131445000Y-109220000D02*
X135597500Y-109220000D01*
%TO.N,+5V*%
X144815000Y-114935000D02*
X144145000Y-114935000D01*
X125095000Y-107315000D02*
X123482500Y-108927500D01*
X144145000Y-114935000D02*
X142240000Y-113030000D01*
X141605000Y-107315000D02*
X125095000Y-107315000D01*
X142240000Y-113030000D02*
X142240000Y-107950000D01*
X142240000Y-107950000D02*
X141605000Y-107315000D01*
X123482500Y-108927500D02*
X104140000Y-108927500D01*
%TO.N,Net-(C9-Pad1)*%
X141114520Y-114444520D02*
X142240000Y-115570000D01*
X141114520Y-113214894D02*
X141114520Y-114444520D01*
X140294626Y-112395000D02*
X141114520Y-113214894D01*
X142240000Y-115570000D02*
X142240000Y-118795000D01*
X139665000Y-112395000D02*
X140294626Y-112395000D01*
%TO.N,+5V*%
X100037500Y-108927500D02*
X99695000Y-108585000D01*
X99695000Y-108585000D02*
X99025000Y-107915000D01*
X93980000Y-119380000D02*
X93980000Y-110490000D01*
X98007500Y-124460000D02*
X98007500Y-122137500D01*
X98007500Y-122137500D02*
X96520000Y-120650000D01*
X96520000Y-120650000D02*
X95250000Y-120650000D01*
X95250000Y-120650000D02*
X93980000Y-119380000D01*
X93980000Y-110490000D02*
X95250000Y-109220000D01*
X95250000Y-109220000D02*
X99060000Y-109220000D01*
X99060000Y-109220000D02*
X99695000Y-108585000D01*
%TO.N,Net-(C2-Pad1)*%
X97155000Y-113665000D02*
X97790000Y-114300000D01*
X97790000Y-114300000D02*
X97790000Y-115277500D01*
%TO.N,Net-(C8-Pad1)*%
X100330000Y-127000000D02*
X96520000Y-127000000D01*
X102210000Y-132080000D02*
X102210000Y-128880000D01*
X95032500Y-125512500D02*
X95032500Y-124460000D01*
X102210000Y-128880000D02*
X100330000Y-127000000D01*
X96520000Y-127000000D02*
X95032500Y-125512500D01*
X102210000Y-132080000D02*
X102870000Y-132080000D01*
X102870000Y-132080000D02*
X104289000Y-130661000D01*
X104289000Y-130661000D02*
X108966000Y-130661000D01*
X95910000Y-132080000D02*
X102210000Y-132080000D01*
%TO.N,Net-(C3-Pad1)*%
X101600000Y-137387000D02*
X101600000Y-137160000D01*
X101600000Y-137160000D02*
X98820000Y-134380000D01*
X98820000Y-134380000D02*
X95910000Y-134380000D01*
%TO.N,Net-(D1-Pad1)*%
X96520000Y-137387000D02*
X98017000Y-137387000D01*
X98017000Y-137387000D02*
X100992000Y-140362000D01*
X100992000Y-140362000D02*
X101600000Y-140362000D01*
%TO.N,Net-(D1-Pad2)*%
X96520000Y-144780000D02*
X96520000Y-140362000D01*
%TO.N,Net-(C2-Pad1)*%
X97155000Y-111795000D02*
X97155000Y-113665000D01*
%TO.N,+5V*%
X98425000Y-106645000D02*
X99025000Y-106645000D01*
X99025000Y-106645000D02*
X99695000Y-106645000D01*
X104140000Y-108927500D02*
X100037500Y-108927500D01*
X99025000Y-107915000D02*
X99025000Y-106645000D01*
X144815000Y-113665000D02*
X144815000Y-114935000D01*
%TO.N,/Forward*%
X114300000Y-118224000D02*
X112935000Y-116859000D01*
X112935000Y-116859000D02*
X112935000Y-110991500D01*
X110707500Y-117246500D02*
X113322500Y-117246500D01*
X113322500Y-117246500D02*
X114300000Y-118224000D01*
%TO.N,Net-(C5-Pad1)*%
X100965000Y-111795000D02*
X100965000Y-117182500D01*
X100965000Y-117182500D02*
X101600000Y-117817500D01*
%TO.N,/Reverse*%
X118110000Y-115570000D02*
X118110000Y-113626500D01*
X118110000Y-113626500D02*
X115475000Y-110991500D01*
X118110000Y-115570000D02*
X118110000Y-118402500D01*
X118110000Y-118402500D02*
X119087500Y-119380000D01*
%TO.N,Net-(C11-Pad1)*%
X129540000Y-115277500D02*
X121377500Y-115277500D01*
X121377500Y-115277500D02*
X121085000Y-115570000D01*
X139665000Y-116205000D02*
X130467500Y-116205000D01*
X130467500Y-116205000D02*
X129540000Y-115277500D01*
%TO.N,Net-(C5-Pad1)*%
X101600000Y-117817500D02*
X107161500Y-117817500D01*
X107161500Y-117817500D02*
X107732500Y-117246500D01*
%TO.N,+5V*%
X144815000Y-113665000D02*
X148540000Y-113665000D01*
X148540000Y-113665000D02*
X148590000Y-113715000D01*
%TO.N,Net-(C6-Pad2)*%
X144815000Y-112395000D02*
X146977500Y-112395000D01*
X146977500Y-112395000D02*
X148590000Y-110782500D01*
%TO.N,Net-(C6-Pad1)*%
X150876000Y-103951500D02*
X150876000Y-105371500D01*
X150876000Y-105371500D02*
X148590000Y-107657500D01*
%TO.N,Net-(C1-Pad2)*%
X100037500Y-101600000D02*
X97790000Y-101600000D01*
X97790000Y-101600000D02*
X96520000Y-102870000D01*
X96520000Y-102870000D02*
X96520000Y-106010000D01*
X96520000Y-106010000D02*
X97155000Y-106645000D01*
%TO.N,Net-(C1-Pad1)*%
X108140500Y-100901500D02*
X103861000Y-100901500D01*
X103861000Y-100901500D02*
X103162500Y-101600000D01*
D45*
%TO.N,Net-(R4-Pad1)*%
X144716500Y-97851500D02*
X150876000Y-97851500D01*
X150876000Y-97851500D02*
X150876000Y-94742000D01*
X150876000Y-94742000D02*
X148590000Y-92456000D01*
%TO.N,Net-(R1-Pad1)*%
X120650000Y-87630000D02*
X120650000Y-75057000D01*
X115824000Y-92456000D02*
X120650000Y-87630000D01*
X113284000Y-94742000D02*
X115570000Y-92456000D01*
X120650000Y-75057000D02*
X117919500Y-72326500D01*
X115570000Y-92456000D02*
X115824000Y-92456000D01*
X113284000Y-97851500D02*
X113284000Y-94742000D01*
X113284000Y-97851500D02*
X119189500Y-97851500D01*
%TO.N,Net-(J3-Pad1)*%
X143510000Y-78740000D02*
X143510000Y-65786000D01*
X146050000Y-81026000D02*
X145796000Y-81026000D01*
D46*
X158877000Y-60896500D02*
X159004000Y-61023500D01*
X148399500Y-60896500D02*
X158877000Y-60896500D01*
D45*
X143510000Y-65786000D02*
X148399500Y-60896500D01*
X145796000Y-81026000D02*
X143510000Y-78740000D01*
D46*
%TO.N,Net-(J2-Pad1)*%
X98234500Y-60896500D02*
X115379500Y-60896500D01*
X98171000Y-60960000D02*
X98234500Y-60896500D01*
D42*
%TO.N,Net-(C6-Pad1)*%
X150876000Y-103951500D02*
X152551000Y-103951500D01*
X152551000Y-103951500D02*
X155575000Y-100927500D01*
%TO.N,Net-(C1-Pad1)*%
X113284000Y-103951500D02*
X111190500Y-103951500D01*
X111190500Y-103951500D02*
X108140500Y-100901500D01*
%TO.N,GND*%
X157480000Y-95250000D02*
X157480000Y-95250000D01*
X156210000Y-96520000D02*
X157480000Y-95250000D01*
X106680000Y-95250000D02*
X106680000Y-95250000D01*
X107950000Y-96520000D02*
X106680000Y-95250000D01*
X144716500Y-105473500D02*
X144716500Y-105473500D01*
X143510000Y-106680000D02*
X143510000Y-106680000D01*
X120650000Y-106680000D02*
X120650000Y-106680000D01*
X119380000Y-105410000D02*
X120650000Y-106680000D01*
X155575000Y-97827500D02*
X155575000Y-97155000D01*
X108140500Y-97801500D02*
X108140500Y-96710500D01*
X119189500Y-105219500D02*
X119380000Y-105410000D01*
X144716500Y-103951500D02*
X144716500Y-105473500D01*
X144716500Y-105473500D02*
X143510000Y-106680000D01*
X155575000Y-97155000D02*
X156210000Y-96520000D01*
X108140500Y-96710500D02*
X107950000Y-96520000D01*
X119189500Y-103951500D02*
X119189500Y-105219500D01*
%TD*%
M02*
