%TF.GenerationSoftware,KiCad,Pcbnew,6.0.2+dfsg-1*%
%TF.CreationDate,2024-07-15T16:46:17+10:00*%
%TF.ProjectId,SWRBridge,53575242-7269-4646-9765-2e6b69636164,2*%
%TF.SameCoordinates,Original*%
%TF.FileFunction,Soldermask,Top*%
%TF.FilePolarity,Negative*%
%FSLAX46Y46*%
G04 Gerber Fmt 4.6, Leading zero omitted, Abs format (unit mm)*
G04 Created by KiCad (PCBNEW 6.0.2+dfsg-1) date 2024-07-15 16:46:17*
%MOMM*%
%LPD*%
G01*
G04 APERTURE LIST*
G04 Aperture macros list*
%AMRoundRect*
0 Rectangle with rounded corners*
0 $1 Rounding radius*
0 $2 $3 $4 $5 $6 $7 $8 $9 X,Y pos of 4 corners*
0 Add a 4 corners polygon primitive as box body*
4,1,4,$2,$3,$4,$5,$6,$7,$8,$9,$2,$3,0*
0 Add four circle primitives for the rounded corners*
1,1,$1+$1,$2,$3*
1,1,$1+$1,$4,$5*
1,1,$1+$1,$6,$7*
1,1,$1+$1,$8,$9*
0 Add four rect primitives between the rounded corners*
20,1,$1+$1,$2,$3,$4,$5,0*
20,1,$1+$1,$4,$5,$6,$7,0*
20,1,$1+$1,$6,$7,$8,$9,0*
20,1,$1+$1,$8,$9,$2,$3,0*%
G04 Aperture macros list end*
%ADD10R,6.000000X12.000000*%
%ADD11R,12.000000X6.000000*%
%ADD12RoundRect,0.250000X-0.650000X0.412500X-0.650000X-0.412500X0.650000X-0.412500X0.650000X0.412500X0*%
%ADD13C,1.700000*%
%ADD14C,4.500000*%
%ADD15C,1.524000*%
%ADD16RoundRect,0.250001X-0.462499X-0.624999X0.462499X-0.624999X0.462499X0.624999X-0.462499X0.624999X0*%
%ADD17RoundRect,0.249999X0.412501X0.650001X-0.412501X0.650001X-0.412501X-0.650001X0.412501X-0.650001X0*%
%ADD18RoundRect,0.249999X-0.650001X0.412501X-0.650001X-0.412501X0.650001X-0.412501X0.650001X0.412501X0*%
%ADD19RoundRect,0.250000X-0.550000X1.050000X-0.550000X-1.050000X0.550000X-1.050000X0.550000X1.050000X0*%
%ADD20RoundRect,0.249999X-0.412501X-0.650001X0.412501X-0.650001X0.412501X0.650001X-0.412501X0.650001X0*%
%ADD21RoundRect,0.250000X1.000000X-1.750000X1.000000X1.750000X-1.000000X1.750000X-1.000000X-1.750000X0*%
%ADD22RoundRect,0.250000X-0.625000X0.462500X-0.625000X-0.462500X0.625000X-0.462500X0.625000X0.462500X0*%
%ADD23R,1.700000X1.700000*%
%ADD24O,1.700000X1.700000*%
%ADD25RoundRect,0.250000X0.625000X-0.462500X0.625000X0.462500X-0.625000X0.462500X-0.625000X-0.462500X0*%
%ADD26RoundRect,0.250000X-0.462500X-0.625000X0.462500X-0.625000X0.462500X0.625000X-0.462500X0.625000X0*%
%ADD27RoundRect,0.250000X0.462500X0.625000X-0.462500X0.625000X-0.462500X-0.625000X0.462500X-0.625000X0*%
%ADD28RoundRect,0.249999X-1.425001X0.450001X-1.425001X-0.450001X1.425001X-0.450001X1.425001X0.450001X0*%
%ADD29RoundRect,0.250000X0.625000X-0.400000X0.625000X0.400000X-0.625000X0.400000X-0.625000X-0.400000X0*%
%ADD30RoundRect,0.249999X1.425001X-0.450001X1.425001X0.450001X-1.425001X0.450001X-1.425001X-0.450001X0*%
%ADD31RoundRect,0.250000X-0.625000X0.400000X-0.625000X-0.400000X0.625000X-0.400000X0.625000X0.400000X0*%
%ADD32RoundRect,0.150000X0.150000X-0.725000X0.150000X0.725000X-0.150000X0.725000X-0.150000X-0.725000X0*%
%ADD33R,2.000000X1.500000*%
%ADD34R,2.000000X3.800000*%
%ADD35RoundRect,0.150000X-0.725000X-0.150000X0.725000X-0.150000X0.725000X0.150000X-0.725000X0.150000X0*%
%ADD36R,6.000000X6.000000*%
%ADD37RoundRect,0.250000X-0.312500X-0.625000X0.312500X-0.625000X0.312500X0.625000X-0.312500X0.625000X0*%
%ADD38RoundRect,0.250000X-0.412500X-0.650000X0.412500X-0.650000X0.412500X0.650000X-0.412500X0.650000X0*%
%ADD39RoundRect,0.250000X0.312500X0.625000X-0.312500X0.625000X-0.312500X-0.625000X0.312500X-0.625000X0*%
G04 APERTURE END LIST*
D10*
%TO.C,T2*%
X146050000Y-81026000D03*
D11*
X110490000Y-83566000D03*
X148590000Y-92456000D03*
X115570000Y-92456000D03*
%TD*%
D12*
%TO.C,C11*%
X129540000Y-115277500D03*
X129540000Y-118402500D03*
%TD*%
D13*
%TO.C,U5*%
X120555000Y-110991500D03*
X118015000Y-110991500D03*
X128175000Y-110991500D03*
X115475000Y-110991500D03*
X112935000Y-110991500D03*
X110395000Y-110991500D03*
X107855000Y-110991500D03*
X130715000Y-110991500D03*
X123095000Y-110991500D03*
X125635000Y-110991500D03*
D14*
X130715000Y-123691500D03*
%TD*%
D15*
%TO.C,U4*%
X121920000Y-144780000D03*
X124460000Y-144780000D03*
X127000000Y-144780000D03*
X129540000Y-144780000D03*
X132080000Y-144780000D03*
X134620000Y-144780000D03*
X137160000Y-144780000D03*
X147320000Y-129540000D03*
X144780000Y-129540000D03*
X142240000Y-129540000D03*
X139700000Y-129540000D03*
X137160000Y-129540000D03*
X132080000Y-129540000D03*
X129540000Y-129540000D03*
X127000000Y-129540000D03*
X124460000Y-129540000D03*
X121920000Y-129540000D03*
X119380000Y-129540000D03*
X116840000Y-130810000D03*
X116840000Y-133350000D03*
X116840000Y-135890000D03*
X116840000Y-138430000D03*
X116840000Y-140970000D03*
X116840000Y-143510000D03*
X119380000Y-144780000D03*
X139700000Y-144780000D03*
X142240000Y-144780000D03*
X144780000Y-144780000D03*
X147320000Y-144780000D03*
X134620000Y-129540000D03*
%TD*%
D12*
%TO.C,C7*%
X114300000Y-118224000D03*
X114300000Y-121349000D03*
%TD*%
D16*
%TO.C,L2*%
X107732500Y-117246500D03*
X110707500Y-117246500D03*
%TD*%
D17*
%TO.C,C1*%
X103162500Y-101600000D03*
X100037500Y-101600000D03*
%TD*%
D18*
%TO.C,C2*%
X97790000Y-115277500D03*
X97790000Y-118402500D03*
%TD*%
D19*
%TO.C,C3*%
X109220000Y-137900000D03*
X109220000Y-141500000D03*
%TD*%
D18*
%TO.C,C4*%
X104140000Y-108927500D03*
X104140000Y-112052500D03*
%TD*%
%TO.C,C5*%
X101600000Y-117817500D03*
X101600000Y-120942500D03*
%TD*%
%TO.C,C6*%
X148590000Y-107657500D03*
X148590000Y-110782500D03*
%TD*%
D19*
%TO.C,C8*%
X108966000Y-130661000D03*
X108966000Y-134261000D03*
%TD*%
D18*
%TO.C,C9*%
X142240000Y-118795000D03*
X142240000Y-121920000D03*
%TD*%
%TO.C,C10*%
X148590000Y-113715000D03*
X148590000Y-116840000D03*
%TD*%
D20*
%TO.C,C12*%
X119087500Y-119380000D03*
X122212500Y-119380000D03*
%TD*%
D17*
%TO.C,C13*%
X148125000Y-149860000D03*
X145000000Y-149860000D03*
%TD*%
D18*
%TO.C,C14*%
X134620000Y-132422500D03*
X134620000Y-135547500D03*
%TD*%
D21*
%TO.C,C15*%
X156210000Y-122046500D03*
X156210000Y-114046500D03*
%TD*%
D22*
%TO.C,D1*%
X96520000Y-137387000D03*
X96520000Y-140362000D03*
%TD*%
D23*
%TO.C,J1*%
X96520000Y-144780000D03*
D24*
X96520000Y-147320000D03*
%TD*%
D23*
%TO.C,J4*%
X157543500Y-147320000D03*
D24*
X157543500Y-144780000D03*
X157543500Y-142240000D03*
X157543500Y-139700000D03*
X157543500Y-137160000D03*
X157543500Y-134620000D03*
X157543500Y-132080000D03*
X157543500Y-129540000D03*
%TD*%
D25*
%TO.C,L1*%
X101600000Y-140362000D03*
X101600000Y-137387000D03*
%TD*%
D26*
%TO.C,L3*%
X95032500Y-124460000D03*
X98007500Y-124460000D03*
%TD*%
D27*
%TO.C,L4*%
X154400000Y-149860000D03*
X151425000Y-149860000D03*
%TD*%
%TO.C,L5*%
X121085000Y-115570000D03*
X118110000Y-115570000D03*
%TD*%
D28*
%TO.C,R1*%
X119189500Y-97851500D03*
X119189500Y-103951500D03*
%TD*%
D29*
%TO.C,R2*%
X108140500Y-100901500D03*
X108140500Y-97801500D03*
%TD*%
D28*
%TO.C,R3*%
X113284000Y-97851500D03*
X113284000Y-103951500D03*
%TD*%
%TO.C,R4*%
X150876000Y-97915000D03*
X150876000Y-104015000D03*
%TD*%
D30*
%TO.C,R5*%
X144716500Y-103951500D03*
X144716500Y-97851500D03*
%TD*%
D31*
%TO.C,R6*%
X155575000Y-97827500D03*
X155575000Y-100927500D03*
%TD*%
D10*
%TO.C,T1*%
X117919500Y-72326500D03*
D11*
X153479500Y-69786500D03*
X115379500Y-60896500D03*
X148399500Y-60896500D03*
%TD*%
D32*
%TO.C,U1*%
X97155000Y-111795000D03*
X98425000Y-111795000D03*
X99695000Y-111795000D03*
X100965000Y-111795000D03*
X100965000Y-106645000D03*
X99695000Y-106645000D03*
X98425000Y-106645000D03*
X97155000Y-106645000D03*
%TD*%
D33*
%TO.C,U2*%
X95910000Y-129780000D03*
X95910000Y-132080000D03*
D34*
X102210000Y-132080000D03*
D33*
X95910000Y-134380000D03*
%TD*%
D35*
%TO.C,U3*%
X139665000Y-112395000D03*
X139665000Y-113665000D03*
X139665000Y-114935000D03*
X139665000Y-116205000D03*
X144815000Y-116205000D03*
X144815000Y-114935000D03*
X144815000Y-113665000D03*
X144815000Y-112395000D03*
%TD*%
D36*
%TO.C,J2*%
X98171000Y-60960000D03*
X98171000Y-68580000D03*
%TD*%
%TO.C,J3*%
X159004000Y-61023500D03*
X159004000Y-53403500D03*
%TD*%
D37*
%TO.C,R7*%
X117725000Y-149860000D03*
X120650000Y-149860000D03*
%TD*%
D38*
%TO.C,C16*%
X135597500Y-109220000D03*
X138722500Y-109220000D03*
%TD*%
D39*
%TO.C,R8*%
X127192500Y-149860000D03*
X124267500Y-149860000D03*
%TD*%
M02*
