M48
; DRILL file {KiCad 6.0.2+dfsg-1} date Mon 15 Jul 2024 16:46:12
; FORMAT={-:-/ absolute / inch / decimal}
; #@! TF.CreationDate,2024-07-15T16:46:12+10:00
; #@! TF.GenerationSoftware,Kicad,Pcbnew,6.0.2+dfsg-1
; #@! TF.FileFunction,Plated,1,2,PTH
FMAT,2
INCH
; #@! TA.AperFunction,Plated,PTH,ViaDrill
T1C0.0157
; #@! TA.AperFunction,Plated,PTH,ComponentDrill
T2C0.0300
; #@! TA.AperFunction,Plated,PTH,ComponentDrill
T3C0.0394
; #@! TA.AperFunction,Plated,PTH,ViaDrill
T4C0.1181
; #@! TA.AperFunction,Plated,PTH,ComponentDrill
T5C0.1260
%
G90
G05
T1
X3.75Y-2.6
X3.75Y-2.65
X3.75Y-2.7
X3.75Y-2.75
X3.75Y-2.8
X3.8Y-2.6
X3.8Y-2.65
X3.8Y-2.7
X3.8Y-2.75
X3.8Y-2.8
X3.8406Y-5.1094
X3.85Y-2.6
X3.85Y-2.65
X3.85Y-2.7
X3.85Y-2.75
X3.85Y-2.8
X3.9Y-2.6
X3.9Y-2.65
X3.9Y-2.7
X3.9Y-2.75
X3.9Y-2.8
X3.9Y-4.475
X3.9Y-5.1
X3.9115Y-4.7615
X3.95Y-2.6
X3.95Y-2.65
X3.95Y-2.7
X3.95Y-2.75
X3.95Y-2.8
X4.0Y-4.85
X4.1Y-4.5
X4.15Y-3.2
X4.15Y-3.25
X4.15Y-3.3
X4.15Y-3.35
X4.15Y-3.4
X4.15Y-5.3
X4.1891Y-5.2859
X4.2Y-3.2
X4.2Y-3.4
X4.2Y-3.75
X4.25Y-3.2
X4.25Y-3.25
X4.25Y-3.35
X4.25Y-3.4
X4.25Y-3.8
X4.3Y-3.2
X4.3Y-3.4
X4.3125Y-5.6625
X4.35Y-3.2
X4.35Y-3.25
X4.35Y-3.35
X4.35Y-3.4
X4.35Y-5.7
X4.4Y-3.2
X4.4Y-3.4
X4.45Y-3.2
X4.45Y-3.25
X4.45Y-3.35
X4.45Y-3.4
X4.5Y-3.2
X4.5Y-3.4
X4.525Y-4.85
X4.55Y-3.2
X4.55Y-3.25
X4.55Y-3.3
X4.55Y-3.35
X4.55Y-3.4
X4.7Y-4.15
X4.75Y-4.2
X5.2Y-4.65
X5.3Y-5.4
X5.325Y-4.825
X5.325Y-5.425
X5.35Y-4.85
X5.375Y-4.875
X5.4Y-4.9
X5.425Y-4.475
X5.525Y-4.3
X5.65Y-4.2
X5.65Y-4.8
X5.6975Y-4.1525
X5.725Y-4.8
X5.85Y-2.65
X5.85Y-2.7
X5.85Y-2.75
X5.85Y-2.8
X5.85Y-2.85
X5.85Y-4.675
X5.85Y-4.8
X5.9Y-2.65
X5.9Y-2.85
X5.9125Y-4.7375
X5.95Y-2.65
X5.95Y-2.7
X5.95Y-2.8
X5.95Y-2.85
X6.0Y-2.65
X6.0Y-2.85
X6.05Y-2.65
X6.05Y-2.7
X6.05Y-2.8
X6.05Y-2.85
X6.1Y-2.65
X6.1Y-2.85
X6.15Y-2.0
X6.15Y-2.05
X6.15Y-2.1
X6.15Y-2.15
X6.15Y-2.2
X6.15Y-2.65
X6.15Y-2.7
X6.15Y-2.8
X6.15Y-2.85
X6.15Y-3.8
X6.2Y-2.0
X6.2Y-2.05
X6.2Y-2.1
X6.2Y-2.15
X6.2Y-2.2
X6.2Y-2.65
X6.2Y-2.85
X6.2Y-3.75
X6.25Y-2.0
X6.25Y-2.05
X6.25Y-2.1
X6.25Y-2.15
X6.25Y-2.2
X6.25Y-2.65
X6.25Y-2.7
X6.25Y-2.75
X6.25Y-2.8
X6.25Y-2.85
X6.3Y-2.0
X6.3Y-2.05
X6.3Y-2.1
X6.3Y-2.15
X6.3Y-2.2
X6.35Y-2.0
X6.35Y-2.05
X6.35Y-2.1
X6.35Y-2.15
X6.35Y-2.2
T2
X4.6Y-5.15
X4.6Y-5.25
X4.6Y-5.35
X4.6Y-5.45
X4.6Y-5.55
X4.6Y-5.65
X4.7Y-5.1
X4.7Y-5.7
X4.8Y-5.1
X4.8Y-5.7
X4.9Y-5.1
X4.9Y-5.7
X5.0Y-5.1
X5.0Y-5.7
X5.1Y-5.1
X5.1Y-5.7
X5.2Y-5.1
X5.2Y-5.7
X5.3Y-5.1
X5.3Y-5.7
X5.4Y-5.1
X5.4Y-5.7
X5.5Y-5.1
X5.5Y-5.7
X5.6Y-5.1
X5.6Y-5.7
X5.7Y-5.1
X5.7Y-5.7
X5.8Y-5.1
X5.8Y-5.7
T3
X3.8Y-5.7
X3.8Y-5.8
X4.2463Y-4.3697
X4.3463Y-4.3697
X4.4463Y-4.3697
X4.5463Y-4.3697
X4.6463Y-4.3697
X4.7463Y-4.3697
X4.8463Y-4.3697
X4.9463Y-4.3697
X5.0463Y-4.3697
X5.1463Y-4.3697
X6.2025Y-5.1
X6.2025Y-5.2
X6.2025Y-5.3
X6.2025Y-5.4
X6.2025Y-5.5
X6.2025Y-5.6
X6.2025Y-5.7
X6.2025Y-5.8
T4
X4.1Y-5.75
X4.25Y-2.0
X5.9Y-2.0
X6.25Y-4.2
T5
X4.2463Y-4.8697
X5.1463Y-4.8697
T0
M30
