%TF.GenerationSoftware,KiCad,Pcbnew,6.0.2+dfsg-1*%
%TF.CreationDate,2024-07-15T16:46:16+10:00*%
%TF.ProjectId,SWRBridge,53575242-7269-4646-9765-2e6b69636164,2*%
%TF.SameCoordinates,Original*%
%TF.FileFunction,Copper,L2,Bot*%
%TF.FilePolarity,Positive*%
%FSLAX46Y46*%
G04 Gerber Fmt 4.6, Leading zero omitted, Abs format (unit mm)*
G04 Created by KiCad (PCBNEW 6.0.2+dfsg-1) date 2024-07-15 16:46:16*
%MOMM*%
%LPD*%
G01*
G04 APERTURE LIST*
%TA.AperFunction,SMDPad,CuDef*%
%ADD10R,12.000000X6.000000*%
%TD*%
%TA.AperFunction,ComponentPad*%
%ADD11C,1.700000*%
%TD*%
%TA.AperFunction,ComponentPad*%
%ADD12C,4.500000*%
%TD*%
%TA.AperFunction,ComponentPad*%
%ADD13C,1.524000*%
%TD*%
%TA.AperFunction,ComponentPad*%
%ADD14R,1.700000X1.700000*%
%TD*%
%TA.AperFunction,ComponentPad*%
%ADD15O,1.700000X1.700000*%
%TD*%
%TA.AperFunction,ViaPad*%
%ADD16C,0.800000*%
%TD*%
%TA.AperFunction,ViaPad*%
%ADD17C,6.000000*%
%TD*%
%TA.AperFunction,Conductor*%
%ADD18C,2.500000*%
%TD*%
%TA.AperFunction,Conductor*%
%ADD19C,0.750000*%
%TD*%
%TA.AperFunction,Conductor*%
%ADD20C,0.250000*%
%TD*%
G04 APERTURE END LIST*
D10*
%TO.P,T2,5,5*%
%TO.N,GND*%
X115570000Y-92456000D03*
%TD*%
D11*
%TO.P,U5,1,ADDR*%
%TO.N,GND*%
X120555000Y-110991500D03*
%TO.P,U5,2,ALERT/RDY*%
%TO.N,unconnected-(U5-Pad2)*%
X118015000Y-110991500D03*
%TO.P,U5,3,GND*%
%TO.N,GND*%
X128175000Y-110991500D03*
%TO.P,U5,4,AIN0*%
%TO.N,/Reverse*%
X115475000Y-110991500D03*
%TO.P,U5,5,AIN1*%
%TO.N,/Forward*%
X112935000Y-110991500D03*
%TO.P,U5,6,AIN2*%
%TO.N,unconnected-(U5-Pad6)*%
X110395000Y-110991500D03*
%TO.P,U5,7,AIN3*%
%TO.N,unconnected-(U5-Pad7)*%
X107855000Y-110991500D03*
%TO.P,U5,8,VDD*%
%TO.N,/3V3*%
X130715000Y-110991500D03*
%TO.P,U5,9,SDA*%
%TO.N,Net-(R8-Pad2)*%
X123095000Y-110991500D03*
%TO.P,U5,10,SCL*%
%TO.N,Net-(R7-Pad2)*%
X125635000Y-110991500D03*
D12*
%TO.P,U5,GND*%
%TO.N,N/C*%
X107855000Y-123691500D03*
X130715000Y-123691500D03*
%TD*%
D13*
%TO.P,U4,1,RXD*%
%TO.N,unconnected-(U4-Pad1)*%
X121920000Y-144780000D03*
%TO.P,U4,2,TXD*%
%TO.N,unconnected-(U4-Pad2)*%
X124460000Y-144780000D03*
%TO.P,U4,3,INT1PD3*%
%TO.N,unconnected-(U4-Pad3)*%
X127000000Y-144780000D03*
%TO.P,U4,4,PD4*%
%TO.N,unconnected-(U4-Pad4)*%
X129540000Y-144780000D03*
%TO.P,U4,5,PD5*%
%TO.N,unconnected-(U4-Pad5)*%
X132080000Y-144780000D03*
%TO.P,U4,6,PD6*%
%TO.N,unconnected-(U4-Pad6)*%
X134620000Y-144780000D03*
%TO.P,U4,8,PB0*%
%TO.N,/3V3*%
X137160000Y-144780000D03*
%TO.P,U4,9,PB1*%
%TO.N,/DisplayReset*%
X147320000Y-129540000D03*
%TO.P,U4,10,PB2SS*%
%TO.N,/DisplaySelect*%
X144780000Y-129540000D03*
%TO.P,U4,11,PB3MOSI*%
%TO.N,/Data*%
X142240000Y-129540000D03*
%TO.P,U4,12,PB4MISO*%
%TO.N,unconnected-(U4-Pad12)*%
X139700000Y-129540000D03*
%TO.P,U4,13,PB5SCK*%
%TO.N,/SCLK*%
X137160000Y-129540000D03*
%TO.P,U4,14,PC0A0*%
%TO.N,unconnected-(U4-Pad14)*%
X132080000Y-129540000D03*
%TO.P,U4,15,PC1A1*%
%TO.N,unconnected-(U4-Pad15)*%
X129540000Y-129540000D03*
%TO.P,U4,16,PC2A2*%
%TO.N,unconnected-(U4-Pad16)*%
X127000000Y-129540000D03*
%TO.P,U4,17,PC3A3*%
%TO.N,unconnected-(U4-Pad17)*%
X124460000Y-129540000D03*
%TO.P,U4,18,PC4A4SDA*%
%TO.N,Net-(R8-Pad2)*%
X121920000Y-129540000D03*
%TO.P,U4,19,PC5A5SCL*%
%TO.N,Net-(R7-Pad2)*%
X119380000Y-129540000D03*
%TO.P,U4,20,GND*%
%TO.N,GND*%
X116840000Y-130810000D03*
%TO.P,U4,21,GND*%
X116840000Y-133350000D03*
%TO.P,U4,22,VBUS*%
%TO.N,unconnected-(U4-Pad22)*%
X116840000Y-135890000D03*
%TO.P,U4,23,RXD*%
%TO.N,unconnected-(U4-Pad23)*%
X116840000Y-138430000D03*
%TO.P,U4,24,TXD*%
%TO.N,unconnected-(U4-Pad24)*%
X116840000Y-140970000D03*
%TO.P,U4,25,DTR/RTS*%
%TO.N,unconnected-(U4-Pad25)*%
X116840000Y-143510000D03*
%TO.P,U4,26,RESET*%
%TO.N,unconnected-(U4-Pad26)*%
X119380000Y-144780000D03*
%TO.P,U4,27,3V3*%
%TO.N,/3V3*%
X139700000Y-144780000D03*
%TO.P,U4,28,VBUS*%
%TO.N,unconnected-(U4-Pad28)*%
X142240000Y-144780000D03*
%TO.P,U4,29,GND*%
%TO.N,GND*%
X144780000Y-144780000D03*
%TO.P,U4,30,VBAT*%
%TO.N,Net-(C13-Pad1)*%
X147320000Y-144780000D03*
%TO.P,U4,31,AREF*%
%TO.N,Net-(C14-Pad1)*%
X134620000Y-129540000D03*
%TD*%
D14*
%TO.P,J1,1,Pin_1*%
%TO.N,Net-(D1-Pad2)*%
X96520000Y-144780000D03*
D15*
%TO.P,J1,2,Pin_2*%
%TO.N,GND*%
X96520000Y-147320000D03*
%TD*%
D14*
%TO.P,J4,1,Pin_1*%
%TO.N,GND*%
X157543500Y-147320000D03*
D15*
%TO.P,J4,2,Pin_2*%
%TO.N,/3V3*%
X157543500Y-144780000D03*
%TO.P,J4,3,Pin_3*%
%TO.N,unconnected-(J4-Pad3)*%
X157543500Y-142240000D03*
%TO.P,J4,4,Pin_4*%
%TO.N,/3V3*%
X157543500Y-139700000D03*
%TO.P,J4,5,Pin_5*%
%TO.N,/SCLK*%
X157543500Y-137160000D03*
%TO.P,J4,6,Pin_6*%
%TO.N,/Data*%
X157543500Y-134620000D03*
%TO.P,J4,7,Pin_7*%
%TO.N,/DisplaySelect*%
X157543500Y-132080000D03*
%TO.P,J4,8,Pin_8*%
%TO.N,/DisplayReset*%
X157543500Y-129540000D03*
%TD*%
D10*
%TO.P,T1,5,5*%
%TO.N,GND*%
X148399500Y-60896500D03*
%TD*%
D16*
%TO.N,GND*%
X134620000Y-137160000D03*
X135255000Y-137795000D03*
X110490000Y-144780000D03*
X109537500Y-143827500D03*
X105410000Y-134620000D03*
X106404000Y-134261000D03*
X97550000Y-129780000D03*
X99060000Y-129540000D03*
X99060000Y-113665000D03*
X99352500Y-120942500D03*
X137795000Y-113665000D03*
X140335000Y-109220000D03*
X104140000Y-114300000D03*
X101600000Y-123190000D03*
X114935000Y-123190000D03*
X132080000Y-118110000D03*
X145415000Y-121920000D03*
X143510000Y-121920000D03*
X148590000Y-118745000D03*
X148590000Y-121920000D03*
X150177500Y-120332500D03*
%TO.N,/3V3*%
X137160000Y-124460000D03*
X136525000Y-123825000D03*
X135890000Y-123190000D03*
X135255000Y-122555000D03*
D17*
%TO.N,*%
X149860000Y-50800000D03*
X158750000Y-106680000D03*
X107950000Y-50800000D03*
X104140000Y-146050000D03*
D16*
%TO.N,GND*%
X107950000Y-86360000D03*
X119380000Y-105410000D03*
X96520000Y-66040000D03*
X113030000Y-85090000D03*
X160020000Y-54610000D03*
X106680000Y-95250000D03*
X99060000Y-71120000D03*
X95250000Y-68580000D03*
X144716500Y-105473500D03*
X111760000Y-81280000D03*
X115570000Y-81280000D03*
X97790000Y-68580000D03*
X157480000Y-95250000D03*
X156210000Y-68580000D03*
X156210000Y-54610000D03*
X156210000Y-72390000D03*
X151130000Y-68580000D03*
X158750000Y-54610000D03*
X97790000Y-71120000D03*
X99060000Y-66040000D03*
X158750000Y-71120000D03*
X148590000Y-68580000D03*
X99060000Y-69850000D03*
X158750000Y-50800000D03*
X156210000Y-67310000D03*
X148590000Y-67310000D03*
X157480000Y-54610000D03*
X151130000Y-72390000D03*
X95250000Y-67310000D03*
X152400000Y-72390000D03*
X161290000Y-52070000D03*
X161290000Y-53340000D03*
X156210000Y-55880000D03*
X105410000Y-83820000D03*
X100330000Y-69850000D03*
X113030000Y-81280000D03*
X114300000Y-81280000D03*
X160020000Y-53340000D03*
X148590000Y-72390000D03*
X95250000Y-71120000D03*
X149860000Y-72390000D03*
X143510000Y-106680000D03*
X106680000Y-81280000D03*
X151130000Y-71120000D03*
X110490000Y-86360000D03*
X107950000Y-81280000D03*
X160020000Y-55880000D03*
X154940000Y-67310000D03*
X158750000Y-67310000D03*
X153670000Y-68580000D03*
X161290000Y-50800000D03*
X97790000Y-69850000D03*
X95250000Y-66040000D03*
X154940000Y-72390000D03*
X97790000Y-67310000D03*
X109220000Y-86360000D03*
X161290000Y-55880000D03*
X115570000Y-82550000D03*
X100330000Y-67310000D03*
X152400000Y-67310000D03*
X158750000Y-68580000D03*
X157480000Y-52070000D03*
X110490000Y-82550000D03*
X105410000Y-86360000D03*
X97790000Y-66040000D03*
X157480000Y-72390000D03*
X158750000Y-53340000D03*
X115570000Y-85090000D03*
X149860000Y-67310000D03*
X115570000Y-83820000D03*
X156210000Y-71120000D03*
X157480000Y-53340000D03*
X96520000Y-68580000D03*
X99060000Y-67310000D03*
X151130000Y-67310000D03*
X148590000Y-71120000D03*
X96520000Y-71120000D03*
X107950000Y-85090000D03*
X96520000Y-69850000D03*
X161290000Y-54610000D03*
X106680000Y-86360000D03*
X153670000Y-71120000D03*
X99060000Y-68580000D03*
X96520000Y-67310000D03*
X158750000Y-69850000D03*
X100330000Y-66040000D03*
X158750000Y-52070000D03*
X114300000Y-86360000D03*
X153670000Y-72390000D03*
X156210000Y-53340000D03*
X148590000Y-69850000D03*
X107950000Y-96520000D03*
X158750000Y-55880000D03*
X160020000Y-52070000D03*
X120650000Y-106680000D03*
X160020000Y-50800000D03*
X156210000Y-50800000D03*
X110490000Y-81280000D03*
X105410000Y-85090000D03*
X157480000Y-55880000D03*
X113030000Y-86360000D03*
X156210000Y-52070000D03*
X156210000Y-96520000D03*
X111760000Y-86360000D03*
X100330000Y-68580000D03*
X157480000Y-67310000D03*
X110490000Y-85090000D03*
X158750000Y-72390000D03*
X105410000Y-82550000D03*
X95250000Y-69850000D03*
X107950000Y-82550000D03*
X113030000Y-82550000D03*
X157480000Y-50800000D03*
X115570000Y-86360000D03*
X153670000Y-67310000D03*
X109220000Y-81280000D03*
X105410000Y-81280000D03*
X100330000Y-71120000D03*
%TD*%
D18*
%TO.N,GND*%
X106426000Y-92456000D02*
X106045000Y-92075000D01*
X115570000Y-92456000D02*
X106426000Y-92456000D01*
X114300000Y-86360000D02*
X114300000Y-97155000D01*
X114300000Y-97155000D02*
X115570000Y-95885000D01*
X115570000Y-95885000D02*
X115570000Y-92456000D01*
D19*
%TO.N,/3V3*%
X135890000Y-123190000D02*
X139700000Y-127000000D01*
X135255000Y-122555000D02*
X135890000Y-123190000D01*
X142240000Y-139700000D02*
X153670000Y-139700000D01*
X153670000Y-139700000D02*
X157543500Y-139700000D01*
X134620000Y-113030000D02*
X134620000Y-121920000D01*
X130715000Y-110991500D02*
X132581500Y-110991500D01*
X132581500Y-110991500D02*
X134620000Y-113030000D01*
X134620000Y-121920000D02*
X135255000Y-122555000D01*
X152400000Y-127000000D02*
X153670000Y-128270000D01*
X139700000Y-127000000D02*
X152400000Y-127000000D01*
X153670000Y-128270000D02*
X153670000Y-139700000D01*
X160020000Y-143510000D02*
X160020000Y-140970000D01*
X157543500Y-144780000D02*
X158750000Y-144780000D01*
X158750000Y-144780000D02*
X160020000Y-143510000D01*
X160020000Y-140970000D02*
X158750000Y-139700000D01*
X158750000Y-139700000D02*
X157543500Y-139700000D01*
X139700000Y-142240000D02*
X142240000Y-139700000D01*
X139700000Y-144780000D02*
X139700000Y-142240000D01*
D20*
%TO.N,Net-(R7-Pad2)*%
X120650000Y-132080000D02*
X119380000Y-130810000D01*
X119380000Y-130810000D02*
X119380000Y-129540000D01*
X125730000Y-132080000D02*
X120650000Y-132080000D01*
X125635000Y-110991500D02*
X125635000Y-131985000D01*
X125635000Y-131985000D02*
X125730000Y-132080000D01*
%TO.N,Net-(R8-Pad2)*%
X123095000Y-110991500D02*
X123095000Y-128365000D01*
X123095000Y-128365000D02*
X121920000Y-129540000D01*
D18*
%TO.N,GND*%
X148399500Y-60896500D02*
X148399500Y-64579500D01*
X148399500Y-56070500D02*
X148399500Y-60896500D01*
X156146500Y-60896500D02*
X148399500Y-60896500D01*
%TD*%
%TA.AperFunction,Conductor*%
%TO.N,GND*%
G36*
X162501359Y-45740002D02*
G01*
X162547852Y-45793658D01*
X162559236Y-45846759D01*
X162447772Y-64349824D01*
X162206918Y-104331708D01*
X162201668Y-105203165D01*
X162181256Y-105271164D01*
X162127321Y-105317333D01*
X162056987Y-105327013D01*
X161992585Y-105297132D01*
X161960617Y-105253726D01*
X161959573Y-105251006D01*
X161792620Y-104923343D01*
X161592332Y-104614925D01*
X161360902Y-104329133D01*
X161100867Y-104069098D01*
X160815075Y-103837668D01*
X160506658Y-103637380D01*
X160503724Y-103635885D01*
X160503717Y-103635881D01*
X160181934Y-103471925D01*
X160178994Y-103470427D01*
X159835674Y-103338639D01*
X159480459Y-103243459D01*
X159287442Y-103212888D01*
X159120489Y-103186445D01*
X159120481Y-103186444D01*
X159117241Y-103185931D01*
X158750000Y-103166685D01*
X158382759Y-103185931D01*
X158379519Y-103186444D01*
X158379511Y-103186445D01*
X158212558Y-103212888D01*
X158019541Y-103243459D01*
X157664326Y-103338639D01*
X157321006Y-103470427D01*
X157318066Y-103471925D01*
X156996284Y-103635881D01*
X156996277Y-103635885D01*
X156993343Y-103637380D01*
X156684925Y-103837668D01*
X156399133Y-104069098D01*
X156139098Y-104329133D01*
X155907668Y-104614925D01*
X155707380Y-104923343D01*
X155540427Y-105251006D01*
X155408639Y-105594326D01*
X155313459Y-105949541D01*
X155255931Y-106312759D01*
X155236685Y-106680000D01*
X155255931Y-107047241D01*
X155313459Y-107410459D01*
X155408639Y-107765674D01*
X155540427Y-108108994D01*
X155707380Y-108436657D01*
X155907668Y-108745075D01*
X156139098Y-109030867D01*
X156399133Y-109290902D01*
X156684925Y-109522332D01*
X156687700Y-109524134D01*
X156921215Y-109675780D01*
X156993342Y-109722620D01*
X156996276Y-109724115D01*
X156996283Y-109724119D01*
X157261592Y-109859300D01*
X157321006Y-109889573D01*
X157527999Y-109969030D01*
X157545826Y-109975873D01*
X157664326Y-110021361D01*
X158019541Y-110116541D01*
X158193485Y-110144091D01*
X158379511Y-110173555D01*
X158379519Y-110173556D01*
X158382759Y-110174069D01*
X158750000Y-110193315D01*
X159117241Y-110174069D01*
X159120481Y-110173556D01*
X159120489Y-110173555D01*
X159306515Y-110144091D01*
X159480459Y-110116541D01*
X159835674Y-110021361D01*
X159954175Y-109975873D01*
X159972001Y-109969030D01*
X160178994Y-109889573D01*
X160238408Y-109859300D01*
X160503717Y-109724119D01*
X160503724Y-109724115D01*
X160506658Y-109722620D01*
X160578786Y-109675780D01*
X160812300Y-109524134D01*
X160815075Y-109522332D01*
X161100867Y-109290902D01*
X161360902Y-109030867D01*
X161592332Y-108745075D01*
X161792620Y-108436657D01*
X161945381Y-108136848D01*
X161994130Y-108085233D01*
X162063044Y-108068167D01*
X162130246Y-108091068D01*
X162174398Y-108146665D01*
X162183646Y-108194809D01*
X162099924Y-122092549D01*
X161925754Y-151004759D01*
X161905342Y-151072758D01*
X161851407Y-151118927D01*
X161799756Y-151130000D01*
X94106000Y-151130000D01*
X94037879Y-151109998D01*
X93991386Y-151056342D01*
X93980000Y-151004000D01*
X93980000Y-147587966D01*
X95188257Y-147587966D01*
X95218565Y-147722446D01*
X95221645Y-147732275D01*
X95301770Y-147929603D01*
X95306413Y-147938794D01*
X95417694Y-148120388D01*
X95423777Y-148128699D01*
X95563213Y-148289667D01*
X95570580Y-148296883D01*
X95734434Y-148432916D01*
X95742881Y-148438831D01*
X95926756Y-148546279D01*
X95936042Y-148550729D01*
X96135001Y-148626703D01*
X96144899Y-148629579D01*
X96248250Y-148650606D01*
X96262299Y-148649410D01*
X96266000Y-148639065D01*
X96266000Y-148638517D01*
X96774000Y-148638517D01*
X96778064Y-148652359D01*
X96791478Y-148654393D01*
X96798184Y-148653534D01*
X96808262Y-148651392D01*
X97012255Y-148590191D01*
X97021842Y-148586433D01*
X97213095Y-148492739D01*
X97221945Y-148487464D01*
X97395328Y-148363792D01*
X97403200Y-148357139D01*
X97554052Y-148206812D01*
X97560730Y-148198965D01*
X97685003Y-148026020D01*
X97690313Y-148017183D01*
X97784670Y-147826267D01*
X97788469Y-147816672D01*
X97850377Y-147612910D01*
X97852555Y-147602837D01*
X97853986Y-147591962D01*
X97851775Y-147577778D01*
X97838617Y-147574000D01*
X96792115Y-147574000D01*
X96776876Y-147578475D01*
X96775671Y-147579865D01*
X96774000Y-147587548D01*
X96774000Y-148638517D01*
X96266000Y-148638517D01*
X96266000Y-147592115D01*
X96261525Y-147576876D01*
X96260135Y-147575671D01*
X96252452Y-147574000D01*
X95203225Y-147574000D01*
X95189694Y-147577973D01*
X95188257Y-147587966D01*
X93980000Y-147587966D01*
X93980000Y-145678134D01*
X95161500Y-145678134D01*
X95168255Y-145740316D01*
X95219385Y-145876705D01*
X95306739Y-145993261D01*
X95423295Y-146080615D01*
X95431704Y-146083767D01*
X95431705Y-146083768D01*
X95540960Y-146124726D01*
X95597725Y-146167367D01*
X95622425Y-146233929D01*
X95607218Y-146303278D01*
X95587825Y-146329759D01*
X95464590Y-146458717D01*
X95458104Y-146466727D01*
X95338098Y-146642649D01*
X95333000Y-146651623D01*
X95243338Y-146844783D01*
X95239775Y-146854470D01*
X95184389Y-147054183D01*
X95185912Y-147062607D01*
X95198292Y-147066000D01*
X97838344Y-147066000D01*
X97851875Y-147062027D01*
X97853180Y-147052947D01*
X97811214Y-146885875D01*
X97807894Y-146876124D01*
X97722972Y-146680814D01*
X97718105Y-146671739D01*
X97602426Y-146492926D01*
X97596136Y-146484757D01*
X97452293Y-146326677D01*
X97421241Y-146262831D01*
X97429635Y-146192333D01*
X97474812Y-146137564D01*
X97501256Y-146123895D01*
X97608297Y-146083767D01*
X97616705Y-146080615D01*
X97657554Y-146050000D01*
X100626685Y-146050000D01*
X100645931Y-146417241D01*
X100646444Y-146420481D01*
X100646445Y-146420489D01*
X100656624Y-146484757D01*
X100703459Y-146780459D01*
X100798639Y-147135674D01*
X100930427Y-147478994D01*
X101097380Y-147806657D01*
X101297668Y-148115075D01*
X101529098Y-148400867D01*
X101789133Y-148660902D01*
X102074925Y-148892332D01*
X102383342Y-149092620D01*
X102386276Y-149094115D01*
X102386283Y-149094119D01*
X102708066Y-149258075D01*
X102711006Y-149259573D01*
X103054326Y-149391361D01*
X103409541Y-149486541D01*
X103602558Y-149517112D01*
X103769511Y-149543555D01*
X103769519Y-149543556D01*
X103772759Y-149544069D01*
X104140000Y-149563315D01*
X104507241Y-149544069D01*
X104510481Y-149543556D01*
X104510489Y-149543555D01*
X104677442Y-149517112D01*
X104870459Y-149486541D01*
X105225674Y-149391361D01*
X105568994Y-149259573D01*
X105571934Y-149258075D01*
X105893717Y-149094119D01*
X105893724Y-149094115D01*
X105896658Y-149092620D01*
X106205075Y-148892332D01*
X106490867Y-148660902D01*
X106750902Y-148400867D01*
X106901682Y-148214669D01*
X156185501Y-148214669D01*
X156185871Y-148221490D01*
X156191395Y-148272352D01*
X156195021Y-148287604D01*
X156240176Y-148408054D01*
X156248714Y-148423649D01*
X156325215Y-148525724D01*
X156337776Y-148538285D01*
X156439851Y-148614786D01*
X156455446Y-148623324D01*
X156575894Y-148668478D01*
X156591149Y-148672105D01*
X156642014Y-148677631D01*
X156648828Y-148678000D01*
X157271385Y-148678000D01*
X157286624Y-148673525D01*
X157287829Y-148672135D01*
X157289500Y-148664452D01*
X157289500Y-148659884D01*
X157797500Y-148659884D01*
X157801975Y-148675123D01*
X157803365Y-148676328D01*
X157811048Y-148677999D01*
X158438169Y-148677999D01*
X158444990Y-148677629D01*
X158495852Y-148672105D01*
X158511104Y-148668479D01*
X158631554Y-148623324D01*
X158647149Y-148614786D01*
X158749224Y-148538285D01*
X158761785Y-148525724D01*
X158838286Y-148423649D01*
X158846824Y-148408054D01*
X158891978Y-148287606D01*
X158895605Y-148272351D01*
X158901131Y-148221486D01*
X158901500Y-148214672D01*
X158901500Y-147592115D01*
X158897025Y-147576876D01*
X158895635Y-147575671D01*
X158887952Y-147574000D01*
X157815615Y-147574000D01*
X157800376Y-147578475D01*
X157799171Y-147579865D01*
X157797500Y-147587548D01*
X157797500Y-148659884D01*
X157289500Y-148659884D01*
X157289500Y-147592115D01*
X157285025Y-147576876D01*
X157283635Y-147575671D01*
X157275952Y-147574000D01*
X156203616Y-147574000D01*
X156188377Y-147578475D01*
X156187172Y-147579865D01*
X156185501Y-147587548D01*
X156185501Y-148214669D01*
X106901682Y-148214669D01*
X106982332Y-148115075D01*
X107182620Y-147806657D01*
X107349573Y-147478994D01*
X107481361Y-147135674D01*
X107576541Y-146780459D01*
X107623376Y-146484757D01*
X107633555Y-146420489D01*
X107633556Y-146420481D01*
X107634069Y-146417241D01*
X107653315Y-146050000D01*
X107634069Y-145682759D01*
X107633337Y-145678134D01*
X107600022Y-145467793D01*
X107576541Y-145319541D01*
X107481361Y-144964326D01*
X107349573Y-144621006D01*
X107244909Y-144415592D01*
X107184119Y-144296284D01*
X107184115Y-144296277D01*
X107182620Y-144293343D01*
X107156399Y-144252965D01*
X107005468Y-144020552D01*
X106982332Y-143984925D01*
X106750902Y-143699133D01*
X106561769Y-143510000D01*
X115564647Y-143510000D01*
X115584022Y-143731463D01*
X115611564Y-143834251D01*
X115637681Y-143931718D01*
X115641560Y-143946196D01*
X115643882Y-143951177D01*
X115643883Y-143951178D01*
X115733186Y-144142689D01*
X115733189Y-144142694D01*
X115735512Y-144147676D01*
X115738668Y-144152183D01*
X115738669Y-144152185D01*
X115859759Y-144325119D01*
X115863023Y-144329781D01*
X116020219Y-144486977D01*
X116024727Y-144490134D01*
X116024730Y-144490136D01*
X116100495Y-144543187D01*
X116202323Y-144614488D01*
X116207305Y-144616811D01*
X116207310Y-144616814D01*
X116398822Y-144706117D01*
X116403804Y-144708440D01*
X116409112Y-144709862D01*
X116409114Y-144709863D01*
X116442516Y-144718813D01*
X116618537Y-144765978D01*
X116840000Y-144785353D01*
X116901187Y-144780000D01*
X118104647Y-144780000D01*
X118124022Y-145001463D01*
X118125446Y-145006776D01*
X118175191Y-145192425D01*
X118181560Y-145216196D01*
X118183882Y-145221177D01*
X118183883Y-145221178D01*
X118273186Y-145412689D01*
X118273189Y-145412694D01*
X118275512Y-145417676D01*
X118278668Y-145422183D01*
X118278669Y-145422185D01*
X118398701Y-145593608D01*
X118403023Y-145599781D01*
X118560219Y-145756977D01*
X118564727Y-145760134D01*
X118564730Y-145760136D01*
X118617086Y-145796796D01*
X118742323Y-145884488D01*
X118747305Y-145886811D01*
X118747310Y-145886814D01*
X118937173Y-145975348D01*
X118943804Y-145978440D01*
X118949112Y-145979862D01*
X118949114Y-145979863D01*
X118972320Y-145986081D01*
X119158537Y-146035978D01*
X119380000Y-146055353D01*
X119601463Y-146035978D01*
X119787680Y-145986081D01*
X119810886Y-145979863D01*
X119810888Y-145979862D01*
X119816196Y-145978440D01*
X119822827Y-145975348D01*
X120012690Y-145886814D01*
X120012695Y-145886811D01*
X120017677Y-145884488D01*
X120142914Y-145796796D01*
X120195270Y-145760136D01*
X120195273Y-145760134D01*
X120199781Y-145756977D01*
X120356977Y-145599781D01*
X120361300Y-145593608D01*
X120481331Y-145422185D01*
X120481332Y-145422183D01*
X120484488Y-145417676D01*
X120486811Y-145412694D01*
X120486814Y-145412689D01*
X120535805Y-145307627D01*
X120582723Y-145254342D01*
X120651000Y-145234881D01*
X120718960Y-145255423D01*
X120764195Y-145307627D01*
X120813186Y-145412689D01*
X120813189Y-145412694D01*
X120815512Y-145417676D01*
X120818668Y-145422183D01*
X120818669Y-145422185D01*
X120938701Y-145593608D01*
X120943023Y-145599781D01*
X121100219Y-145756977D01*
X121104727Y-145760134D01*
X121104730Y-145760136D01*
X121157086Y-145796796D01*
X121282323Y-145884488D01*
X121287305Y-145886811D01*
X121287310Y-145886814D01*
X121477173Y-145975348D01*
X121483804Y-145978440D01*
X121489112Y-145979862D01*
X121489114Y-145979863D01*
X121512320Y-145986081D01*
X121698537Y-146035978D01*
X121920000Y-146055353D01*
X122141463Y-146035978D01*
X122327680Y-145986081D01*
X122350886Y-145979863D01*
X122350888Y-145979862D01*
X122356196Y-145978440D01*
X122362827Y-145975348D01*
X122552690Y-145886814D01*
X122552695Y-145886811D01*
X122557677Y-145884488D01*
X122682914Y-145796796D01*
X122735270Y-145760136D01*
X122735273Y-145760134D01*
X122739781Y-145756977D01*
X122896977Y-145599781D01*
X122901300Y-145593608D01*
X123021331Y-145422185D01*
X123021332Y-145422183D01*
X123024488Y-145417676D01*
X123026811Y-145412694D01*
X123026814Y-145412689D01*
X123075805Y-145307627D01*
X123122723Y-145254342D01*
X123191000Y-145234881D01*
X123258960Y-145255423D01*
X123304195Y-145307627D01*
X123353186Y-145412689D01*
X123353189Y-145412694D01*
X123355512Y-145417676D01*
X123358668Y-145422183D01*
X123358669Y-145422185D01*
X123478701Y-145593608D01*
X123483023Y-145599781D01*
X123640219Y-145756977D01*
X123644727Y-145760134D01*
X123644730Y-145760136D01*
X123697086Y-145796796D01*
X123822323Y-145884488D01*
X123827305Y-145886811D01*
X123827310Y-145886814D01*
X124017173Y-145975348D01*
X124023804Y-145978440D01*
X124029112Y-145979862D01*
X124029114Y-145979863D01*
X124052320Y-145986081D01*
X124238537Y-146035978D01*
X124460000Y-146055353D01*
X124681463Y-146035978D01*
X124867680Y-145986081D01*
X124890886Y-145979863D01*
X124890888Y-145979862D01*
X124896196Y-145978440D01*
X124902827Y-145975348D01*
X125092690Y-145886814D01*
X125092695Y-145886811D01*
X125097677Y-145884488D01*
X125222914Y-145796796D01*
X125275270Y-145760136D01*
X125275273Y-145760134D01*
X125279781Y-145756977D01*
X125436977Y-145599781D01*
X125441300Y-145593608D01*
X125561331Y-145422185D01*
X125561332Y-145422183D01*
X125564488Y-145417676D01*
X125566811Y-145412694D01*
X125566814Y-145412689D01*
X125615805Y-145307627D01*
X125662723Y-145254342D01*
X125731000Y-145234881D01*
X125798960Y-145255423D01*
X125844195Y-145307627D01*
X125893186Y-145412689D01*
X125893189Y-145412694D01*
X125895512Y-145417676D01*
X125898668Y-145422183D01*
X125898669Y-145422185D01*
X126018701Y-145593608D01*
X126023023Y-145599781D01*
X126180219Y-145756977D01*
X126184727Y-145760134D01*
X126184730Y-145760136D01*
X126237086Y-145796796D01*
X126362323Y-145884488D01*
X126367305Y-145886811D01*
X126367310Y-145886814D01*
X126557173Y-145975348D01*
X126563804Y-145978440D01*
X126569112Y-145979862D01*
X126569114Y-145979863D01*
X126592320Y-145986081D01*
X126778537Y-146035978D01*
X127000000Y-146055353D01*
X127221463Y-146035978D01*
X127407680Y-145986081D01*
X127430886Y-145979863D01*
X127430888Y-145979862D01*
X127436196Y-145978440D01*
X127442827Y-145975348D01*
X127632690Y-145886814D01*
X127632695Y-145886811D01*
X127637677Y-145884488D01*
X127762914Y-145796796D01*
X127815270Y-145760136D01*
X127815273Y-145760134D01*
X127819781Y-145756977D01*
X127976977Y-145599781D01*
X127981300Y-145593608D01*
X128101331Y-145422185D01*
X128101332Y-145422183D01*
X128104488Y-145417676D01*
X128106811Y-145412694D01*
X128106814Y-145412689D01*
X128155805Y-145307627D01*
X128202723Y-145254342D01*
X128271000Y-145234881D01*
X128338960Y-145255423D01*
X128384195Y-145307627D01*
X128433186Y-145412689D01*
X128433189Y-145412694D01*
X128435512Y-145417676D01*
X128438668Y-145422183D01*
X128438669Y-145422185D01*
X128558701Y-145593608D01*
X128563023Y-145599781D01*
X128720219Y-145756977D01*
X128724727Y-145760134D01*
X128724730Y-145760136D01*
X128777086Y-145796796D01*
X128902323Y-145884488D01*
X128907305Y-145886811D01*
X128907310Y-145886814D01*
X129097173Y-145975348D01*
X129103804Y-145978440D01*
X129109112Y-145979862D01*
X129109114Y-145979863D01*
X129132320Y-145986081D01*
X129318537Y-146035978D01*
X129540000Y-146055353D01*
X129761463Y-146035978D01*
X129947680Y-145986081D01*
X129970886Y-145979863D01*
X129970888Y-145979862D01*
X129976196Y-145978440D01*
X129982827Y-145975348D01*
X130172690Y-145886814D01*
X130172695Y-145886811D01*
X130177677Y-145884488D01*
X130302914Y-145796796D01*
X130355270Y-145760136D01*
X130355273Y-145760134D01*
X130359781Y-145756977D01*
X130516977Y-145599781D01*
X130521300Y-145593608D01*
X130641331Y-145422185D01*
X130641332Y-145422183D01*
X130644488Y-145417676D01*
X130646811Y-145412694D01*
X130646814Y-145412689D01*
X130695805Y-145307627D01*
X130742723Y-145254342D01*
X130811000Y-145234881D01*
X130878960Y-145255423D01*
X130924195Y-145307627D01*
X130973186Y-145412689D01*
X130973189Y-145412694D01*
X130975512Y-145417676D01*
X130978668Y-145422183D01*
X130978669Y-145422185D01*
X131098701Y-145593608D01*
X131103023Y-145599781D01*
X131260219Y-145756977D01*
X131264727Y-145760134D01*
X131264730Y-145760136D01*
X131317086Y-145796796D01*
X131442323Y-145884488D01*
X131447305Y-145886811D01*
X131447310Y-145886814D01*
X131637173Y-145975348D01*
X131643804Y-145978440D01*
X131649112Y-145979862D01*
X131649114Y-145979863D01*
X131672320Y-145986081D01*
X131858537Y-146035978D01*
X132080000Y-146055353D01*
X132301463Y-146035978D01*
X132487680Y-145986081D01*
X132510886Y-145979863D01*
X132510888Y-145979862D01*
X132516196Y-145978440D01*
X132522827Y-145975348D01*
X132712690Y-145886814D01*
X132712695Y-145886811D01*
X132717677Y-145884488D01*
X132842914Y-145796796D01*
X132895270Y-145760136D01*
X132895273Y-145760134D01*
X132899781Y-145756977D01*
X133056977Y-145599781D01*
X133061300Y-145593608D01*
X133181331Y-145422185D01*
X133181332Y-145422183D01*
X133184488Y-145417676D01*
X133186811Y-145412694D01*
X133186814Y-145412689D01*
X133235805Y-145307627D01*
X133282723Y-145254342D01*
X133351000Y-145234881D01*
X133418960Y-145255423D01*
X133464195Y-145307627D01*
X133513186Y-145412689D01*
X133513189Y-145412694D01*
X133515512Y-145417676D01*
X133518668Y-145422183D01*
X133518669Y-145422185D01*
X133638701Y-145593608D01*
X133643023Y-145599781D01*
X133800219Y-145756977D01*
X133804727Y-145760134D01*
X133804730Y-145760136D01*
X133857086Y-145796796D01*
X133982323Y-145884488D01*
X133987305Y-145886811D01*
X133987310Y-145886814D01*
X134177173Y-145975348D01*
X134183804Y-145978440D01*
X134189112Y-145979862D01*
X134189114Y-145979863D01*
X134212320Y-145986081D01*
X134398537Y-146035978D01*
X134620000Y-146055353D01*
X134841463Y-146035978D01*
X135027680Y-145986081D01*
X135050886Y-145979863D01*
X135050888Y-145979862D01*
X135056196Y-145978440D01*
X135062827Y-145975348D01*
X135252690Y-145886814D01*
X135252695Y-145886811D01*
X135257677Y-145884488D01*
X135382914Y-145796796D01*
X135435270Y-145760136D01*
X135435273Y-145760134D01*
X135439781Y-145756977D01*
X135596977Y-145599781D01*
X135601300Y-145593608D01*
X135721331Y-145422185D01*
X135721332Y-145422183D01*
X135724488Y-145417676D01*
X135726811Y-145412694D01*
X135726814Y-145412689D01*
X135775805Y-145307627D01*
X135822723Y-145254342D01*
X135891000Y-145234881D01*
X135958960Y-145255423D01*
X136004195Y-145307627D01*
X136053186Y-145412689D01*
X136053189Y-145412694D01*
X136055512Y-145417676D01*
X136058668Y-145422183D01*
X136058669Y-145422185D01*
X136178701Y-145593608D01*
X136183023Y-145599781D01*
X136340219Y-145756977D01*
X136344727Y-145760134D01*
X136344730Y-145760136D01*
X136397086Y-145796796D01*
X136522323Y-145884488D01*
X136527305Y-145886811D01*
X136527310Y-145886814D01*
X136717173Y-145975348D01*
X136723804Y-145978440D01*
X136729112Y-145979862D01*
X136729114Y-145979863D01*
X136752320Y-145986081D01*
X136938537Y-146035978D01*
X137160000Y-146055353D01*
X137381463Y-146035978D01*
X137567680Y-145986081D01*
X137590886Y-145979863D01*
X137590888Y-145979862D01*
X137596196Y-145978440D01*
X137602827Y-145975348D01*
X137792690Y-145886814D01*
X137792695Y-145886811D01*
X137797677Y-145884488D01*
X137922914Y-145796796D01*
X137975270Y-145760136D01*
X137975273Y-145760134D01*
X137979781Y-145756977D01*
X138136977Y-145599781D01*
X138141300Y-145593608D01*
X138261331Y-145422185D01*
X138261332Y-145422183D01*
X138264488Y-145417676D01*
X138266811Y-145412694D01*
X138266814Y-145412689D01*
X138315805Y-145307627D01*
X138362723Y-145254342D01*
X138431000Y-145234881D01*
X138498960Y-145255423D01*
X138544195Y-145307627D01*
X138593186Y-145412689D01*
X138593189Y-145412694D01*
X138595512Y-145417676D01*
X138598668Y-145422183D01*
X138598669Y-145422185D01*
X138718701Y-145593608D01*
X138723023Y-145599781D01*
X138880219Y-145756977D01*
X138884727Y-145760134D01*
X138884730Y-145760136D01*
X138937086Y-145796796D01*
X139062323Y-145884488D01*
X139067305Y-145886811D01*
X139067310Y-145886814D01*
X139257173Y-145975348D01*
X139263804Y-145978440D01*
X139269112Y-145979862D01*
X139269114Y-145979863D01*
X139292320Y-145986081D01*
X139478537Y-146035978D01*
X139700000Y-146055353D01*
X139921463Y-146035978D01*
X140107680Y-145986081D01*
X140130886Y-145979863D01*
X140130888Y-145979862D01*
X140136196Y-145978440D01*
X140142827Y-145975348D01*
X140332690Y-145886814D01*
X140332695Y-145886811D01*
X140337677Y-145884488D01*
X140462914Y-145796796D01*
X140515270Y-145760136D01*
X140515273Y-145760134D01*
X140519781Y-145756977D01*
X140676977Y-145599781D01*
X140681300Y-145593608D01*
X140801331Y-145422185D01*
X140801332Y-145422183D01*
X140804488Y-145417676D01*
X140806811Y-145412694D01*
X140806814Y-145412689D01*
X140855805Y-145307627D01*
X140902723Y-145254342D01*
X140971000Y-145234881D01*
X141038960Y-145255423D01*
X141084195Y-145307627D01*
X141133186Y-145412689D01*
X141133189Y-145412694D01*
X141135512Y-145417676D01*
X141138668Y-145422183D01*
X141138669Y-145422185D01*
X141258701Y-145593608D01*
X141263023Y-145599781D01*
X141420219Y-145756977D01*
X141424727Y-145760134D01*
X141424730Y-145760136D01*
X141477086Y-145796796D01*
X141602323Y-145884488D01*
X141607305Y-145886811D01*
X141607310Y-145886814D01*
X141797173Y-145975348D01*
X141803804Y-145978440D01*
X141809112Y-145979862D01*
X141809114Y-145979863D01*
X141832320Y-145986081D01*
X142018537Y-146035978D01*
X142240000Y-146055353D01*
X142461463Y-146035978D01*
X142647680Y-145986081D01*
X142670886Y-145979863D01*
X142670888Y-145979862D01*
X142676196Y-145978440D01*
X142682827Y-145975348D01*
X142872690Y-145886814D01*
X142872695Y-145886811D01*
X142877677Y-145884488D01*
X142942959Y-145838777D01*
X144085777Y-145838777D01*
X144095074Y-145850793D01*
X144138069Y-145880898D01*
X144147555Y-145886376D01*
X144338993Y-145975645D01*
X144349285Y-145979391D01*
X144553309Y-146034059D01*
X144564104Y-146035962D01*
X144774525Y-146054372D01*
X144785475Y-146054372D01*
X144995896Y-146035962D01*
X145006691Y-146034059D01*
X145210715Y-145979391D01*
X145221007Y-145975645D01*
X145412445Y-145886376D01*
X145421931Y-145880898D01*
X145465764Y-145850207D01*
X145474139Y-145839729D01*
X145467071Y-145826281D01*
X144792812Y-145152022D01*
X144778868Y-145144408D01*
X144777035Y-145144539D01*
X144770420Y-145148790D01*
X144092207Y-145827003D01*
X144085777Y-145838777D01*
X142942959Y-145838777D01*
X143002914Y-145796796D01*
X143055270Y-145760136D01*
X143055273Y-145760134D01*
X143059781Y-145756977D01*
X143216977Y-145599781D01*
X143221300Y-145593608D01*
X143341331Y-145422185D01*
X143341332Y-145422183D01*
X143344488Y-145417676D01*
X143346811Y-145412694D01*
X143346814Y-145412689D01*
X143396081Y-145307035D01*
X143442999Y-145253750D01*
X143511276Y-145234289D01*
X143579236Y-145254831D01*
X143624471Y-145307035D01*
X143673623Y-145412441D01*
X143679103Y-145421932D01*
X143709794Y-145465765D01*
X143720271Y-145474140D01*
X143733718Y-145467072D01*
X144407978Y-144792812D01*
X144414356Y-144781132D01*
X145144408Y-144781132D01*
X145144539Y-144782965D01*
X145148790Y-144789580D01*
X145827003Y-145467793D01*
X145838777Y-145474223D01*
X145850793Y-145464926D01*
X145880897Y-145421932D01*
X145886377Y-145412441D01*
X145935529Y-145307035D01*
X145982447Y-145253750D01*
X146050724Y-145234289D01*
X146118684Y-145254831D01*
X146163919Y-145307035D01*
X146213186Y-145412689D01*
X146213189Y-145412694D01*
X146215512Y-145417676D01*
X146218668Y-145422183D01*
X146218669Y-145422185D01*
X146338701Y-145593608D01*
X146343023Y-145599781D01*
X146500219Y-145756977D01*
X146504727Y-145760134D01*
X146504730Y-145760136D01*
X146557086Y-145796796D01*
X146682323Y-145884488D01*
X146687305Y-145886811D01*
X146687310Y-145886814D01*
X146877173Y-145975348D01*
X146883804Y-145978440D01*
X146889112Y-145979862D01*
X146889114Y-145979863D01*
X146912320Y-145986081D01*
X147098537Y-146035978D01*
X147320000Y-146055353D01*
X147541463Y-146035978D01*
X147727680Y-145986081D01*
X147750886Y-145979863D01*
X147750888Y-145979862D01*
X147756196Y-145978440D01*
X147762827Y-145975348D01*
X147952690Y-145886814D01*
X147952695Y-145886811D01*
X147957677Y-145884488D01*
X148082914Y-145796796D01*
X148135270Y-145760136D01*
X148135273Y-145760134D01*
X148139781Y-145756977D01*
X148296977Y-145599781D01*
X148301300Y-145593608D01*
X148421331Y-145422185D01*
X148421332Y-145422183D01*
X148424488Y-145417676D01*
X148426811Y-145412694D01*
X148426814Y-145412689D01*
X148516117Y-145221178D01*
X148516118Y-145221177D01*
X148518440Y-145216196D01*
X148524810Y-145192425D01*
X148574554Y-145006776D01*
X148575978Y-145001463D01*
X148595353Y-144780000D01*
X148575978Y-144558537D01*
X148518440Y-144343804D01*
X148510003Y-144325711D01*
X148426814Y-144147311D01*
X148426811Y-144147306D01*
X148424488Y-144142324D01*
X148409428Y-144120816D01*
X148300136Y-143964730D01*
X148300134Y-143964727D01*
X148296977Y-143960219D01*
X148139781Y-143803023D01*
X148135273Y-143799866D01*
X148135270Y-143799864D01*
X148045171Y-143736776D01*
X147957677Y-143675512D01*
X147952695Y-143673189D01*
X147952690Y-143673186D01*
X147761178Y-143583883D01*
X147761177Y-143583882D01*
X147756196Y-143581560D01*
X147750888Y-143580138D01*
X147750886Y-143580137D01*
X147674162Y-143559579D01*
X147541463Y-143524022D01*
X147320000Y-143504647D01*
X147098537Y-143524022D01*
X146965838Y-143559579D01*
X146889114Y-143580137D01*
X146889112Y-143580138D01*
X146883804Y-143581560D01*
X146878823Y-143583882D01*
X146878822Y-143583883D01*
X146687311Y-143673186D01*
X146687306Y-143673189D01*
X146682324Y-143675512D01*
X146677817Y-143678668D01*
X146677815Y-143678669D01*
X146504730Y-143799864D01*
X146504727Y-143799866D01*
X146500219Y-143803023D01*
X146343023Y-143960219D01*
X146339866Y-143964727D01*
X146339864Y-143964730D01*
X146230572Y-144120816D01*
X146215512Y-144142324D01*
X146213189Y-144147306D01*
X146213186Y-144147311D01*
X146163919Y-144252965D01*
X146117001Y-144306250D01*
X146048724Y-144325711D01*
X145980764Y-144305169D01*
X145935529Y-144252965D01*
X145886377Y-144147559D01*
X145880897Y-144138068D01*
X145850206Y-144094235D01*
X145839729Y-144085860D01*
X145826282Y-144092928D01*
X145152022Y-144767188D01*
X145144408Y-144781132D01*
X144414356Y-144781132D01*
X144415592Y-144778868D01*
X144415461Y-144777035D01*
X144411210Y-144770420D01*
X143732997Y-144092207D01*
X143721223Y-144085777D01*
X143709207Y-144095074D01*
X143679103Y-144138068D01*
X143673623Y-144147559D01*
X143624471Y-144252965D01*
X143577553Y-144306250D01*
X143509276Y-144325711D01*
X143441316Y-144305169D01*
X143396081Y-144252965D01*
X143346814Y-144147311D01*
X143346811Y-144147306D01*
X143344488Y-144142324D01*
X143329428Y-144120816D01*
X143220136Y-143964730D01*
X143220134Y-143964727D01*
X143216977Y-143960219D01*
X143059781Y-143803023D01*
X143055273Y-143799866D01*
X143055270Y-143799864D01*
X142965171Y-143736776D01*
X142941599Y-143720271D01*
X144085860Y-143720271D01*
X144092928Y-143733718D01*
X144767188Y-144407978D01*
X144781132Y-144415592D01*
X144782965Y-144415461D01*
X144789580Y-144411210D01*
X145467793Y-143732997D01*
X145474223Y-143721223D01*
X145464926Y-143709207D01*
X145421931Y-143679102D01*
X145412445Y-143673624D01*
X145221007Y-143584355D01*
X145210715Y-143580609D01*
X145006691Y-143525941D01*
X144995896Y-143524038D01*
X144785475Y-143505628D01*
X144774525Y-143505628D01*
X144564104Y-143524038D01*
X144553309Y-143525941D01*
X144349285Y-143580609D01*
X144338993Y-143584355D01*
X144147559Y-143673623D01*
X144138068Y-143679103D01*
X144094235Y-143709794D01*
X144085860Y-143720271D01*
X142941599Y-143720271D01*
X142877677Y-143675512D01*
X142872695Y-143673189D01*
X142872690Y-143673186D01*
X142681178Y-143583883D01*
X142681177Y-143583882D01*
X142676196Y-143581560D01*
X142670888Y-143580138D01*
X142670886Y-143580137D01*
X142594162Y-143559579D01*
X142461463Y-143524022D01*
X142240000Y-143504647D01*
X142018537Y-143524022D01*
X141885838Y-143559579D01*
X141809114Y-143580137D01*
X141809112Y-143580138D01*
X141803804Y-143581560D01*
X141798823Y-143583882D01*
X141798822Y-143583883D01*
X141607311Y-143673186D01*
X141607306Y-143673189D01*
X141602324Y-143675512D01*
X141597817Y-143678668D01*
X141597815Y-143678669D01*
X141424730Y-143799864D01*
X141424727Y-143799866D01*
X141420219Y-143803023D01*
X141263023Y-143960219D01*
X141259866Y-143964727D01*
X141259864Y-143964730D01*
X141150572Y-144120816D01*
X141135512Y-144142324D01*
X141133189Y-144147306D01*
X141133186Y-144147311D01*
X141084195Y-144252373D01*
X141037277Y-144305658D01*
X140969000Y-144325119D01*
X140901040Y-144304577D01*
X140855805Y-144252373D01*
X140806814Y-144147311D01*
X140806811Y-144147306D01*
X140804488Y-144142324D01*
X140789428Y-144120816D01*
X140680136Y-143964730D01*
X140680134Y-143964727D01*
X140676977Y-143960219D01*
X140620405Y-143903647D01*
X140586379Y-143841335D01*
X140583500Y-143814552D01*
X140583500Y-142658148D01*
X140603502Y-142590027D01*
X140620405Y-142569053D01*
X142569053Y-140620405D01*
X142631365Y-140586379D01*
X142658148Y-140583500D01*
X156453857Y-140583500D01*
X156521978Y-140603502D01*
X156549089Y-140626998D01*
X156589750Y-140673938D01*
X156761626Y-140816632D01*
X156786264Y-140831029D01*
X156834945Y-140859476D01*
X156883669Y-140911114D01*
X156896740Y-140980897D01*
X156870009Y-141046669D01*
X156829555Y-141080027D01*
X156817107Y-141086507D01*
X156812974Y-141089610D01*
X156812971Y-141089612D01*
X156670242Y-141196776D01*
X156638465Y-141220635D01*
X156484129Y-141382138D01*
X156358243Y-141566680D01*
X156327009Y-141633969D01*
X156285428Y-141723548D01*
X156264188Y-141769305D01*
X156204489Y-141984570D01*
X156203940Y-141989707D01*
X156202956Y-141998913D01*
X156180751Y-142206695D01*
X156181048Y-142211848D01*
X156181048Y-142211851D01*
X156193312Y-142424547D01*
X156193610Y-142429715D01*
X156194747Y-142434761D01*
X156194748Y-142434767D01*
X156202864Y-142470778D01*
X156242722Y-142647639D01*
X156326766Y-142854616D01*
X156377519Y-142937438D01*
X156420380Y-143007380D01*
X156443487Y-143045088D01*
X156589750Y-143213938D01*
X156761626Y-143356632D01*
X156832095Y-143397811D01*
X156834945Y-143399476D01*
X156883669Y-143451114D01*
X156896740Y-143520897D01*
X156870009Y-143586669D01*
X156829555Y-143620027D01*
X156817107Y-143626507D01*
X156812974Y-143629610D01*
X156812971Y-143629612D01*
X156675275Y-143732997D01*
X156638465Y-143760635D01*
X156484129Y-143922138D01*
X156481215Y-143926410D01*
X156481214Y-143926411D01*
X156412971Y-144026452D01*
X156358243Y-144106680D01*
X156331045Y-144165274D01*
X156266383Y-144304577D01*
X156264188Y-144309305D01*
X156204489Y-144524570D01*
X156180751Y-144746695D01*
X156181048Y-144751848D01*
X156181048Y-144751851D01*
X156183410Y-144792812D01*
X156193610Y-144969715D01*
X156194747Y-144974761D01*
X156194748Y-144974767D01*
X156201962Y-145006776D01*
X156242722Y-145187639D01*
X156297606Y-145322802D01*
X156320367Y-145378856D01*
X156326766Y-145394616D01*
X156369852Y-145464926D01*
X156427100Y-145558346D01*
X156443487Y-145585088D01*
X156589750Y-145753938D01*
X156593725Y-145757238D01*
X156593731Y-145757244D01*
X156598925Y-145761556D01*
X156638559Y-145820460D01*
X156640055Y-145891441D01*
X156602939Y-145951962D01*
X156562668Y-145976480D01*
X156455446Y-146016676D01*
X156439851Y-146025214D01*
X156337776Y-146101715D01*
X156325215Y-146114276D01*
X156248714Y-146216351D01*
X156240176Y-146231946D01*
X156195022Y-146352394D01*
X156191395Y-146367649D01*
X156185869Y-146418514D01*
X156185500Y-146425328D01*
X156185500Y-147047885D01*
X156189975Y-147063124D01*
X156191365Y-147064329D01*
X156199048Y-147066000D01*
X158883384Y-147066000D01*
X158898623Y-147061525D01*
X158899828Y-147060135D01*
X158901499Y-147052452D01*
X158901499Y-146425331D01*
X158901129Y-146418510D01*
X158895605Y-146367648D01*
X158891979Y-146352396D01*
X158846824Y-146231946D01*
X158838286Y-146216351D01*
X158761785Y-146114276D01*
X158749224Y-146101715D01*
X158647149Y-146025214D01*
X158631554Y-146016676D01*
X158521313Y-145975348D01*
X158464549Y-145932706D01*
X158439849Y-145866145D01*
X158455057Y-145796796D01*
X158476604Y-145768115D01*
X158544708Y-145700249D01*
X158607079Y-145666333D01*
X158633647Y-145663500D01*
X158670543Y-145663500D01*
X158690255Y-145665051D01*
X158703507Y-145667150D01*
X158710094Y-145666805D01*
X158710098Y-145666805D01*
X158769850Y-145663673D01*
X158776445Y-145663500D01*
X158796306Y-145663500D01*
X158816069Y-145661423D01*
X158822628Y-145660907D01*
X158838427Y-145660079D01*
X158882377Y-145657776D01*
X158882381Y-145657775D01*
X158888971Y-145657430D01*
X158901929Y-145653958D01*
X158921372Y-145650355D01*
X158921795Y-145650311D01*
X158934702Y-145648954D01*
X158997894Y-145628422D01*
X159004196Y-145626556D01*
X159061985Y-145611071D01*
X159068363Y-145609362D01*
X159074242Y-145606366D01*
X159074251Y-145606363D01*
X159080317Y-145603272D01*
X159098579Y-145595708D01*
X159105043Y-145593608D01*
X159105051Y-145593605D01*
X159111331Y-145591564D01*
X159117050Y-145588262D01*
X159117055Y-145588260D01*
X159168867Y-145558346D01*
X159174637Y-145555213D01*
X159233839Y-145525047D01*
X159244259Y-145516609D01*
X159260552Y-145505411D01*
X159260903Y-145505209D01*
X159272169Y-145498704D01*
X159277075Y-145494287D01*
X159277080Y-145494283D01*
X159321538Y-145454253D01*
X159326554Y-145449969D01*
X159339409Y-145439559D01*
X159339412Y-145439556D01*
X159341986Y-145437472D01*
X159356031Y-145423427D01*
X159360816Y-145418886D01*
X159405274Y-145378856D01*
X159405275Y-145378855D01*
X159410185Y-145374434D01*
X159418075Y-145363574D01*
X159430912Y-145348546D01*
X160588546Y-144190912D01*
X160603574Y-144178075D01*
X160614434Y-144170185D01*
X160639192Y-144142689D01*
X160658886Y-144120816D01*
X160663427Y-144116031D01*
X160677472Y-144101986D01*
X160683069Y-144095074D01*
X160689969Y-144086554D01*
X160694253Y-144081538D01*
X160734283Y-144037080D01*
X160734287Y-144037075D01*
X160738704Y-144032169D01*
X160745411Y-144020552D01*
X160756609Y-144004259D01*
X160760891Y-143998971D01*
X160765047Y-143993839D01*
X160795213Y-143934637D01*
X160798346Y-143928867D01*
X160828260Y-143877055D01*
X160828262Y-143877050D01*
X160831564Y-143871331D01*
X160833605Y-143865051D01*
X160833608Y-143865043D01*
X160835708Y-143858579D01*
X160843272Y-143840317D01*
X160846363Y-143834251D01*
X160846366Y-143834242D01*
X160849362Y-143828363D01*
X160861504Y-143783051D01*
X160866556Y-143764196D01*
X160868422Y-143757894D01*
X160888954Y-143694702D01*
X160890355Y-143681372D01*
X160893958Y-143661929D01*
X160897430Y-143648971D01*
X160898608Y-143626507D01*
X160900906Y-143582646D01*
X160901423Y-143576071D01*
X160903156Y-143559579D01*
X160903500Y-143556306D01*
X160903500Y-143536432D01*
X160903673Y-143529838D01*
X160906804Y-143470099D01*
X160906804Y-143470095D01*
X160907149Y-143463507D01*
X160905051Y-143450260D01*
X160903500Y-143430550D01*
X160903500Y-141049450D01*
X160905051Y-141029739D01*
X160906117Y-141023009D01*
X160907149Y-141016493D01*
X160905000Y-140975475D01*
X160903673Y-140950162D01*
X160903500Y-140943568D01*
X160903500Y-140923694D01*
X160901423Y-140903929D01*
X160900906Y-140897354D01*
X160897776Y-140837624D01*
X160897775Y-140837620D01*
X160897430Y-140831029D01*
X160893958Y-140818071D01*
X160890355Y-140798628D01*
X160889644Y-140791866D01*
X160888954Y-140785298D01*
X160868422Y-140722106D01*
X160866556Y-140715804D01*
X160851071Y-140658015D01*
X160849362Y-140651637D01*
X160846366Y-140645758D01*
X160846363Y-140645749D01*
X160843272Y-140639683D01*
X160835708Y-140621421D01*
X160833608Y-140614957D01*
X160833605Y-140614949D01*
X160831564Y-140608669D01*
X160828262Y-140602950D01*
X160828260Y-140602945D01*
X160798346Y-140551133D01*
X160795213Y-140545363D01*
X160765047Y-140486161D01*
X160756609Y-140475741D01*
X160745411Y-140459448D01*
X160745209Y-140459097D01*
X160738704Y-140447831D01*
X160734287Y-140442925D01*
X160734283Y-140442920D01*
X160694253Y-140398462D01*
X160689969Y-140393446D01*
X160679559Y-140380591D01*
X160679556Y-140380588D01*
X160677472Y-140378014D01*
X160663427Y-140363969D01*
X160658886Y-140359184D01*
X160618856Y-140314726D01*
X160618855Y-140314725D01*
X160614434Y-140309815D01*
X160603574Y-140301925D01*
X160588546Y-140289088D01*
X159430912Y-139131454D01*
X159418075Y-139116426D01*
X159410185Y-139105566D01*
X159360816Y-139061114D01*
X159356031Y-139056573D01*
X159341986Y-139042528D01*
X159339409Y-139040441D01*
X159326554Y-139030031D01*
X159321538Y-139025747D01*
X159277080Y-138985717D01*
X159277075Y-138985713D01*
X159272169Y-138981296D01*
X159260552Y-138974589D01*
X159244259Y-138963391D01*
X159238971Y-138959109D01*
X159233839Y-138954953D01*
X159174637Y-138924787D01*
X159168867Y-138921654D01*
X159117055Y-138891740D01*
X159117050Y-138891738D01*
X159111331Y-138888436D01*
X159105051Y-138886395D01*
X159105043Y-138886392D01*
X159098579Y-138884292D01*
X159080317Y-138876728D01*
X159074251Y-138873637D01*
X159074242Y-138873634D01*
X159068363Y-138870638D01*
X159031969Y-138860886D01*
X159004196Y-138853444D01*
X158997894Y-138851578D01*
X158934702Y-138831046D01*
X158921372Y-138829645D01*
X158901929Y-138826042D01*
X158888971Y-138822570D01*
X158882381Y-138822225D01*
X158882377Y-138822224D01*
X158838427Y-138819921D01*
X158822628Y-138819093D01*
X158816069Y-138818577D01*
X158796306Y-138816500D01*
X158776445Y-138816500D01*
X158769850Y-138816327D01*
X158710098Y-138813195D01*
X158710094Y-138813195D01*
X158703507Y-138812850D01*
X158690253Y-138814949D01*
X158670544Y-138816500D01*
X158632105Y-138816500D01*
X158563984Y-138796498D01*
X158538912Y-138775300D01*
X158476648Y-138706873D01*
X158476646Y-138706872D01*
X158473170Y-138703051D01*
X158469119Y-138699852D01*
X158469115Y-138699848D01*
X158301914Y-138567800D01*
X158301910Y-138567798D01*
X158297859Y-138564598D01*
X158256553Y-138541796D01*
X158206584Y-138491364D01*
X158191812Y-138421921D01*
X158216928Y-138355516D01*
X158244280Y-138328909D01*
X158288103Y-138297650D01*
X158423360Y-138201173D01*
X158581596Y-138043489D01*
X158613483Y-137999114D01*
X158708935Y-137866277D01*
X158711953Y-137862077D01*
X158748656Y-137787815D01*
X158808636Y-137666453D01*
X158808637Y-137666451D01*
X158810930Y-137661811D01*
X158875870Y-137448069D01*
X158905029Y-137226590D01*
X158905111Y-137223240D01*
X158906574Y-137163365D01*
X158906574Y-137163361D01*
X158906656Y-137160000D01*
X158888352Y-136937361D01*
X158833931Y-136720702D01*
X158744854Y-136515840D01*
X158623514Y-136328277D01*
X158473170Y-136163051D01*
X158469119Y-136159852D01*
X158469115Y-136159848D01*
X158301914Y-136027800D01*
X158301910Y-136027798D01*
X158297859Y-136024598D01*
X158256553Y-136001796D01*
X158206584Y-135951364D01*
X158191812Y-135881921D01*
X158216928Y-135815516D01*
X158244280Y-135788909D01*
X158288103Y-135757650D01*
X158423360Y-135661173D01*
X158581596Y-135503489D01*
X158613483Y-135459114D01*
X158708935Y-135326277D01*
X158711953Y-135322077D01*
X158748656Y-135247815D01*
X158808636Y-135126453D01*
X158808637Y-135126451D01*
X158810930Y-135121811D01*
X158875870Y-134908069D01*
X158905029Y-134686590D01*
X158905111Y-134683240D01*
X158906574Y-134623365D01*
X158906574Y-134623361D01*
X158906656Y-134620000D01*
X158888352Y-134397361D01*
X158833931Y-134180702D01*
X158744854Y-133975840D01*
X158623514Y-133788277D01*
X158473170Y-133623051D01*
X158469119Y-133619852D01*
X158469115Y-133619848D01*
X158301914Y-133487800D01*
X158301910Y-133487798D01*
X158297859Y-133484598D01*
X158256553Y-133461796D01*
X158206584Y-133411364D01*
X158191812Y-133341921D01*
X158216928Y-133275516D01*
X158244280Y-133248909D01*
X158288103Y-133217650D01*
X158423360Y-133121173D01*
X158581596Y-132963489D01*
X158641094Y-132880689D01*
X158708935Y-132786277D01*
X158711953Y-132782077D01*
X158745570Y-132714059D01*
X158808636Y-132586453D01*
X158808637Y-132586451D01*
X158810930Y-132581811D01*
X158856258Y-132432620D01*
X158874365Y-132373023D01*
X158874365Y-132373021D01*
X158875870Y-132368069D01*
X158905029Y-132146590D01*
X158905359Y-132133075D01*
X158906574Y-132083365D01*
X158906574Y-132083361D01*
X158906656Y-132080000D01*
X158888352Y-131857361D01*
X158833931Y-131640702D01*
X158744854Y-131435840D01*
X158646164Y-131283288D01*
X158626322Y-131252617D01*
X158626320Y-131252614D01*
X158623514Y-131248277D01*
X158473170Y-131083051D01*
X158469119Y-131079852D01*
X158469115Y-131079848D01*
X158301914Y-130947800D01*
X158301910Y-130947798D01*
X158297859Y-130944598D01*
X158256553Y-130921796D01*
X158206584Y-130871364D01*
X158191812Y-130801921D01*
X158216928Y-130735516D01*
X158244280Y-130708909D01*
X158293501Y-130673800D01*
X158423360Y-130581173D01*
X158484545Y-130520202D01*
X158504709Y-130500107D01*
X158581596Y-130423489D01*
X158641094Y-130340689D01*
X158708935Y-130246277D01*
X158711953Y-130242077D01*
X158741554Y-130182185D01*
X158808636Y-130046453D01*
X158808637Y-130046451D01*
X158810930Y-130041811D01*
X158875870Y-129828069D01*
X158905029Y-129606590D01*
X158906656Y-129540000D01*
X158888352Y-129317361D01*
X158833931Y-129100702D01*
X158744854Y-128895840D01*
X158623514Y-128708277D01*
X158473170Y-128543051D01*
X158469119Y-128539852D01*
X158469115Y-128539848D01*
X158301914Y-128407800D01*
X158301910Y-128407798D01*
X158297859Y-128404598D01*
X158272618Y-128390664D01*
X158197958Y-128349450D01*
X158102289Y-128296638D01*
X158097420Y-128294914D01*
X158097416Y-128294912D01*
X157896587Y-128223795D01*
X157896583Y-128223794D01*
X157891712Y-128222069D01*
X157886619Y-128221162D01*
X157886616Y-128221161D01*
X157676873Y-128183800D01*
X157676867Y-128183799D01*
X157671784Y-128182894D01*
X157597952Y-128181992D01*
X157453581Y-128180228D01*
X157453579Y-128180228D01*
X157448411Y-128180165D01*
X157227591Y-128213955D01*
X157015256Y-128283357D01*
X156817107Y-128386507D01*
X156812974Y-128389610D01*
X156812971Y-128389612D01*
X156642600Y-128517530D01*
X156638465Y-128520635D01*
X156484129Y-128682138D01*
X156358243Y-128866680D01*
X156343791Y-128897815D01*
X156266383Y-129064577D01*
X156264188Y-129069305D01*
X156204489Y-129284570D01*
X156180751Y-129506695D01*
X156181048Y-129511848D01*
X156181048Y-129511851D01*
X156192106Y-129703623D01*
X156193610Y-129729715D01*
X156194747Y-129734761D01*
X156194748Y-129734767D01*
X156201273Y-129763718D01*
X156242722Y-129947639D01*
X156326766Y-130154616D01*
X156443487Y-130345088D01*
X156589750Y-130513938D01*
X156761626Y-130656632D01*
X156832095Y-130697811D01*
X156834945Y-130699476D01*
X156883669Y-130751114D01*
X156896740Y-130820897D01*
X156870009Y-130886669D01*
X156829555Y-130920027D01*
X156817107Y-130926507D01*
X156812974Y-130929610D01*
X156812971Y-130929612D01*
X156642600Y-131057530D01*
X156638465Y-131060635D01*
X156634893Y-131064373D01*
X156490298Y-131215683D01*
X156484129Y-131222138D01*
X156481215Y-131226410D01*
X156481214Y-131226411D01*
X156468904Y-131244457D01*
X156358243Y-131406680D01*
X156264188Y-131609305D01*
X156204489Y-131824570D01*
X156180751Y-132046695D01*
X156181048Y-132051848D01*
X156181048Y-132051851D01*
X156186647Y-132148959D01*
X156193610Y-132269715D01*
X156194747Y-132274761D01*
X156194748Y-132274767D01*
X156201273Y-132303718D01*
X156242722Y-132487639D01*
X156302516Y-132634895D01*
X156307500Y-132647168D01*
X156326766Y-132694616D01*
X156443487Y-132885088D01*
X156589750Y-133053938D01*
X156761626Y-133196632D01*
X156832095Y-133237811D01*
X156834945Y-133239476D01*
X156883669Y-133291114D01*
X156896740Y-133360897D01*
X156870009Y-133426669D01*
X156829555Y-133460027D01*
X156817107Y-133466507D01*
X156812974Y-133469610D01*
X156812971Y-133469612D01*
X156788747Y-133487800D01*
X156638465Y-133600635D01*
X156484129Y-133762138D01*
X156481215Y-133766410D01*
X156481214Y-133766411D01*
X156468904Y-133784457D01*
X156358243Y-133946680D01*
X156264188Y-134149305D01*
X156204489Y-134364570D01*
X156180751Y-134586695D01*
X156181048Y-134591848D01*
X156181048Y-134591851D01*
X156193312Y-134804547D01*
X156193610Y-134809715D01*
X156194747Y-134814761D01*
X156194748Y-134814767D01*
X156214619Y-134902939D01*
X156242722Y-135027639D01*
X156326766Y-135234616D01*
X156443487Y-135425088D01*
X156589750Y-135593938D01*
X156761626Y-135736632D01*
X156832095Y-135777811D01*
X156834945Y-135779476D01*
X156883669Y-135831114D01*
X156896740Y-135900897D01*
X156870009Y-135966669D01*
X156829555Y-136000027D01*
X156817107Y-136006507D01*
X156812974Y-136009610D01*
X156812971Y-136009612D01*
X156670242Y-136116776D01*
X156638465Y-136140635D01*
X156484129Y-136302138D01*
X156358243Y-136486680D01*
X156264188Y-136689305D01*
X156204489Y-136904570D01*
X156180751Y-137126695D01*
X156181048Y-137131848D01*
X156181048Y-137131851D01*
X156193312Y-137344547D01*
X156193610Y-137349715D01*
X156194747Y-137354761D01*
X156194748Y-137354767D01*
X156214619Y-137442939D01*
X156242722Y-137567639D01*
X156326766Y-137774616D01*
X156443487Y-137965088D01*
X156589750Y-138133938D01*
X156761626Y-138276632D01*
X156832095Y-138317811D01*
X156834945Y-138319476D01*
X156883669Y-138371114D01*
X156896740Y-138440897D01*
X156870009Y-138506669D01*
X156829555Y-138540027D01*
X156817107Y-138546507D01*
X156812974Y-138549610D01*
X156812971Y-138549612D01*
X156670242Y-138656776D01*
X156638465Y-138680635D01*
X156579019Y-138742842D01*
X156545850Y-138777551D01*
X156484326Y-138812981D01*
X156454756Y-138816500D01*
X154679500Y-138816500D01*
X154611379Y-138796498D01*
X154564886Y-138742842D01*
X154553500Y-138690500D01*
X154553500Y-128349450D01*
X154555051Y-128329739D01*
X154556117Y-128323009D01*
X154557149Y-128316493D01*
X154556240Y-128299137D01*
X154553673Y-128250162D01*
X154553500Y-128243568D01*
X154553500Y-128223694D01*
X154552645Y-128215562D01*
X154551423Y-128203929D01*
X154550906Y-128197354D01*
X154547776Y-128137624D01*
X154547775Y-128137620D01*
X154547430Y-128131029D01*
X154543958Y-128118071D01*
X154540355Y-128098628D01*
X154539644Y-128091866D01*
X154538954Y-128085298D01*
X154518422Y-128022106D01*
X154516556Y-128015804D01*
X154501071Y-127958015D01*
X154499362Y-127951637D01*
X154496366Y-127945758D01*
X154496363Y-127945749D01*
X154493272Y-127939683D01*
X154485708Y-127921421D01*
X154483608Y-127914957D01*
X154483605Y-127914949D01*
X154481564Y-127908669D01*
X154478262Y-127902950D01*
X154478260Y-127902945D01*
X154448346Y-127851133D01*
X154445213Y-127845363D01*
X154415047Y-127786161D01*
X154406609Y-127775741D01*
X154395411Y-127759448D01*
X154395209Y-127759097D01*
X154388704Y-127747831D01*
X154384287Y-127742925D01*
X154384283Y-127742920D01*
X154344253Y-127698462D01*
X154339969Y-127693446D01*
X154329559Y-127680591D01*
X154329556Y-127680588D01*
X154327472Y-127678014D01*
X154313427Y-127663969D01*
X154308886Y-127659184D01*
X154268856Y-127614726D01*
X154268855Y-127614725D01*
X154264434Y-127609815D01*
X154253574Y-127601925D01*
X154238546Y-127589088D01*
X153080912Y-126431454D01*
X153068075Y-126416426D01*
X153060185Y-126405566D01*
X153010816Y-126361114D01*
X153006031Y-126356573D01*
X152991986Y-126342528D01*
X152989409Y-126340441D01*
X152976554Y-126330031D01*
X152971538Y-126325747D01*
X152927080Y-126285717D01*
X152927075Y-126285713D01*
X152922169Y-126281296D01*
X152910552Y-126274589D01*
X152894259Y-126263391D01*
X152891277Y-126260976D01*
X152883839Y-126254953D01*
X152824637Y-126224787D01*
X152818867Y-126221654D01*
X152767055Y-126191740D01*
X152767050Y-126191738D01*
X152761331Y-126188436D01*
X152755051Y-126186395D01*
X152755043Y-126186392D01*
X152748579Y-126184292D01*
X152730317Y-126176728D01*
X152724251Y-126173637D01*
X152724242Y-126173634D01*
X152718363Y-126170638D01*
X152685626Y-126161866D01*
X152654196Y-126153444D01*
X152647894Y-126151578D01*
X152584702Y-126131046D01*
X152571372Y-126129645D01*
X152551929Y-126126042D01*
X152538971Y-126122570D01*
X152532381Y-126122225D01*
X152532377Y-126122224D01*
X152488427Y-126119921D01*
X152472628Y-126119093D01*
X152466069Y-126118577D01*
X152446306Y-126116500D01*
X152426445Y-126116500D01*
X152419850Y-126116327D01*
X152360098Y-126113195D01*
X152360094Y-126113195D01*
X152353507Y-126112850D01*
X152340253Y-126114949D01*
X152320544Y-126116500D01*
X140118147Y-126116500D01*
X140050026Y-126096498D01*
X140029052Y-126079595D01*
X137947007Y-123997549D01*
X137926983Y-123971455D01*
X137926762Y-123971072D01*
X137899040Y-123923056D01*
X137853744Y-123872749D01*
X137775675Y-123786045D01*
X137775674Y-123786044D01*
X137771253Y-123781134D01*
X137630577Y-123678926D01*
X137615544Y-123666086D01*
X137312007Y-123362549D01*
X137291983Y-123336455D01*
X137264040Y-123288056D01*
X137218744Y-123237749D01*
X137140675Y-123151045D01*
X137140674Y-123151044D01*
X137136253Y-123146134D01*
X136995578Y-123043927D01*
X136980545Y-123031087D01*
X136677006Y-122727548D01*
X136656982Y-122701453D01*
X136653856Y-122696039D01*
X136629040Y-122653056D01*
X136582090Y-122600912D01*
X136505675Y-122516045D01*
X136505674Y-122516044D01*
X136501253Y-122511134D01*
X136360576Y-122408926D01*
X136345543Y-122396085D01*
X136042007Y-122092549D01*
X136021983Y-122066455D01*
X136021342Y-122065344D01*
X135994040Y-122018056D01*
X135950390Y-121969577D01*
X135870675Y-121881045D01*
X135870674Y-121881044D01*
X135866253Y-121876134D01*
X135725576Y-121773926D01*
X135710543Y-121761085D01*
X135540405Y-121590947D01*
X135506379Y-121528635D01*
X135503500Y-121501852D01*
X135503500Y-113109450D01*
X135505051Y-113089739D01*
X135506117Y-113083009D01*
X135507149Y-113076493D01*
X135503673Y-113010169D01*
X135503500Y-113003574D01*
X135503500Y-112983694D01*
X135501421Y-112963912D01*
X135500905Y-112957348D01*
X135497775Y-112897627D01*
X135497775Y-112897625D01*
X135497429Y-112891029D01*
X135493958Y-112878074D01*
X135490358Y-112858645D01*
X135489646Y-112851874D01*
X135489644Y-112851867D01*
X135488954Y-112845298D01*
X135468424Y-112782112D01*
X135466558Y-112775813D01*
X135451069Y-112718008D01*
X135449362Y-112711637D01*
X135446365Y-112705755D01*
X135443272Y-112699683D01*
X135435708Y-112681421D01*
X135433608Y-112674957D01*
X135433605Y-112674949D01*
X135431564Y-112668669D01*
X135428262Y-112662950D01*
X135428260Y-112662945D01*
X135398346Y-112611133D01*
X135395213Y-112605363D01*
X135365047Y-112546161D01*
X135356609Y-112535741D01*
X135345411Y-112519448D01*
X135345209Y-112519097D01*
X135338704Y-112507831D01*
X135334287Y-112502925D01*
X135334283Y-112502920D01*
X135294253Y-112458462D01*
X135289969Y-112453446D01*
X135279559Y-112440591D01*
X135279556Y-112440588D01*
X135277472Y-112438014D01*
X135263427Y-112423969D01*
X135258886Y-112419184D01*
X135218856Y-112374726D01*
X135218855Y-112374725D01*
X135214434Y-112369815D01*
X135203574Y-112361925D01*
X135188546Y-112349088D01*
X133262412Y-110422954D01*
X133249575Y-110407926D01*
X133241685Y-110397066D01*
X133192316Y-110352614D01*
X133187531Y-110348073D01*
X133173486Y-110334028D01*
X133170909Y-110331941D01*
X133158054Y-110321531D01*
X133153038Y-110317247D01*
X133108580Y-110277217D01*
X133108575Y-110277213D01*
X133103669Y-110272796D01*
X133092052Y-110266089D01*
X133075759Y-110254891D01*
X133070471Y-110250609D01*
X133065339Y-110246453D01*
X133006137Y-110216287D01*
X133000367Y-110213154D01*
X132948555Y-110183240D01*
X132948550Y-110183238D01*
X132942831Y-110179936D01*
X132936551Y-110177895D01*
X132936543Y-110177892D01*
X132930079Y-110175792D01*
X132911817Y-110168228D01*
X132905751Y-110165137D01*
X132905742Y-110165134D01*
X132899863Y-110162138D01*
X132876796Y-110155957D01*
X132835696Y-110144944D01*
X132829394Y-110143078D01*
X132766202Y-110122546D01*
X132752872Y-110121145D01*
X132733429Y-110117542D01*
X132720471Y-110114070D01*
X132713881Y-110113725D01*
X132713877Y-110113724D01*
X132669927Y-110111421D01*
X132654128Y-110110593D01*
X132647569Y-110110077D01*
X132627806Y-110108000D01*
X132607945Y-110108000D01*
X132601350Y-110107827D01*
X132541598Y-110104695D01*
X132541594Y-110104695D01*
X132535007Y-110104350D01*
X132521753Y-110106449D01*
X132502044Y-110108000D01*
X131803605Y-110108000D01*
X131735484Y-110087998D01*
X131710412Y-110066800D01*
X131648148Y-109998373D01*
X131648145Y-109998370D01*
X131644670Y-109994551D01*
X131640619Y-109991352D01*
X131640615Y-109991348D01*
X131473414Y-109859300D01*
X131473410Y-109859298D01*
X131469359Y-109856098D01*
X131273789Y-109748138D01*
X131268920Y-109746414D01*
X131268916Y-109746412D01*
X131068087Y-109675295D01*
X131068083Y-109675294D01*
X131063212Y-109673569D01*
X131058119Y-109672662D01*
X131058116Y-109672661D01*
X130848373Y-109635300D01*
X130848367Y-109635299D01*
X130843284Y-109634394D01*
X130769452Y-109633492D01*
X130625081Y-109631728D01*
X130625079Y-109631728D01*
X130619911Y-109631665D01*
X130399091Y-109665455D01*
X130186756Y-109734857D01*
X129988607Y-109838007D01*
X129984474Y-109841110D01*
X129984471Y-109841112D01*
X129919927Y-109889573D01*
X129809965Y-109972135D01*
X129762106Y-110022216D01*
X129667568Y-110121145D01*
X129655629Y-110133638D01*
X129652720Y-110137903D01*
X129652714Y-110137911D01*
X129626873Y-110175792D01*
X129548204Y-110291118D01*
X129547898Y-110291566D01*
X129492987Y-110336569D01*
X129422462Y-110344740D01*
X129358715Y-110313486D01*
X129338017Y-110289001D01*
X129308062Y-110242697D01*
X129297377Y-110233495D01*
X129287812Y-110237898D01*
X128547022Y-110978688D01*
X128539408Y-110992632D01*
X128539539Y-110994465D01*
X128543790Y-111001080D01*
X129285474Y-111742764D01*
X129297484Y-111749323D01*
X129309223Y-111740355D01*
X129343022Y-111693319D01*
X129344277Y-111694221D01*
X129391391Y-111650855D01*
X129461330Y-111638648D01*
X129526767Y-111666191D01*
X129554580Y-111698013D01*
X129612287Y-111792183D01*
X129612291Y-111792188D01*
X129614987Y-111796588D01*
X129761250Y-111965438D01*
X129933126Y-112108132D01*
X130126000Y-112220838D01*
X130334692Y-112300530D01*
X130339760Y-112301561D01*
X130339763Y-112301562D01*
X130444604Y-112322892D01*
X130553597Y-112345067D01*
X130558772Y-112345257D01*
X130558774Y-112345257D01*
X130771673Y-112353064D01*
X130771677Y-112353064D01*
X130776837Y-112353253D01*
X130781957Y-112352597D01*
X130781959Y-112352597D01*
X130993288Y-112325525D01*
X130993289Y-112325525D01*
X130998416Y-112324868D01*
X131003366Y-112323383D01*
X131207429Y-112262161D01*
X131207434Y-112262159D01*
X131212384Y-112260674D01*
X131412994Y-112162396D01*
X131594860Y-112032673D01*
X131716208Y-111911749D01*
X131778579Y-111877833D01*
X131805147Y-111875000D01*
X132163352Y-111875000D01*
X132231473Y-111895002D01*
X132252447Y-111911905D01*
X133699595Y-113359053D01*
X133733621Y-113421365D01*
X133736500Y-113448148D01*
X133736500Y-121840543D01*
X133734949Y-121860255D01*
X133732850Y-121873507D01*
X133733195Y-121880094D01*
X133733195Y-121880098D01*
X133736327Y-121939850D01*
X133736500Y-121946445D01*
X133736500Y-121966306D01*
X133736844Y-121969577D01*
X133738576Y-121986059D01*
X133739093Y-121992628D01*
X133742570Y-122058971D01*
X133746042Y-122071929D01*
X133749645Y-122091372D01*
X133751046Y-122104702D01*
X133771578Y-122167894D01*
X133773444Y-122174196D01*
X133790638Y-122238363D01*
X133793634Y-122244242D01*
X133793637Y-122244251D01*
X133796728Y-122250317D01*
X133804292Y-122268579D01*
X133806392Y-122275043D01*
X133806395Y-122275051D01*
X133808436Y-122281331D01*
X133811738Y-122287050D01*
X133811740Y-122287055D01*
X133841654Y-122338867D01*
X133844787Y-122344637D01*
X133874953Y-122403839D01*
X133879109Y-122408971D01*
X133883391Y-122414259D01*
X133894589Y-122430552D01*
X133901296Y-122442169D01*
X133905713Y-122447075D01*
X133905717Y-122447080D01*
X133945747Y-122491538D01*
X133950031Y-122496554D01*
X133960441Y-122509409D01*
X133962528Y-122511986D01*
X133976573Y-122526031D01*
X133981114Y-122530816D01*
X134025566Y-122580185D01*
X134030911Y-122584068D01*
X134030913Y-122584070D01*
X134036418Y-122588069D01*
X134051455Y-122600912D01*
X134467993Y-123017450D01*
X134488017Y-123043545D01*
X134515960Y-123091944D01*
X134520378Y-123096851D01*
X134520379Y-123096852D01*
X134564753Y-123146134D01*
X134643747Y-123233866D01*
X134718333Y-123288056D01*
X134784419Y-123336071D01*
X134799453Y-123348911D01*
X135102994Y-123652451D01*
X135123018Y-123678547D01*
X135131779Y-123693721D01*
X135150960Y-123726944D01*
X135155378Y-123731851D01*
X135155379Y-123731852D01*
X135199753Y-123781134D01*
X135278747Y-123868866D01*
X135346578Y-123918148D01*
X135419421Y-123971072D01*
X135434455Y-123983913D01*
X135737993Y-124287451D01*
X135758015Y-124313543D01*
X135785960Y-124361944D01*
X135790378Y-124366851D01*
X135790379Y-124366852D01*
X135909325Y-124498955D01*
X135913747Y-124503866D01*
X135919089Y-124507747D01*
X135919091Y-124507749D01*
X136054419Y-124606070D01*
X136069454Y-124618911D01*
X136372996Y-124922454D01*
X136393018Y-124948548D01*
X136420960Y-124996944D01*
X136425378Y-125001851D01*
X136425379Y-125001852D01*
X136444283Y-125022847D01*
X136548747Y-125138866D01*
X136689422Y-125241073D01*
X136704456Y-125253914D01*
X139019085Y-127568542D01*
X139031926Y-127583577D01*
X139035927Y-127589084D01*
X139035931Y-127589088D01*
X139039815Y-127594434D01*
X139044725Y-127598855D01*
X139044726Y-127598856D01*
X139089194Y-127638895D01*
X139093979Y-127643436D01*
X139108015Y-127657472D01*
X139110579Y-127659548D01*
X139123447Y-127669969D01*
X139128462Y-127674253D01*
X139172920Y-127714283D01*
X139172925Y-127714287D01*
X139177831Y-127718704D01*
X139183547Y-127722004D01*
X139183548Y-127722005D01*
X139189449Y-127725412D01*
X139205737Y-127736607D01*
X139216161Y-127745048D01*
X139275366Y-127775214D01*
X139281119Y-127778337D01*
X139338669Y-127811564D01*
X139344953Y-127813606D01*
X139344958Y-127813608D01*
X139351421Y-127815708D01*
X139369683Y-127823272D01*
X139375749Y-127826363D01*
X139375758Y-127826366D01*
X139381637Y-127829362D01*
X139388015Y-127831071D01*
X139445804Y-127846556D01*
X139452106Y-127848422D01*
X139515298Y-127868954D01*
X139528205Y-127870311D01*
X139528628Y-127870355D01*
X139548071Y-127873958D01*
X139561029Y-127877430D01*
X139567619Y-127877775D01*
X139567623Y-127877776D01*
X139611573Y-127880079D01*
X139627372Y-127880907D01*
X139633931Y-127881423D01*
X139653694Y-127883500D01*
X139673555Y-127883500D01*
X139680150Y-127883673D01*
X139739902Y-127886805D01*
X139739906Y-127886805D01*
X139746493Y-127887150D01*
X139759747Y-127885051D01*
X139779456Y-127883500D01*
X151981852Y-127883500D01*
X152049973Y-127903502D01*
X152070947Y-127920405D01*
X152749595Y-128599053D01*
X152783621Y-128661365D01*
X152786500Y-128688148D01*
X152786500Y-138690500D01*
X152766498Y-138758621D01*
X152712842Y-138805114D01*
X152660500Y-138816500D01*
X142319450Y-138816500D01*
X142299739Y-138814949D01*
X142293009Y-138813883D01*
X142286493Y-138812851D01*
X142279906Y-138813196D01*
X142279901Y-138813196D01*
X142220168Y-138816327D01*
X142213574Y-138816500D01*
X142193694Y-138816500D01*
X142190420Y-138816844D01*
X142190421Y-138816844D01*
X142173920Y-138818578D01*
X142167346Y-138819095D01*
X142107627Y-138822225D01*
X142107626Y-138822225D01*
X142101028Y-138822571D01*
X142094646Y-138824281D01*
X142094639Y-138824282D01*
X142088069Y-138826042D01*
X142068635Y-138829644D01*
X142061870Y-138830355D01*
X142061869Y-138830355D01*
X142055298Y-138831046D01*
X141992122Y-138851573D01*
X141985803Y-138853445D01*
X141928013Y-138868929D01*
X141928008Y-138868931D01*
X141921637Y-138870638D01*
X141915756Y-138873634D01*
X141915752Y-138873636D01*
X141909683Y-138876728D01*
X141891421Y-138884292D01*
X141884949Y-138886395D01*
X141884945Y-138886397D01*
X141878669Y-138888436D01*
X141872953Y-138891736D01*
X141872951Y-138891737D01*
X141821135Y-138921653D01*
X141815351Y-138924794D01*
X141756160Y-138954953D01*
X141751029Y-138959108D01*
X141745737Y-138963393D01*
X141729451Y-138974587D01*
X141717831Y-138981296D01*
X141712923Y-138985715D01*
X141712919Y-138985718D01*
X141668464Y-139025745D01*
X141663458Y-139030021D01*
X141648014Y-139042528D01*
X141633969Y-139056573D01*
X141629184Y-139061114D01*
X141579815Y-139105566D01*
X141571925Y-139116426D01*
X141559088Y-139131454D01*
X139131454Y-141559088D01*
X139116426Y-141571925D01*
X139105566Y-141579815D01*
X139101145Y-141584725D01*
X139101144Y-141584726D01*
X139061114Y-141629184D01*
X139056573Y-141633969D01*
X139042528Y-141648014D01*
X139040444Y-141650588D01*
X139040441Y-141650591D01*
X139030031Y-141663446D01*
X139025747Y-141668462D01*
X138985717Y-141712920D01*
X138985713Y-141712925D01*
X138981296Y-141717831D01*
X138974791Y-141729097D01*
X138974589Y-141729448D01*
X138963391Y-141745741D01*
X138954953Y-141756161D01*
X138924787Y-141815363D01*
X138921654Y-141821133D01*
X138891740Y-141872945D01*
X138891738Y-141872950D01*
X138888436Y-141878669D01*
X138886395Y-141884949D01*
X138886392Y-141884957D01*
X138884292Y-141891421D01*
X138876728Y-141909683D01*
X138873637Y-141915749D01*
X138873634Y-141915758D01*
X138870638Y-141921637D01*
X138868929Y-141928015D01*
X138853444Y-141985804D01*
X138851578Y-141992106D01*
X138831046Y-142055298D01*
X138830356Y-142061866D01*
X138829645Y-142068628D01*
X138826042Y-142088071D01*
X138822570Y-142101029D01*
X138822225Y-142107619D01*
X138822224Y-142107623D01*
X138819093Y-142167367D01*
X138818577Y-142173931D01*
X138816500Y-142193694D01*
X138816500Y-142213555D01*
X138816327Y-142220150D01*
X138812850Y-142286493D01*
X138813882Y-142293007D01*
X138814949Y-142299744D01*
X138816500Y-142319456D01*
X138816500Y-143814552D01*
X138796498Y-143882673D01*
X138779595Y-143903647D01*
X138723023Y-143960219D01*
X138719866Y-143964727D01*
X138719864Y-143964730D01*
X138610572Y-144120816D01*
X138595512Y-144142324D01*
X138593189Y-144147306D01*
X138593186Y-144147311D01*
X138544195Y-144252373D01*
X138497277Y-144305658D01*
X138429000Y-144325119D01*
X138361040Y-144304577D01*
X138315805Y-144252373D01*
X138266814Y-144147311D01*
X138266811Y-144147306D01*
X138264488Y-144142324D01*
X138249428Y-144120816D01*
X138140136Y-143964730D01*
X138140134Y-143964727D01*
X138136977Y-143960219D01*
X137979781Y-143803023D01*
X137975273Y-143799866D01*
X137975270Y-143799864D01*
X137885171Y-143736776D01*
X137797677Y-143675512D01*
X137792695Y-143673189D01*
X137792690Y-143673186D01*
X137601178Y-143583883D01*
X137601177Y-143583882D01*
X137596196Y-143581560D01*
X137590888Y-143580138D01*
X137590886Y-143580137D01*
X137514162Y-143559579D01*
X137381463Y-143524022D01*
X137160000Y-143504647D01*
X136938537Y-143524022D01*
X136805838Y-143559579D01*
X136729114Y-143580137D01*
X136729112Y-143580138D01*
X136723804Y-143581560D01*
X136718823Y-143583882D01*
X136718822Y-143583883D01*
X136527311Y-143673186D01*
X136527306Y-143673189D01*
X136522324Y-143675512D01*
X136517817Y-143678668D01*
X136517815Y-143678669D01*
X136344730Y-143799864D01*
X136344727Y-143799866D01*
X136340219Y-143803023D01*
X136183023Y-143960219D01*
X136179866Y-143964727D01*
X136179864Y-143964730D01*
X136070572Y-144120816D01*
X136055512Y-144142324D01*
X136053189Y-144147306D01*
X136053186Y-144147311D01*
X136004195Y-144252373D01*
X135957277Y-144305658D01*
X135889000Y-144325119D01*
X135821040Y-144304577D01*
X135775805Y-144252373D01*
X135726814Y-144147311D01*
X135726811Y-144147306D01*
X135724488Y-144142324D01*
X135709428Y-144120816D01*
X135600136Y-143964730D01*
X135600134Y-143964727D01*
X135596977Y-143960219D01*
X135439781Y-143803023D01*
X135435273Y-143799866D01*
X135435270Y-143799864D01*
X135345171Y-143736776D01*
X135257677Y-143675512D01*
X135252695Y-143673189D01*
X135252690Y-143673186D01*
X135061178Y-143583883D01*
X135061177Y-143583882D01*
X135056196Y-143581560D01*
X135050888Y-143580138D01*
X135050886Y-143580137D01*
X134974162Y-143559579D01*
X134841463Y-143524022D01*
X134620000Y-143504647D01*
X134398537Y-143524022D01*
X134265838Y-143559579D01*
X134189114Y-143580137D01*
X134189112Y-143580138D01*
X134183804Y-143581560D01*
X134178823Y-143583882D01*
X134178822Y-143583883D01*
X133987311Y-143673186D01*
X133987306Y-143673189D01*
X133982324Y-143675512D01*
X133977817Y-143678668D01*
X133977815Y-143678669D01*
X133804730Y-143799864D01*
X133804727Y-143799866D01*
X133800219Y-143803023D01*
X133643023Y-143960219D01*
X133639866Y-143964727D01*
X133639864Y-143964730D01*
X133530572Y-144120816D01*
X133515512Y-144142324D01*
X133513189Y-144147306D01*
X133513186Y-144147311D01*
X133464195Y-144252373D01*
X133417277Y-144305658D01*
X133349000Y-144325119D01*
X133281040Y-144304577D01*
X133235805Y-144252373D01*
X133186814Y-144147311D01*
X133186811Y-144147306D01*
X133184488Y-144142324D01*
X133169428Y-144120816D01*
X133060136Y-143964730D01*
X133060134Y-143964727D01*
X133056977Y-143960219D01*
X132899781Y-143803023D01*
X132895273Y-143799866D01*
X132895270Y-143799864D01*
X132805171Y-143736776D01*
X132717677Y-143675512D01*
X132712695Y-143673189D01*
X132712690Y-143673186D01*
X132521178Y-143583883D01*
X132521177Y-143583882D01*
X132516196Y-143581560D01*
X132510888Y-143580138D01*
X132510886Y-143580137D01*
X132434162Y-143559579D01*
X132301463Y-143524022D01*
X132080000Y-143504647D01*
X131858537Y-143524022D01*
X131725838Y-143559579D01*
X131649114Y-143580137D01*
X131649112Y-143580138D01*
X131643804Y-143581560D01*
X131638823Y-143583882D01*
X131638822Y-143583883D01*
X131447311Y-143673186D01*
X131447306Y-143673189D01*
X131442324Y-143675512D01*
X131437817Y-143678668D01*
X131437815Y-143678669D01*
X131264730Y-143799864D01*
X131264727Y-143799866D01*
X131260219Y-143803023D01*
X131103023Y-143960219D01*
X131099866Y-143964727D01*
X131099864Y-143964730D01*
X130990572Y-144120816D01*
X130975512Y-144142324D01*
X130973189Y-144147306D01*
X130973186Y-144147311D01*
X130924195Y-144252373D01*
X130877277Y-144305658D01*
X130809000Y-144325119D01*
X130741040Y-144304577D01*
X130695805Y-144252373D01*
X130646814Y-144147311D01*
X130646811Y-144147306D01*
X130644488Y-144142324D01*
X130629428Y-144120816D01*
X130520136Y-143964730D01*
X130520134Y-143964727D01*
X130516977Y-143960219D01*
X130359781Y-143803023D01*
X130355273Y-143799866D01*
X130355270Y-143799864D01*
X130265171Y-143736776D01*
X130177677Y-143675512D01*
X130172695Y-143673189D01*
X130172690Y-143673186D01*
X129981178Y-143583883D01*
X129981177Y-143583882D01*
X129976196Y-143581560D01*
X129970888Y-143580138D01*
X129970886Y-143580137D01*
X129894162Y-143559579D01*
X129761463Y-143524022D01*
X129540000Y-143504647D01*
X129318537Y-143524022D01*
X129185838Y-143559579D01*
X129109114Y-143580137D01*
X129109112Y-143580138D01*
X129103804Y-143581560D01*
X129098823Y-143583882D01*
X129098822Y-143583883D01*
X128907311Y-143673186D01*
X128907306Y-143673189D01*
X128902324Y-143675512D01*
X128897817Y-143678668D01*
X128897815Y-143678669D01*
X128724730Y-143799864D01*
X128724727Y-143799866D01*
X128720219Y-143803023D01*
X128563023Y-143960219D01*
X128559866Y-143964727D01*
X128559864Y-143964730D01*
X128450572Y-144120816D01*
X128435512Y-144142324D01*
X128433189Y-144147306D01*
X128433186Y-144147311D01*
X128384195Y-144252373D01*
X128337277Y-144305658D01*
X128269000Y-144325119D01*
X128201040Y-144304577D01*
X128155805Y-144252373D01*
X128106814Y-144147311D01*
X128106811Y-144147306D01*
X128104488Y-144142324D01*
X128089428Y-144120816D01*
X127980136Y-143964730D01*
X127980134Y-143964727D01*
X127976977Y-143960219D01*
X127819781Y-143803023D01*
X127815273Y-143799866D01*
X127815270Y-143799864D01*
X127725171Y-143736776D01*
X127637677Y-143675512D01*
X127632695Y-143673189D01*
X127632690Y-143673186D01*
X127441178Y-143583883D01*
X127441177Y-143583882D01*
X127436196Y-143581560D01*
X127430888Y-143580138D01*
X127430886Y-143580137D01*
X127354162Y-143559579D01*
X127221463Y-143524022D01*
X127000000Y-143504647D01*
X126778537Y-143524022D01*
X126645838Y-143559579D01*
X126569114Y-143580137D01*
X126569112Y-143580138D01*
X126563804Y-143581560D01*
X126558823Y-143583882D01*
X126558822Y-143583883D01*
X126367311Y-143673186D01*
X126367306Y-143673189D01*
X126362324Y-143675512D01*
X126357817Y-143678668D01*
X126357815Y-143678669D01*
X126184730Y-143799864D01*
X126184727Y-143799866D01*
X126180219Y-143803023D01*
X126023023Y-143960219D01*
X126019866Y-143964727D01*
X126019864Y-143964730D01*
X125910572Y-144120816D01*
X125895512Y-144142324D01*
X125893189Y-144147306D01*
X125893186Y-144147311D01*
X125844195Y-144252373D01*
X125797277Y-144305658D01*
X125729000Y-144325119D01*
X125661040Y-144304577D01*
X125615805Y-144252373D01*
X125566814Y-144147311D01*
X125566811Y-144147306D01*
X125564488Y-144142324D01*
X125549428Y-144120816D01*
X125440136Y-143964730D01*
X125440134Y-143964727D01*
X125436977Y-143960219D01*
X125279781Y-143803023D01*
X125275273Y-143799866D01*
X125275270Y-143799864D01*
X125185171Y-143736776D01*
X125097677Y-143675512D01*
X125092695Y-143673189D01*
X125092690Y-143673186D01*
X124901178Y-143583883D01*
X124901177Y-143583882D01*
X124896196Y-143581560D01*
X124890888Y-143580138D01*
X124890886Y-143580137D01*
X124814162Y-143559579D01*
X124681463Y-143524022D01*
X124460000Y-143504647D01*
X124238537Y-143524022D01*
X124105838Y-143559579D01*
X124029114Y-143580137D01*
X124029112Y-143580138D01*
X124023804Y-143581560D01*
X124018823Y-143583882D01*
X124018822Y-143583883D01*
X123827311Y-143673186D01*
X123827306Y-143673189D01*
X123822324Y-143675512D01*
X123817817Y-143678668D01*
X123817815Y-143678669D01*
X123644730Y-143799864D01*
X123644727Y-143799866D01*
X123640219Y-143803023D01*
X123483023Y-143960219D01*
X123479866Y-143964727D01*
X123479864Y-143964730D01*
X123370572Y-144120816D01*
X123355512Y-144142324D01*
X123353189Y-144147306D01*
X123353186Y-144147311D01*
X123304195Y-144252373D01*
X123257277Y-144305658D01*
X123189000Y-144325119D01*
X123121040Y-144304577D01*
X123075805Y-144252373D01*
X123026814Y-144147311D01*
X123026811Y-144147306D01*
X123024488Y-144142324D01*
X123009428Y-144120816D01*
X122900136Y-143964730D01*
X122900134Y-143964727D01*
X122896977Y-143960219D01*
X122739781Y-143803023D01*
X122735273Y-143799866D01*
X122735270Y-143799864D01*
X122645171Y-143736776D01*
X122557677Y-143675512D01*
X122552695Y-143673189D01*
X122552690Y-143673186D01*
X122361178Y-143583883D01*
X122361177Y-143583882D01*
X122356196Y-143581560D01*
X122350888Y-143580138D01*
X122350886Y-143580137D01*
X122274162Y-143559579D01*
X122141463Y-143524022D01*
X121920000Y-143504647D01*
X121698537Y-143524022D01*
X121565838Y-143559579D01*
X121489114Y-143580137D01*
X121489112Y-143580138D01*
X121483804Y-143581560D01*
X121478823Y-143583882D01*
X121478822Y-143583883D01*
X121287311Y-143673186D01*
X121287306Y-143673189D01*
X121282324Y-143675512D01*
X121277817Y-143678668D01*
X121277815Y-143678669D01*
X121104730Y-143799864D01*
X121104727Y-143799866D01*
X121100219Y-143803023D01*
X120943023Y-143960219D01*
X120939866Y-143964727D01*
X120939864Y-143964730D01*
X120830572Y-144120816D01*
X120815512Y-144142324D01*
X120813189Y-144147306D01*
X120813186Y-144147311D01*
X120764195Y-144252373D01*
X120717277Y-144305658D01*
X120649000Y-144325119D01*
X120581040Y-144304577D01*
X120535805Y-144252373D01*
X120486814Y-144147311D01*
X120486811Y-144147306D01*
X120484488Y-144142324D01*
X120469428Y-144120816D01*
X120360136Y-143964730D01*
X120360134Y-143964727D01*
X120356977Y-143960219D01*
X120199781Y-143803023D01*
X120195273Y-143799866D01*
X120195270Y-143799864D01*
X120105171Y-143736776D01*
X120017677Y-143675512D01*
X120012695Y-143673189D01*
X120012690Y-143673186D01*
X119821178Y-143583883D01*
X119821177Y-143583882D01*
X119816196Y-143581560D01*
X119810888Y-143580138D01*
X119810886Y-143580137D01*
X119734162Y-143559579D01*
X119601463Y-143524022D01*
X119380000Y-143504647D01*
X119158537Y-143524022D01*
X119025838Y-143559579D01*
X118949114Y-143580137D01*
X118949112Y-143580138D01*
X118943804Y-143581560D01*
X118938823Y-143583882D01*
X118938822Y-143583883D01*
X118747311Y-143673186D01*
X118747306Y-143673189D01*
X118742324Y-143675512D01*
X118737817Y-143678668D01*
X118737815Y-143678669D01*
X118564730Y-143799864D01*
X118564727Y-143799866D01*
X118560219Y-143803023D01*
X118403023Y-143960219D01*
X118399866Y-143964727D01*
X118399864Y-143964730D01*
X118290572Y-144120816D01*
X118275512Y-144142324D01*
X118273189Y-144147306D01*
X118273186Y-144147311D01*
X118189997Y-144325711D01*
X118181560Y-144343804D01*
X118124022Y-144558537D01*
X118104647Y-144780000D01*
X116901187Y-144780000D01*
X117061463Y-144765978D01*
X117237484Y-144718813D01*
X117270886Y-144709863D01*
X117270888Y-144709862D01*
X117276196Y-144708440D01*
X117281178Y-144706117D01*
X117472690Y-144616814D01*
X117472695Y-144616811D01*
X117477677Y-144614488D01*
X117579505Y-144543187D01*
X117655270Y-144490136D01*
X117655273Y-144490134D01*
X117659781Y-144486977D01*
X117816977Y-144329781D01*
X117820242Y-144325119D01*
X117941331Y-144152185D01*
X117941332Y-144152183D01*
X117944488Y-144147676D01*
X117946811Y-144142694D01*
X117946814Y-144142689D01*
X118036117Y-143951178D01*
X118036118Y-143951177D01*
X118038440Y-143946196D01*
X118042320Y-143931718D01*
X118068436Y-143834251D01*
X118095978Y-143731463D01*
X118115353Y-143510000D01*
X118095978Y-143288537D01*
X118038440Y-143073804D01*
X118026869Y-143048990D01*
X117946814Y-142877311D01*
X117946811Y-142877306D01*
X117944488Y-142872324D01*
X117941331Y-142867815D01*
X117820136Y-142694730D01*
X117820134Y-142694727D01*
X117816977Y-142690219D01*
X117659781Y-142533023D01*
X117655273Y-142529866D01*
X117655270Y-142529864D01*
X117570886Y-142470778D01*
X117477677Y-142405512D01*
X117472695Y-142403189D01*
X117472690Y-142403186D01*
X117367627Y-142354195D01*
X117314342Y-142307278D01*
X117294881Y-142239001D01*
X117315423Y-142171041D01*
X117367627Y-142125805D01*
X117472690Y-142076814D01*
X117472695Y-142076811D01*
X117477677Y-142074488D01*
X117595302Y-141992126D01*
X117655270Y-141950136D01*
X117655273Y-141950134D01*
X117659781Y-141946977D01*
X117816977Y-141789781D01*
X117831315Y-141769305D01*
X117941331Y-141612185D01*
X117941332Y-141612183D01*
X117944488Y-141607676D01*
X117946811Y-141602694D01*
X117946814Y-141602689D01*
X118036117Y-141411178D01*
X118036118Y-141411177D01*
X118038440Y-141406196D01*
X118043742Y-141386411D01*
X118067149Y-141299053D01*
X118095978Y-141191463D01*
X118115353Y-140970000D01*
X118095978Y-140748537D01*
X118043083Y-140551133D01*
X118039863Y-140539114D01*
X118039862Y-140539112D01*
X118038440Y-140533804D01*
X118036117Y-140528822D01*
X117946814Y-140337311D01*
X117946811Y-140337306D01*
X117944488Y-140332324D01*
X117816977Y-140150219D01*
X117659781Y-139993023D01*
X117655273Y-139989866D01*
X117655270Y-139989864D01*
X117579505Y-139936813D01*
X117477677Y-139865512D01*
X117472695Y-139863189D01*
X117472690Y-139863186D01*
X117367627Y-139814195D01*
X117314342Y-139767278D01*
X117294881Y-139699001D01*
X117315423Y-139631041D01*
X117367627Y-139585805D01*
X117472690Y-139536814D01*
X117472695Y-139536811D01*
X117477677Y-139534488D01*
X117579505Y-139463187D01*
X117655270Y-139410136D01*
X117655273Y-139410134D01*
X117659781Y-139406977D01*
X117816977Y-139249781D01*
X117899831Y-139131454D01*
X117941331Y-139072185D01*
X117941332Y-139072183D01*
X117944488Y-139067676D01*
X117946811Y-139062694D01*
X117946814Y-139062689D01*
X118036117Y-138871178D01*
X118036118Y-138871177D01*
X118038440Y-138866196D01*
X118042086Y-138852591D01*
X118085518Y-138690500D01*
X118095978Y-138651463D01*
X118115353Y-138430000D01*
X118095978Y-138208537D01*
X118038440Y-137993804D01*
X118026869Y-137968990D01*
X117946814Y-137797311D01*
X117946811Y-137797306D01*
X117944488Y-137792324D01*
X117941331Y-137787815D01*
X117820136Y-137614730D01*
X117820134Y-137614727D01*
X117816977Y-137610219D01*
X117659781Y-137453023D01*
X117655273Y-137449866D01*
X117655270Y-137449864D01*
X117512242Y-137349715D01*
X117477677Y-137325512D01*
X117472695Y-137323189D01*
X117472690Y-137323186D01*
X117367627Y-137274195D01*
X117314342Y-137227278D01*
X117294881Y-137159001D01*
X117315423Y-137091041D01*
X117367627Y-137045805D01*
X117472690Y-136996814D01*
X117472695Y-136996811D01*
X117477677Y-136994488D01*
X117579505Y-136923187D01*
X117655270Y-136870136D01*
X117655273Y-136870134D01*
X117659781Y-136866977D01*
X117816977Y-136709781D01*
X117831315Y-136689305D01*
X117941331Y-136532185D01*
X117941332Y-136532183D01*
X117944488Y-136527676D01*
X117946811Y-136522694D01*
X117946814Y-136522689D01*
X118036117Y-136331178D01*
X118036118Y-136331177D01*
X118038440Y-136326196D01*
X118043742Y-136306411D01*
X118057503Y-136255051D01*
X118095978Y-136111463D01*
X118115353Y-135890000D01*
X118095978Y-135668537D01*
X118038440Y-135453804D01*
X118026869Y-135428990D01*
X117946814Y-135257311D01*
X117946811Y-135257306D01*
X117944488Y-135252324D01*
X117941331Y-135247815D01*
X117820136Y-135074730D01*
X117820134Y-135074727D01*
X117816977Y-135070219D01*
X117659781Y-134913023D01*
X117655273Y-134909866D01*
X117655270Y-134909864D01*
X117512242Y-134809715D01*
X117477677Y-134785512D01*
X117472695Y-134783189D01*
X117472690Y-134783186D01*
X117367035Y-134733919D01*
X117313750Y-134687002D01*
X117294289Y-134618725D01*
X117314831Y-134550765D01*
X117367035Y-134505529D01*
X117472445Y-134456376D01*
X117481931Y-134450898D01*
X117525764Y-134420207D01*
X117534139Y-134409729D01*
X117527071Y-134396281D01*
X116852812Y-133722022D01*
X116838868Y-133714408D01*
X116837035Y-133714539D01*
X116830420Y-133718790D01*
X116152207Y-134397003D01*
X116145777Y-134408777D01*
X116155074Y-134420793D01*
X116198069Y-134450898D01*
X116207555Y-134456376D01*
X116312965Y-134505529D01*
X116366250Y-134552446D01*
X116385711Y-134620723D01*
X116365169Y-134688683D01*
X116312965Y-134733919D01*
X116207311Y-134783186D01*
X116207306Y-134783189D01*
X116202324Y-134785512D01*
X116197817Y-134788668D01*
X116197815Y-134788669D01*
X116024730Y-134909864D01*
X116024727Y-134909866D01*
X116020219Y-134913023D01*
X115863023Y-135070219D01*
X115859866Y-135074727D01*
X115859864Y-135074730D01*
X115738669Y-135247815D01*
X115735512Y-135252324D01*
X115733189Y-135257306D01*
X115733186Y-135257311D01*
X115653131Y-135428990D01*
X115641560Y-135453804D01*
X115584022Y-135668537D01*
X115564647Y-135890000D01*
X115584022Y-136111463D01*
X115622497Y-136255051D01*
X115636259Y-136306411D01*
X115641560Y-136326196D01*
X115643882Y-136331177D01*
X115643883Y-136331178D01*
X115733186Y-136522689D01*
X115733189Y-136522694D01*
X115735512Y-136527676D01*
X115738668Y-136532183D01*
X115738669Y-136532185D01*
X115848686Y-136689305D01*
X115863023Y-136709781D01*
X116020219Y-136866977D01*
X116024727Y-136870134D01*
X116024730Y-136870136D01*
X116100495Y-136923187D01*
X116202323Y-136994488D01*
X116207305Y-136996811D01*
X116207310Y-136996814D01*
X116312373Y-137045805D01*
X116365658Y-137092722D01*
X116385119Y-137160999D01*
X116364577Y-137228959D01*
X116312373Y-137274195D01*
X116207311Y-137323186D01*
X116207306Y-137323189D01*
X116202324Y-137325512D01*
X116197817Y-137328668D01*
X116197815Y-137328669D01*
X116024730Y-137449864D01*
X116024727Y-137449866D01*
X116020219Y-137453023D01*
X115863023Y-137610219D01*
X115859866Y-137614727D01*
X115859864Y-137614730D01*
X115738669Y-137787815D01*
X115735512Y-137792324D01*
X115733189Y-137797306D01*
X115733186Y-137797311D01*
X115653131Y-137968990D01*
X115641560Y-137993804D01*
X115584022Y-138208537D01*
X115564647Y-138430000D01*
X115584022Y-138651463D01*
X115594482Y-138690500D01*
X115637915Y-138852591D01*
X115641560Y-138866196D01*
X115643882Y-138871177D01*
X115643883Y-138871178D01*
X115733186Y-139062689D01*
X115733189Y-139062694D01*
X115735512Y-139067676D01*
X115738668Y-139072183D01*
X115738669Y-139072185D01*
X115780170Y-139131454D01*
X115863023Y-139249781D01*
X116020219Y-139406977D01*
X116024727Y-139410134D01*
X116024730Y-139410136D01*
X116100495Y-139463187D01*
X116202323Y-139534488D01*
X116207305Y-139536811D01*
X116207310Y-139536814D01*
X116312373Y-139585805D01*
X116365658Y-139632722D01*
X116385119Y-139700999D01*
X116364577Y-139768959D01*
X116312373Y-139814195D01*
X116207311Y-139863186D01*
X116207306Y-139863189D01*
X116202324Y-139865512D01*
X116197817Y-139868668D01*
X116197815Y-139868669D01*
X116024730Y-139989864D01*
X116024727Y-139989866D01*
X116020219Y-139993023D01*
X115863023Y-140150219D01*
X115735512Y-140332324D01*
X115733189Y-140337306D01*
X115733186Y-140337311D01*
X115643883Y-140528822D01*
X115641560Y-140533804D01*
X115640138Y-140539112D01*
X115640137Y-140539114D01*
X115636917Y-140551133D01*
X115584022Y-140748537D01*
X115564647Y-140970000D01*
X115584022Y-141191463D01*
X115612851Y-141299053D01*
X115636259Y-141386411D01*
X115641560Y-141406196D01*
X115643882Y-141411177D01*
X115643883Y-141411178D01*
X115733186Y-141602689D01*
X115733189Y-141602694D01*
X115735512Y-141607676D01*
X115738668Y-141612183D01*
X115738669Y-141612185D01*
X115848686Y-141769305D01*
X115863023Y-141789781D01*
X116020219Y-141946977D01*
X116024727Y-141950134D01*
X116024730Y-141950136D01*
X116084698Y-141992126D01*
X116202323Y-142074488D01*
X116207305Y-142076811D01*
X116207310Y-142076814D01*
X116312373Y-142125805D01*
X116365658Y-142172722D01*
X116385119Y-142240999D01*
X116364577Y-142308959D01*
X116312373Y-142354195D01*
X116207311Y-142403186D01*
X116207306Y-142403189D01*
X116202324Y-142405512D01*
X116197817Y-142408668D01*
X116197815Y-142408669D01*
X116024730Y-142529864D01*
X116024727Y-142529866D01*
X116020219Y-142533023D01*
X115863023Y-142690219D01*
X115859866Y-142694727D01*
X115859864Y-142694730D01*
X115738669Y-142867815D01*
X115735512Y-142872324D01*
X115733189Y-142877306D01*
X115733186Y-142877311D01*
X115653131Y-143048990D01*
X115641560Y-143073804D01*
X115584022Y-143288537D01*
X115564647Y-143510000D01*
X106561769Y-143510000D01*
X106490867Y-143439098D01*
X106205075Y-143207668D01*
X106081068Y-143127137D01*
X105899427Y-143009178D01*
X105899424Y-143009176D01*
X105896658Y-143007380D01*
X105893724Y-143005885D01*
X105893717Y-143005881D01*
X105571934Y-142841925D01*
X105568994Y-142840427D01*
X105225674Y-142708639D01*
X104870459Y-142613459D01*
X104677442Y-142582888D01*
X104510489Y-142556445D01*
X104510481Y-142556444D01*
X104507241Y-142555931D01*
X104140000Y-142536685D01*
X103772759Y-142555931D01*
X103769519Y-142556444D01*
X103769511Y-142556445D01*
X103602558Y-142582888D01*
X103409541Y-142613459D01*
X103054326Y-142708639D01*
X102711006Y-142840427D01*
X102708066Y-142841925D01*
X102386284Y-143005881D01*
X102386277Y-143005885D01*
X102383343Y-143007380D01*
X102380577Y-143009176D01*
X102380574Y-143009178D01*
X102272882Y-143079114D01*
X102074925Y-143207668D01*
X101789133Y-143439098D01*
X101529098Y-143699133D01*
X101297668Y-143984925D01*
X101274532Y-144020552D01*
X101123602Y-144252965D01*
X101097380Y-144293343D01*
X101095885Y-144296277D01*
X101095881Y-144296284D01*
X101035091Y-144415592D01*
X100930427Y-144621006D01*
X100798639Y-144964326D01*
X100703459Y-145319541D01*
X100679978Y-145467793D01*
X100646664Y-145678134D01*
X100645931Y-145682759D01*
X100626685Y-146050000D01*
X97657554Y-146050000D01*
X97733261Y-145993261D01*
X97820615Y-145876705D01*
X97871745Y-145740316D01*
X97878500Y-145678134D01*
X97878500Y-143881866D01*
X97871745Y-143819684D01*
X97820615Y-143683295D01*
X97733261Y-143566739D01*
X97616705Y-143479385D01*
X97480316Y-143428255D01*
X97418134Y-143421500D01*
X95621866Y-143421500D01*
X95559684Y-143428255D01*
X95423295Y-143479385D01*
X95306739Y-143566739D01*
X95219385Y-143683295D01*
X95168255Y-143819684D01*
X95161500Y-143881866D01*
X95161500Y-145678134D01*
X93980000Y-145678134D01*
X93980000Y-133355475D01*
X115565628Y-133355475D01*
X115584038Y-133565896D01*
X115585941Y-133576691D01*
X115640609Y-133780715D01*
X115644355Y-133791007D01*
X115733623Y-133982441D01*
X115739103Y-133991932D01*
X115769794Y-134035765D01*
X115780271Y-134044140D01*
X115793718Y-134037072D01*
X116467978Y-133362812D01*
X116474356Y-133351132D01*
X117204408Y-133351132D01*
X117204539Y-133352965D01*
X117208790Y-133359580D01*
X117887003Y-134037793D01*
X117898777Y-134044223D01*
X117910793Y-134034926D01*
X117940897Y-133991932D01*
X117946377Y-133982441D01*
X118035645Y-133791007D01*
X118039391Y-133780715D01*
X118094059Y-133576691D01*
X118095962Y-133565896D01*
X118114372Y-133355475D01*
X118114372Y-133344525D01*
X118095962Y-133134104D01*
X118094059Y-133123309D01*
X118039391Y-132919285D01*
X118035645Y-132908993D01*
X117946377Y-132717559D01*
X117940897Y-132708068D01*
X117910206Y-132664235D01*
X117899729Y-132655860D01*
X117886282Y-132662928D01*
X117212022Y-133337188D01*
X117204408Y-133351132D01*
X116474356Y-133351132D01*
X116475592Y-133348868D01*
X116475461Y-133347035D01*
X116471210Y-133340420D01*
X115792997Y-132662207D01*
X115781223Y-132655777D01*
X115769207Y-132665074D01*
X115739103Y-132708068D01*
X115733623Y-132717559D01*
X115644355Y-132908993D01*
X115640609Y-132919285D01*
X115585941Y-133123309D01*
X115584038Y-133134104D01*
X115565628Y-133344525D01*
X115565628Y-133355475D01*
X93980000Y-133355475D01*
X93980000Y-131868777D01*
X116145777Y-131868777D01*
X116155074Y-131880793D01*
X116198069Y-131910898D01*
X116207555Y-131916376D01*
X116313557Y-131965805D01*
X116366842Y-132012722D01*
X116386303Y-132080999D01*
X116365761Y-132148959D01*
X116313557Y-132194195D01*
X116207559Y-132243623D01*
X116198068Y-132249103D01*
X116154235Y-132279794D01*
X116145860Y-132290271D01*
X116152928Y-132303718D01*
X116827188Y-132977978D01*
X116841132Y-132985592D01*
X116842965Y-132985461D01*
X116849580Y-132981210D01*
X117527793Y-132302997D01*
X117534223Y-132291223D01*
X117524926Y-132279207D01*
X117481931Y-132249102D01*
X117472445Y-132243624D01*
X117366444Y-132194195D01*
X117313159Y-132147278D01*
X117293698Y-132079000D01*
X117314240Y-132011040D01*
X117366444Y-131965805D01*
X117472445Y-131916376D01*
X117481931Y-131910898D01*
X117525764Y-131880207D01*
X117534139Y-131869729D01*
X117527071Y-131856281D01*
X116852812Y-131182022D01*
X116838868Y-131174408D01*
X116837035Y-131174539D01*
X116830420Y-131178790D01*
X116152207Y-131857003D01*
X116145777Y-131868777D01*
X93980000Y-131868777D01*
X93980000Y-130815475D01*
X115565628Y-130815475D01*
X115584038Y-131025896D01*
X115585941Y-131036691D01*
X115640609Y-131240715D01*
X115644355Y-131251007D01*
X115733623Y-131442441D01*
X115739103Y-131451932D01*
X115769794Y-131495765D01*
X115780271Y-131504140D01*
X115793718Y-131497072D01*
X116467978Y-130822812D01*
X116474356Y-130811132D01*
X117204408Y-130811132D01*
X117204539Y-130812965D01*
X117208790Y-130819580D01*
X117887003Y-131497793D01*
X117898777Y-131504223D01*
X117910793Y-131494926D01*
X117940897Y-131451932D01*
X117946377Y-131442441D01*
X118035645Y-131251007D01*
X118039391Y-131240715D01*
X118094059Y-131036691D01*
X118095962Y-131025896D01*
X118114372Y-130815475D01*
X118114372Y-130804525D01*
X118095962Y-130594104D01*
X118094059Y-130583309D01*
X118039391Y-130379285D01*
X118035645Y-130368993D01*
X117946377Y-130177559D01*
X117940897Y-130168068D01*
X117910206Y-130124235D01*
X117899729Y-130115860D01*
X117886282Y-130122928D01*
X117212022Y-130797188D01*
X117204408Y-130811132D01*
X116474356Y-130811132D01*
X116475592Y-130808868D01*
X116475461Y-130807035D01*
X116471210Y-130800420D01*
X115792997Y-130122207D01*
X115781223Y-130115777D01*
X115769207Y-130125074D01*
X115739103Y-130168068D01*
X115733623Y-130177559D01*
X115644355Y-130368993D01*
X115640609Y-130379285D01*
X115585941Y-130583309D01*
X115584038Y-130594104D01*
X115565628Y-130804525D01*
X115565628Y-130815475D01*
X93980000Y-130815475D01*
X93980000Y-129750271D01*
X116145860Y-129750271D01*
X116152928Y-129763718D01*
X116827188Y-130437978D01*
X116841132Y-130445592D01*
X116842965Y-130445461D01*
X116849580Y-130441210D01*
X117527793Y-129762997D01*
X117534223Y-129751223D01*
X117524926Y-129739207D01*
X117481931Y-129709102D01*
X117472445Y-129703624D01*
X117281007Y-129614355D01*
X117270715Y-129610609D01*
X117066691Y-129555941D01*
X117055896Y-129554038D01*
X116895446Y-129540000D01*
X118104647Y-129540000D01*
X118124022Y-129761463D01*
X118125446Y-129766776D01*
X118175191Y-129952425D01*
X118181560Y-129976196D01*
X118183882Y-129981177D01*
X118183883Y-129981178D01*
X118273186Y-130172689D01*
X118273189Y-130172694D01*
X118275512Y-130177676D01*
X118278668Y-130182183D01*
X118278669Y-130182185D01*
X118389655Y-130340689D01*
X118403023Y-130359781D01*
X118560219Y-130516977D01*
X118564727Y-130520134D01*
X118564730Y-130520136D01*
X118645725Y-130576849D01*
X118670368Y-130594104D01*
X118692771Y-130609791D01*
X118737099Y-130665248D01*
X118746500Y-130713004D01*
X118746500Y-130731233D01*
X118745973Y-130742416D01*
X118744298Y-130749909D01*
X118744547Y-130757835D01*
X118744547Y-130757836D01*
X118746438Y-130817986D01*
X118746500Y-130821945D01*
X118746500Y-130849856D01*
X118746997Y-130853790D01*
X118746997Y-130853791D01*
X118747005Y-130853856D01*
X118747938Y-130865693D01*
X118749327Y-130909889D01*
X118752787Y-130921797D01*
X118754978Y-130929339D01*
X118758987Y-130948700D01*
X118761526Y-130968797D01*
X118764445Y-130976168D01*
X118764445Y-130976170D01*
X118777804Y-131009912D01*
X118781649Y-131021142D01*
X118793982Y-131063593D01*
X118798015Y-131070412D01*
X118798017Y-131070417D01*
X118804293Y-131081028D01*
X118812988Y-131098776D01*
X118820448Y-131117617D01*
X118825110Y-131124033D01*
X118825110Y-131124034D01*
X118846436Y-131153387D01*
X118852952Y-131163307D01*
X118875458Y-131201362D01*
X118889779Y-131215683D01*
X118902619Y-131230716D01*
X118914528Y-131247107D01*
X118948605Y-131275298D01*
X118957384Y-131283288D01*
X120146343Y-132472247D01*
X120153887Y-132480537D01*
X120158000Y-132487018D01*
X120163777Y-132492443D01*
X120207667Y-132533658D01*
X120210509Y-132536413D01*
X120230230Y-132556134D01*
X120233425Y-132558612D01*
X120242447Y-132566318D01*
X120274679Y-132596586D01*
X120281628Y-132600406D01*
X120292432Y-132606346D01*
X120308956Y-132617199D01*
X120324959Y-132629613D01*
X120365543Y-132647176D01*
X120376173Y-132652383D01*
X120414940Y-132673695D01*
X120422617Y-132675666D01*
X120422622Y-132675668D01*
X120434558Y-132678732D01*
X120453266Y-132685137D01*
X120471855Y-132693181D01*
X120479683Y-132694421D01*
X120479690Y-132694423D01*
X120515524Y-132700099D01*
X120527144Y-132702505D01*
X120562289Y-132711528D01*
X120569970Y-132713500D01*
X120590224Y-132713500D01*
X120609934Y-132715051D01*
X120629943Y-132718220D01*
X120637835Y-132717474D01*
X120673961Y-132714059D01*
X120685819Y-132713500D01*
X125670224Y-132713500D01*
X125689934Y-132715051D01*
X125709943Y-132718220D01*
X125717835Y-132717474D01*
X125753961Y-132714059D01*
X125765819Y-132713500D01*
X125769856Y-132713500D01*
X125797545Y-132710002D01*
X125801479Y-132709567D01*
X125861402Y-132703903D01*
X125861404Y-132703903D01*
X125869292Y-132703157D01*
X125876512Y-132700558D01*
X125877091Y-132700457D01*
X125880627Y-132699608D01*
X125881187Y-132699436D01*
X125888797Y-132698474D01*
X125952128Y-132673399D01*
X125955822Y-132672004D01*
X125961733Y-132669876D01*
X126019889Y-132648939D01*
X126026239Y-132644624D01*
X126026779Y-132644380D01*
X126029982Y-132642685D01*
X126030489Y-132642374D01*
X126037617Y-132639552D01*
X126044023Y-132634898D01*
X126044028Y-132634895D01*
X126092727Y-132599513D01*
X126095965Y-132597237D01*
X126104910Y-132591158D01*
X126152271Y-132558972D01*
X126157346Y-132553215D01*
X126157811Y-132552843D01*
X126160492Y-132550402D01*
X126160898Y-132549983D01*
X126167107Y-132545472D01*
X126210514Y-132493003D01*
X126213082Y-132489996D01*
X126215708Y-132487018D01*
X126258120Y-132438910D01*
X126261602Y-132432075D01*
X126261948Y-132431614D01*
X126263951Y-132428565D01*
X126264241Y-132428056D01*
X126269133Y-132422144D01*
X126298135Y-132360512D01*
X126299850Y-132357010D01*
X126330785Y-132296296D01*
X126332460Y-132288805D01*
X126332688Y-132288253D01*
X126333858Y-132284836D01*
X126334015Y-132284264D01*
X126337283Y-132277318D01*
X126350043Y-132210429D01*
X126350845Y-132206554D01*
X126353608Y-132194195D01*
X126365702Y-132140091D01*
X126365461Y-132132422D01*
X126365544Y-132131840D01*
X126365829Y-132128211D01*
X126365838Y-132127626D01*
X126367275Y-132120094D01*
X126362998Y-132052116D01*
X126362813Y-132048194D01*
X126360922Y-131988032D01*
X126360673Y-131980110D01*
X126358532Y-131972741D01*
X126358467Y-131972151D01*
X126357846Y-131968592D01*
X126357707Y-131968014D01*
X126357225Y-131960350D01*
X126336183Y-131895588D01*
X126335019Y-131891807D01*
X126318229Y-131834017D01*
X126316018Y-131826407D01*
X126312114Y-131819805D01*
X126311907Y-131819258D01*
X126310412Y-131815947D01*
X126310136Y-131815426D01*
X126307764Y-131808125D01*
X126288115Y-131777163D01*
X126268500Y-131709649D01*
X126268500Y-130798518D01*
X126288502Y-130730397D01*
X126342158Y-130683904D01*
X126412432Y-130673800D01*
X126447749Y-130684323D01*
X126504736Y-130710896D01*
X126548349Y-130731233D01*
X126563804Y-130738440D01*
X126569112Y-130739862D01*
X126569114Y-130739863D01*
X126617112Y-130752724D01*
X126778537Y-130795978D01*
X127000000Y-130815353D01*
X127221463Y-130795978D01*
X127382888Y-130752724D01*
X127430886Y-130739863D01*
X127430888Y-130739862D01*
X127436196Y-130738440D01*
X127442467Y-130735516D01*
X127632690Y-130646814D01*
X127632695Y-130646811D01*
X127637677Y-130644488D01*
X127739505Y-130573187D01*
X127815270Y-130520136D01*
X127815273Y-130520134D01*
X127819781Y-130516977D01*
X127976977Y-130359781D01*
X127990346Y-130340689D01*
X128101331Y-130182185D01*
X128101332Y-130182183D01*
X128104488Y-130177676D01*
X128106811Y-130172694D01*
X128106814Y-130172689D01*
X128155805Y-130067627D01*
X128202723Y-130014342D01*
X128271000Y-129994881D01*
X128338960Y-130015423D01*
X128384195Y-130067627D01*
X128433186Y-130172689D01*
X128433189Y-130172694D01*
X128435512Y-130177676D01*
X128438668Y-130182183D01*
X128438669Y-130182185D01*
X128549655Y-130340689D01*
X128563023Y-130359781D01*
X128720219Y-130516977D01*
X128724727Y-130520134D01*
X128724730Y-130520136D01*
X128800495Y-130573187D01*
X128902323Y-130644488D01*
X128907305Y-130646811D01*
X128907310Y-130646814D01*
X129097533Y-130735516D01*
X129103804Y-130738440D01*
X129109112Y-130739862D01*
X129109114Y-130739863D01*
X129157112Y-130752724D01*
X129318537Y-130795978D01*
X129540000Y-130815353D01*
X129761463Y-130795978D01*
X129922888Y-130752724D01*
X129970886Y-130739863D01*
X129970888Y-130739862D01*
X129976196Y-130738440D01*
X129982467Y-130735516D01*
X130172690Y-130646814D01*
X130172695Y-130646811D01*
X130177677Y-130644488D01*
X130279505Y-130573187D01*
X130355270Y-130520136D01*
X130355273Y-130520134D01*
X130359781Y-130516977D01*
X130516977Y-130359781D01*
X130530346Y-130340689D01*
X130641331Y-130182185D01*
X130641332Y-130182183D01*
X130644488Y-130177676D01*
X130646811Y-130172694D01*
X130646814Y-130172689D01*
X130695805Y-130067627D01*
X130742723Y-130014342D01*
X130811000Y-129994881D01*
X130878960Y-130015423D01*
X130924195Y-130067627D01*
X130973186Y-130172689D01*
X130973189Y-130172694D01*
X130975512Y-130177676D01*
X130978668Y-130182183D01*
X130978669Y-130182185D01*
X131089655Y-130340689D01*
X131103023Y-130359781D01*
X131260219Y-130516977D01*
X131264727Y-130520134D01*
X131264730Y-130520136D01*
X131340495Y-130573187D01*
X131442323Y-130644488D01*
X131447305Y-130646811D01*
X131447310Y-130646814D01*
X131637533Y-130735516D01*
X131643804Y-130738440D01*
X131649112Y-130739862D01*
X131649114Y-130739863D01*
X131697112Y-130752724D01*
X131858537Y-130795978D01*
X132080000Y-130815353D01*
X132301463Y-130795978D01*
X132462888Y-130752724D01*
X132510886Y-130739863D01*
X132510888Y-130739862D01*
X132516196Y-130738440D01*
X132522467Y-130735516D01*
X132712690Y-130646814D01*
X132712695Y-130646811D01*
X132717677Y-130644488D01*
X132819505Y-130573187D01*
X132895270Y-130520136D01*
X132895273Y-130520134D01*
X132899781Y-130516977D01*
X133056977Y-130359781D01*
X133070346Y-130340689D01*
X133181331Y-130182185D01*
X133181332Y-130182183D01*
X133184488Y-130177676D01*
X133186811Y-130172694D01*
X133186814Y-130172689D01*
X133235805Y-130067627D01*
X133282723Y-130014342D01*
X133351000Y-129994881D01*
X133418960Y-130015423D01*
X133464195Y-130067627D01*
X133513186Y-130172689D01*
X133513189Y-130172694D01*
X133515512Y-130177676D01*
X133518668Y-130182183D01*
X133518669Y-130182185D01*
X133629655Y-130340689D01*
X133643023Y-130359781D01*
X133800219Y-130516977D01*
X133804727Y-130520134D01*
X133804730Y-130520136D01*
X133880495Y-130573187D01*
X133982323Y-130644488D01*
X133987305Y-130646811D01*
X133987310Y-130646814D01*
X134177533Y-130735516D01*
X134183804Y-130738440D01*
X134189112Y-130739862D01*
X134189114Y-130739863D01*
X134237112Y-130752724D01*
X134398537Y-130795978D01*
X134620000Y-130815353D01*
X134841463Y-130795978D01*
X135002888Y-130752724D01*
X135050886Y-130739863D01*
X135050888Y-130739862D01*
X135056196Y-130738440D01*
X135062467Y-130735516D01*
X135252690Y-130646814D01*
X135252695Y-130646811D01*
X135257677Y-130644488D01*
X135359505Y-130573187D01*
X135435270Y-130520136D01*
X135435273Y-130520134D01*
X135439781Y-130516977D01*
X135596977Y-130359781D01*
X135610346Y-130340689D01*
X135721331Y-130182185D01*
X135721332Y-130182183D01*
X135724488Y-130177676D01*
X135726811Y-130172694D01*
X135726814Y-130172689D01*
X135775805Y-130067627D01*
X135822723Y-130014342D01*
X135891000Y-129994881D01*
X135958960Y-130015423D01*
X136004195Y-130067627D01*
X136053186Y-130172689D01*
X136053189Y-130172694D01*
X136055512Y-130177676D01*
X136058668Y-130182183D01*
X136058669Y-130182185D01*
X136169655Y-130340689D01*
X136183023Y-130359781D01*
X136340219Y-130516977D01*
X136344727Y-130520134D01*
X136344730Y-130520136D01*
X136420495Y-130573187D01*
X136522323Y-130644488D01*
X136527305Y-130646811D01*
X136527310Y-130646814D01*
X136717533Y-130735516D01*
X136723804Y-130738440D01*
X136729112Y-130739862D01*
X136729114Y-130739863D01*
X136777112Y-130752724D01*
X136938537Y-130795978D01*
X137160000Y-130815353D01*
X137381463Y-130795978D01*
X137542888Y-130752724D01*
X137590886Y-130739863D01*
X137590888Y-130739862D01*
X137596196Y-130738440D01*
X137602467Y-130735516D01*
X137792690Y-130646814D01*
X137792695Y-130646811D01*
X137797677Y-130644488D01*
X137899505Y-130573187D01*
X137975270Y-130520136D01*
X137975273Y-130520134D01*
X137979781Y-130516977D01*
X138136977Y-130359781D01*
X138150346Y-130340689D01*
X138261331Y-130182185D01*
X138261332Y-130182183D01*
X138264488Y-130177676D01*
X138266811Y-130172694D01*
X138266814Y-130172689D01*
X138315805Y-130067627D01*
X138362723Y-130014342D01*
X138431000Y-129994881D01*
X138498960Y-130015423D01*
X138544195Y-130067627D01*
X138593186Y-130172689D01*
X138593189Y-130172694D01*
X138595512Y-130177676D01*
X138598668Y-130182183D01*
X138598669Y-130182185D01*
X138709655Y-130340689D01*
X138723023Y-130359781D01*
X138880219Y-130516977D01*
X138884727Y-130520134D01*
X138884730Y-130520136D01*
X138960495Y-130573187D01*
X139062323Y-130644488D01*
X139067305Y-130646811D01*
X139067310Y-130646814D01*
X139257533Y-130735516D01*
X139263804Y-130738440D01*
X139269112Y-130739862D01*
X139269114Y-130739863D01*
X139317112Y-130752724D01*
X139478537Y-130795978D01*
X139700000Y-130815353D01*
X139921463Y-130795978D01*
X140082888Y-130752724D01*
X140130886Y-130739863D01*
X140130888Y-130739862D01*
X140136196Y-130738440D01*
X140142467Y-130735516D01*
X140332690Y-130646814D01*
X140332695Y-130646811D01*
X140337677Y-130644488D01*
X140439505Y-130573187D01*
X140515270Y-130520136D01*
X140515273Y-130520134D01*
X140519781Y-130516977D01*
X140676977Y-130359781D01*
X140690346Y-130340689D01*
X140801331Y-130182185D01*
X140801332Y-130182183D01*
X140804488Y-130177676D01*
X140806811Y-130172694D01*
X140806814Y-130172689D01*
X140855805Y-130067627D01*
X140902723Y-130014342D01*
X140971000Y-129994881D01*
X141038960Y-130015423D01*
X141084195Y-130067627D01*
X141133186Y-130172689D01*
X141133189Y-130172694D01*
X141135512Y-130177676D01*
X141138668Y-130182183D01*
X141138669Y-130182185D01*
X141249655Y-130340689D01*
X141263023Y-130359781D01*
X141420219Y-130516977D01*
X141424727Y-130520134D01*
X141424730Y-130520136D01*
X141500495Y-130573187D01*
X141602323Y-130644488D01*
X141607305Y-130646811D01*
X141607310Y-130646814D01*
X141797533Y-130735516D01*
X141803804Y-130738440D01*
X141809112Y-130739862D01*
X141809114Y-130739863D01*
X141857112Y-130752724D01*
X142018537Y-130795978D01*
X142240000Y-130815353D01*
X142461463Y-130795978D01*
X142622888Y-130752724D01*
X142670886Y-130739863D01*
X142670888Y-130739862D01*
X142676196Y-130738440D01*
X142682467Y-130735516D01*
X142872690Y-130646814D01*
X142872695Y-130646811D01*
X142877677Y-130644488D01*
X142979505Y-130573187D01*
X143055270Y-130520136D01*
X143055273Y-130520134D01*
X143059781Y-130516977D01*
X143216977Y-130359781D01*
X143230346Y-130340689D01*
X143341331Y-130182185D01*
X143341332Y-130182183D01*
X143344488Y-130177676D01*
X143346811Y-130172694D01*
X143346814Y-130172689D01*
X143395805Y-130067627D01*
X143442723Y-130014342D01*
X143511000Y-129994881D01*
X143578960Y-130015423D01*
X143624195Y-130067627D01*
X143673186Y-130172689D01*
X143673189Y-130172694D01*
X143675512Y-130177676D01*
X143678668Y-130182183D01*
X143678669Y-130182185D01*
X143789655Y-130340689D01*
X143803023Y-130359781D01*
X143960219Y-130516977D01*
X143964727Y-130520134D01*
X143964730Y-130520136D01*
X144040495Y-130573187D01*
X144142323Y-130644488D01*
X144147305Y-130646811D01*
X144147310Y-130646814D01*
X144337533Y-130735516D01*
X144343804Y-130738440D01*
X144349112Y-130739862D01*
X144349114Y-130739863D01*
X144397112Y-130752724D01*
X144558537Y-130795978D01*
X144780000Y-130815353D01*
X145001463Y-130795978D01*
X145162888Y-130752724D01*
X145210886Y-130739863D01*
X145210888Y-130739862D01*
X145216196Y-130738440D01*
X145222467Y-130735516D01*
X145412690Y-130646814D01*
X145412695Y-130646811D01*
X145417677Y-130644488D01*
X145519505Y-130573187D01*
X145595270Y-130520136D01*
X145595273Y-130520134D01*
X145599781Y-130516977D01*
X145756977Y-130359781D01*
X145770346Y-130340689D01*
X145881331Y-130182185D01*
X145881332Y-130182183D01*
X145884488Y-130177676D01*
X145886811Y-130172694D01*
X145886814Y-130172689D01*
X145935805Y-130067627D01*
X145982723Y-130014342D01*
X146051000Y-129994881D01*
X146118960Y-130015423D01*
X146164195Y-130067627D01*
X146213186Y-130172689D01*
X146213189Y-130172694D01*
X146215512Y-130177676D01*
X146218668Y-130182183D01*
X146218669Y-130182185D01*
X146329655Y-130340689D01*
X146343023Y-130359781D01*
X146500219Y-130516977D01*
X146504727Y-130520134D01*
X146504730Y-130520136D01*
X146580495Y-130573187D01*
X146682323Y-130644488D01*
X146687305Y-130646811D01*
X146687310Y-130646814D01*
X146877533Y-130735516D01*
X146883804Y-130738440D01*
X146889112Y-130739862D01*
X146889114Y-130739863D01*
X146937112Y-130752724D01*
X147098537Y-130795978D01*
X147320000Y-130815353D01*
X147541463Y-130795978D01*
X147702888Y-130752724D01*
X147750886Y-130739863D01*
X147750888Y-130739862D01*
X147756196Y-130738440D01*
X147762467Y-130735516D01*
X147952690Y-130646814D01*
X147952695Y-130646811D01*
X147957677Y-130644488D01*
X148059505Y-130573187D01*
X148135270Y-130520136D01*
X148135273Y-130520134D01*
X148139781Y-130516977D01*
X148296977Y-130359781D01*
X148310346Y-130340689D01*
X148421331Y-130182185D01*
X148421332Y-130182183D01*
X148424488Y-130177676D01*
X148426811Y-130172694D01*
X148426814Y-130172689D01*
X148516117Y-129981178D01*
X148516118Y-129981177D01*
X148518440Y-129976196D01*
X148524810Y-129952425D01*
X148574554Y-129766776D01*
X148575978Y-129761463D01*
X148595353Y-129540000D01*
X148575978Y-129318537D01*
X148518440Y-129103804D01*
X148516117Y-129098822D01*
X148426814Y-128907311D01*
X148426811Y-128907306D01*
X148424488Y-128902324D01*
X148419948Y-128895840D01*
X148300136Y-128724730D01*
X148300134Y-128724727D01*
X148296977Y-128720219D01*
X148139781Y-128563023D01*
X148135273Y-128559866D01*
X148135270Y-128559864D01*
X148040651Y-128493611D01*
X147957677Y-128435512D01*
X147952695Y-128433189D01*
X147952690Y-128433186D01*
X147761178Y-128343883D01*
X147761177Y-128343882D01*
X147756196Y-128341560D01*
X147750888Y-128340138D01*
X147750886Y-128340137D01*
X147650781Y-128313314D01*
X147541463Y-128284022D01*
X147320000Y-128264647D01*
X147098537Y-128284022D01*
X146989219Y-128313314D01*
X146889114Y-128340137D01*
X146889112Y-128340138D01*
X146883804Y-128341560D01*
X146878823Y-128343882D01*
X146878822Y-128343883D01*
X146687311Y-128433186D01*
X146687306Y-128433189D01*
X146682324Y-128435512D01*
X146677817Y-128438668D01*
X146677815Y-128438669D01*
X146504730Y-128559864D01*
X146504727Y-128559866D01*
X146500219Y-128563023D01*
X146343023Y-128720219D01*
X146339866Y-128724727D01*
X146339864Y-128724730D01*
X146220052Y-128895840D01*
X146215512Y-128902324D01*
X146213189Y-128907306D01*
X146213186Y-128907311D01*
X146164195Y-129012373D01*
X146117277Y-129065658D01*
X146049000Y-129085119D01*
X145981040Y-129064577D01*
X145935805Y-129012373D01*
X145886814Y-128907311D01*
X145886811Y-128907306D01*
X145884488Y-128902324D01*
X145879948Y-128895840D01*
X145760136Y-128724730D01*
X145760134Y-128724727D01*
X145756977Y-128720219D01*
X145599781Y-128563023D01*
X145595273Y-128559866D01*
X145595270Y-128559864D01*
X145500651Y-128493611D01*
X145417677Y-128435512D01*
X145412695Y-128433189D01*
X145412690Y-128433186D01*
X145221178Y-128343883D01*
X145221177Y-128343882D01*
X145216196Y-128341560D01*
X145210888Y-128340138D01*
X145210886Y-128340137D01*
X145110781Y-128313314D01*
X145001463Y-128284022D01*
X144780000Y-128264647D01*
X144558537Y-128284022D01*
X144449219Y-128313314D01*
X144349114Y-128340137D01*
X144349112Y-128340138D01*
X144343804Y-128341560D01*
X144338823Y-128343882D01*
X144338822Y-128343883D01*
X144147311Y-128433186D01*
X144147306Y-128433189D01*
X144142324Y-128435512D01*
X144137817Y-128438668D01*
X144137815Y-128438669D01*
X143964730Y-128559864D01*
X143964727Y-128559866D01*
X143960219Y-128563023D01*
X143803023Y-128720219D01*
X143799866Y-128724727D01*
X143799864Y-128724730D01*
X143680052Y-128895840D01*
X143675512Y-128902324D01*
X143673189Y-128907306D01*
X143673186Y-128907311D01*
X143624195Y-129012373D01*
X143577277Y-129065658D01*
X143509000Y-129085119D01*
X143441040Y-129064577D01*
X143395805Y-129012373D01*
X143346814Y-128907311D01*
X143346811Y-128907306D01*
X143344488Y-128902324D01*
X143339948Y-128895840D01*
X143220136Y-128724730D01*
X143220134Y-128724727D01*
X143216977Y-128720219D01*
X143059781Y-128563023D01*
X143055273Y-128559866D01*
X143055270Y-128559864D01*
X142960651Y-128493611D01*
X142877677Y-128435512D01*
X142872695Y-128433189D01*
X142872690Y-128433186D01*
X142681178Y-128343883D01*
X142681177Y-128343882D01*
X142676196Y-128341560D01*
X142670888Y-128340138D01*
X142670886Y-128340137D01*
X142570781Y-128313314D01*
X142461463Y-128284022D01*
X142240000Y-128264647D01*
X142018537Y-128284022D01*
X141909219Y-128313314D01*
X141809114Y-128340137D01*
X141809112Y-128340138D01*
X141803804Y-128341560D01*
X141798823Y-128343882D01*
X141798822Y-128343883D01*
X141607311Y-128433186D01*
X141607306Y-128433189D01*
X141602324Y-128435512D01*
X141597817Y-128438668D01*
X141597815Y-128438669D01*
X141424730Y-128559864D01*
X141424727Y-128559866D01*
X141420219Y-128563023D01*
X141263023Y-128720219D01*
X141259866Y-128724727D01*
X141259864Y-128724730D01*
X141140052Y-128895840D01*
X141135512Y-128902324D01*
X141133189Y-128907306D01*
X141133186Y-128907311D01*
X141084195Y-129012373D01*
X141037277Y-129065658D01*
X140969000Y-129085119D01*
X140901040Y-129064577D01*
X140855805Y-129012373D01*
X140806814Y-128907311D01*
X140806811Y-128907306D01*
X140804488Y-128902324D01*
X140799948Y-128895840D01*
X140680136Y-128724730D01*
X140680134Y-128724727D01*
X140676977Y-128720219D01*
X140519781Y-128563023D01*
X140515273Y-128559866D01*
X140515270Y-128559864D01*
X140420651Y-128493611D01*
X140337677Y-128435512D01*
X140332695Y-128433189D01*
X140332690Y-128433186D01*
X140141178Y-128343883D01*
X140141177Y-128343882D01*
X140136196Y-128341560D01*
X140130888Y-128340138D01*
X140130886Y-128340137D01*
X140030781Y-128313314D01*
X139921463Y-128284022D01*
X139700000Y-128264647D01*
X139478537Y-128284022D01*
X139369219Y-128313314D01*
X139269114Y-128340137D01*
X139269112Y-128340138D01*
X139263804Y-128341560D01*
X139258823Y-128343882D01*
X139258822Y-128343883D01*
X139067311Y-128433186D01*
X139067306Y-128433189D01*
X139062324Y-128435512D01*
X139057817Y-128438668D01*
X139057815Y-128438669D01*
X138884730Y-128559864D01*
X138884727Y-128559866D01*
X138880219Y-128563023D01*
X138723023Y-128720219D01*
X138719866Y-128724727D01*
X138719864Y-128724730D01*
X138600052Y-128895840D01*
X138595512Y-128902324D01*
X138593189Y-128907306D01*
X138593186Y-128907311D01*
X138544195Y-129012373D01*
X138497277Y-129065658D01*
X138429000Y-129085119D01*
X138361040Y-129064577D01*
X138315805Y-129012373D01*
X138266814Y-128907311D01*
X138266811Y-128907306D01*
X138264488Y-128902324D01*
X138259948Y-128895840D01*
X138140136Y-128724730D01*
X138140134Y-128724727D01*
X138136977Y-128720219D01*
X137979781Y-128563023D01*
X137975273Y-128559866D01*
X137975270Y-128559864D01*
X137880651Y-128493611D01*
X137797677Y-128435512D01*
X137792695Y-128433189D01*
X137792690Y-128433186D01*
X137601178Y-128343883D01*
X137601177Y-128343882D01*
X137596196Y-128341560D01*
X137590888Y-128340138D01*
X137590886Y-128340137D01*
X137490781Y-128313314D01*
X137381463Y-128284022D01*
X137160000Y-128264647D01*
X136938537Y-128284022D01*
X136829219Y-128313314D01*
X136729114Y-128340137D01*
X136729112Y-128340138D01*
X136723804Y-128341560D01*
X136718823Y-128343882D01*
X136718822Y-128343883D01*
X136527311Y-128433186D01*
X136527306Y-128433189D01*
X136522324Y-128435512D01*
X136517817Y-128438668D01*
X136517815Y-128438669D01*
X136344730Y-128559864D01*
X136344727Y-128559866D01*
X136340219Y-128563023D01*
X136183023Y-128720219D01*
X136179866Y-128724727D01*
X136179864Y-128724730D01*
X136060052Y-128895840D01*
X136055512Y-128902324D01*
X136053189Y-128907306D01*
X136053186Y-128907311D01*
X136004195Y-129012373D01*
X135957277Y-129065658D01*
X135889000Y-129085119D01*
X135821040Y-129064577D01*
X135775805Y-129012373D01*
X135726814Y-128907311D01*
X135726811Y-128907306D01*
X135724488Y-128902324D01*
X135719948Y-128895840D01*
X135600136Y-128724730D01*
X135600134Y-128724727D01*
X135596977Y-128720219D01*
X135439781Y-128563023D01*
X135435273Y-128559866D01*
X135435270Y-128559864D01*
X135340651Y-128493611D01*
X135257677Y-128435512D01*
X135252695Y-128433189D01*
X135252690Y-128433186D01*
X135061178Y-128343883D01*
X135061177Y-128343882D01*
X135056196Y-128341560D01*
X135050888Y-128340138D01*
X135050886Y-128340137D01*
X134950781Y-128313314D01*
X134841463Y-128284022D01*
X134620000Y-128264647D01*
X134398537Y-128284022D01*
X134289219Y-128313314D01*
X134189114Y-128340137D01*
X134189112Y-128340138D01*
X134183804Y-128341560D01*
X134178823Y-128343882D01*
X134178822Y-128343883D01*
X133987311Y-128433186D01*
X133987306Y-128433189D01*
X133982324Y-128435512D01*
X133977817Y-128438668D01*
X133977815Y-128438669D01*
X133804730Y-128559864D01*
X133804727Y-128559866D01*
X133800219Y-128563023D01*
X133643023Y-128720219D01*
X133639866Y-128724727D01*
X133639864Y-128724730D01*
X133520052Y-128895840D01*
X133515512Y-128902324D01*
X133513189Y-128907306D01*
X133513186Y-128907311D01*
X133464195Y-129012373D01*
X133417277Y-129065658D01*
X133349000Y-129085119D01*
X133281040Y-129064577D01*
X133235805Y-129012373D01*
X133186814Y-128907311D01*
X133186811Y-128907306D01*
X133184488Y-128902324D01*
X133179948Y-128895840D01*
X133060136Y-128724730D01*
X133060134Y-128724727D01*
X133056977Y-128720219D01*
X132899781Y-128563023D01*
X132895273Y-128559866D01*
X132895270Y-128559864D01*
X132800651Y-128493611D01*
X132717677Y-128435512D01*
X132712695Y-128433189D01*
X132712690Y-128433186D01*
X132521178Y-128343883D01*
X132521177Y-128343882D01*
X132516196Y-128341560D01*
X132510888Y-128340138D01*
X132510886Y-128340137D01*
X132410781Y-128313314D01*
X132301463Y-128284022D01*
X132080000Y-128264647D01*
X131858537Y-128284022D01*
X131749219Y-128313314D01*
X131649114Y-128340137D01*
X131649112Y-128340138D01*
X131643804Y-128341560D01*
X131638823Y-128343882D01*
X131638822Y-128343883D01*
X131447311Y-128433186D01*
X131447306Y-128433189D01*
X131442324Y-128435512D01*
X131437817Y-128438668D01*
X131437815Y-128438669D01*
X131264730Y-128559864D01*
X131264727Y-128559866D01*
X131260219Y-128563023D01*
X131103023Y-128720219D01*
X131099866Y-128724727D01*
X131099864Y-128724730D01*
X130980052Y-128895840D01*
X130975512Y-128902324D01*
X130973189Y-128907306D01*
X130973186Y-128907311D01*
X130924195Y-129012373D01*
X130877277Y-129065658D01*
X130809000Y-129085119D01*
X130741040Y-129064577D01*
X130695805Y-129012373D01*
X130646814Y-128907311D01*
X130646811Y-128907306D01*
X130644488Y-128902324D01*
X130639948Y-128895840D01*
X130520136Y-128724730D01*
X130520134Y-128724727D01*
X130516977Y-128720219D01*
X130359781Y-128563023D01*
X130355273Y-128559866D01*
X130355270Y-128559864D01*
X130260651Y-128493611D01*
X130177677Y-128435512D01*
X130172695Y-128433189D01*
X130172690Y-128433186D01*
X129981178Y-128343883D01*
X129981177Y-128343882D01*
X129976196Y-128341560D01*
X129970888Y-128340138D01*
X129970886Y-128340137D01*
X129870781Y-128313314D01*
X129761463Y-128284022D01*
X129540000Y-128264647D01*
X129318537Y-128284022D01*
X129209219Y-128313314D01*
X129109114Y-128340137D01*
X129109112Y-128340138D01*
X129103804Y-128341560D01*
X129098823Y-128343882D01*
X129098822Y-128343883D01*
X128907311Y-128433186D01*
X128907306Y-128433189D01*
X128902324Y-128435512D01*
X128897817Y-128438668D01*
X128897815Y-128438669D01*
X128724730Y-128559864D01*
X128724727Y-128559866D01*
X128720219Y-128563023D01*
X128563023Y-128720219D01*
X128559866Y-128724727D01*
X128559864Y-128724730D01*
X128440052Y-128895840D01*
X128435512Y-128902324D01*
X128433189Y-128907306D01*
X128433186Y-128907311D01*
X128384195Y-129012373D01*
X128337277Y-129065658D01*
X128269000Y-129085119D01*
X128201040Y-129064577D01*
X128155805Y-129012373D01*
X128106814Y-128907311D01*
X128106811Y-128907306D01*
X128104488Y-128902324D01*
X128099948Y-128895840D01*
X127980136Y-128724730D01*
X127980134Y-128724727D01*
X127976977Y-128720219D01*
X127819781Y-128563023D01*
X127815273Y-128559866D01*
X127815270Y-128559864D01*
X127720651Y-128493611D01*
X127637677Y-128435512D01*
X127632695Y-128433189D01*
X127632690Y-128433186D01*
X127441178Y-128343883D01*
X127441177Y-128343882D01*
X127436196Y-128341560D01*
X127430888Y-128340138D01*
X127430886Y-128340137D01*
X127330781Y-128313314D01*
X127221463Y-128284022D01*
X127000000Y-128264647D01*
X126778537Y-128284022D01*
X126669219Y-128313314D01*
X126569114Y-128340137D01*
X126569112Y-128340138D01*
X126563804Y-128341560D01*
X126558823Y-128343882D01*
X126558822Y-128343883D01*
X126447750Y-128395677D01*
X126377558Y-128406338D01*
X126312746Y-128377358D01*
X126273889Y-128317938D01*
X126268500Y-128281482D01*
X126268500Y-123662561D01*
X127951610Y-123662561D01*
X127968147Y-123994755D01*
X127968788Y-123998486D01*
X127968789Y-123998494D01*
X128018442Y-124287451D01*
X128024474Y-124322557D01*
X128025562Y-124326196D01*
X128025563Y-124326199D01*
X128113103Y-124618911D01*
X128119774Y-124641218D01*
X128121287Y-124644689D01*
X128121289Y-124644695D01*
X128212458Y-124853870D01*
X128252666Y-124946122D01*
X128421226Y-125232852D01*
X128423527Y-125235867D01*
X128620712Y-125494242D01*
X128620717Y-125494248D01*
X128623012Y-125497255D01*
X128855102Y-125735502D01*
X129114132Y-125944140D01*
X129196035Y-125995219D01*
X129390503Y-126116500D01*
X129396352Y-126120148D01*
X129697672Y-126260976D01*
X129701281Y-126262159D01*
X130003141Y-126361114D01*
X130013729Y-126364585D01*
X130339944Y-126429473D01*
X130343716Y-126429760D01*
X130343724Y-126429761D01*
X130667815Y-126454414D01*
X130667820Y-126454414D01*
X130671592Y-126454701D01*
X131003869Y-126439903D01*
X131054631Y-126431454D01*
X131328220Y-126385917D01*
X131328225Y-126385916D01*
X131331961Y-126385294D01*
X131651116Y-126291664D01*
X131654583Y-126290174D01*
X131654587Y-126290173D01*
X131953228Y-126161866D01*
X131953230Y-126161865D01*
X131956712Y-126160369D01*
X132244321Y-125993313D01*
X132247343Y-125991032D01*
X132247347Y-125991029D01*
X132506753Y-125795197D01*
X132506754Y-125795196D01*
X132509777Y-125792914D01*
X132749235Y-125562075D01*
X132959227Y-125304141D01*
X133136710Y-125022847D01*
X133279114Y-124722267D01*
X133313597Y-124618911D01*
X133383180Y-124410344D01*
X133384377Y-124406757D01*
X133450972Y-124080886D01*
X133477936Y-123749375D01*
X133478542Y-123691500D01*
X133476895Y-123664181D01*
X133458755Y-123363272D01*
X133458754Y-123363265D01*
X133458527Y-123359497D01*
X133420456Y-123151045D01*
X133399451Y-123036030D01*
X133399450Y-123036025D01*
X133398770Y-123032303D01*
X133300139Y-122714657D01*
X133164061Y-122411162D01*
X133056187Y-122231985D01*
X132994466Y-122129466D01*
X132994462Y-122129460D01*
X132992507Y-122126213D01*
X132990180Y-122123229D01*
X132990175Y-122123222D01*
X132790294Y-121866925D01*
X132790288Y-121866918D01*
X132787963Y-121863937D01*
X132553392Y-121628134D01*
X132292191Y-121422220D01*
X132008144Y-121249177D01*
X131887046Y-121194117D01*
X131708817Y-121113080D01*
X131708809Y-121113077D01*
X131705365Y-121111511D01*
X131388240Y-121011218D01*
X131165896Y-120969406D01*
X131065087Y-120950449D01*
X131065085Y-120950449D01*
X131061364Y-120949749D01*
X130729470Y-120927996D01*
X130725690Y-120928204D01*
X130725689Y-120928204D01*
X130627918Y-120933585D01*
X130397366Y-120946273D01*
X130393639Y-120946934D01*
X130393635Y-120946934D01*
X130134510Y-120992858D01*
X130069864Y-121004315D01*
X130066239Y-121005420D01*
X130066234Y-121005421D01*
X129858683Y-121068678D01*
X129751707Y-121101282D01*
X129748243Y-121102813D01*
X129748236Y-121102816D01*
X129561051Y-121185570D01*
X129447503Y-121235769D01*
X129444249Y-121237705D01*
X129444243Y-121237708D01*
X129164918Y-121403889D01*
X129161659Y-121405828D01*
X128898316Y-121608996D01*
X128895617Y-121611652D01*
X128895618Y-121611652D01*
X128743819Y-121761085D01*
X128661288Y-121842329D01*
X128454009Y-122102449D01*
X128279481Y-122385586D01*
X128140232Y-122687640D01*
X128139073Y-122691240D01*
X128139070Y-122691247D01*
X128039442Y-123000626D01*
X128038280Y-123004235D01*
X128037561Y-123007951D01*
X128037559Y-123007959D01*
X127983367Y-123288056D01*
X127975100Y-123330785D01*
X127974833Y-123334561D01*
X127974832Y-123334566D01*
X127973067Y-123359497D01*
X127951610Y-123662561D01*
X126268500Y-123662561D01*
X126268500Y-112271927D01*
X126288502Y-112203806D01*
X126329618Y-112164050D01*
X126332994Y-112162396D01*
X126397544Y-112116353D01*
X127414977Y-112116353D01*
X127420258Y-112123407D01*
X127581756Y-112217779D01*
X127591042Y-112222229D01*
X127790001Y-112298203D01*
X127799899Y-112301079D01*
X128008595Y-112343538D01*
X128018823Y-112344757D01*
X128231650Y-112352562D01*
X128241936Y-112352095D01*
X128453185Y-112325034D01*
X128463262Y-112322892D01*
X128667255Y-112261691D01*
X128676842Y-112257933D01*
X128868098Y-112164238D01*
X128876944Y-112158965D01*
X128924247Y-112125223D01*
X128932648Y-112114523D01*
X128925660Y-112101370D01*
X128187812Y-111363522D01*
X128173868Y-111355908D01*
X128172035Y-111356039D01*
X128165420Y-111360290D01*
X127421737Y-112103973D01*
X127414977Y-112116353D01*
X126397544Y-112116353D01*
X126514860Y-112032673D01*
X126673096Y-111874989D01*
X126732594Y-111792189D01*
X126803453Y-111693577D01*
X126804640Y-111694430D01*
X126851960Y-111650862D01*
X126921897Y-111638645D01*
X126987338Y-111666178D01*
X127015166Y-111698012D01*
X127041459Y-111740919D01*
X127051916Y-111750380D01*
X127060694Y-111746596D01*
X127802978Y-111004312D01*
X127810592Y-110990368D01*
X127810461Y-110988535D01*
X127806210Y-110981920D01*
X127064849Y-110240559D01*
X127053313Y-110234259D01*
X127041031Y-110243882D01*
X127008499Y-110291572D01*
X126953587Y-110336575D01*
X126883063Y-110344746D01*
X126819316Y-110313492D01*
X126798618Y-110289008D01*
X126717822Y-110164117D01*
X126717820Y-110164114D01*
X126715014Y-110159777D01*
X126564670Y-109994551D01*
X126560619Y-109991352D01*
X126560615Y-109991348D01*
X126404338Y-109867927D01*
X127416223Y-109867927D01*
X127422968Y-109880258D01*
X128162188Y-110619478D01*
X128176132Y-110627092D01*
X128177965Y-110626961D01*
X128184580Y-110622710D01*
X128928389Y-109878901D01*
X128935410Y-109866044D01*
X128928611Y-109856713D01*
X128924554Y-109854018D01*
X128738117Y-109751099D01*
X128728705Y-109746869D01*
X128527959Y-109675780D01*
X128517989Y-109673146D01*
X128308327Y-109635801D01*
X128298073Y-109634831D01*
X128085116Y-109632228D01*
X128074832Y-109632948D01*
X127864321Y-109665161D01*
X127854293Y-109667550D01*
X127651868Y-109733712D01*
X127642359Y-109737709D01*
X127453466Y-109836040D01*
X127444734Y-109841539D01*
X127424677Y-109856599D01*
X127416223Y-109867927D01*
X126404338Y-109867927D01*
X126393414Y-109859300D01*
X126393410Y-109859298D01*
X126389359Y-109856098D01*
X126193789Y-109748138D01*
X126188920Y-109746414D01*
X126188916Y-109746412D01*
X125988087Y-109675295D01*
X125988083Y-109675294D01*
X125983212Y-109673569D01*
X125978119Y-109672662D01*
X125978116Y-109672661D01*
X125768373Y-109635300D01*
X125768367Y-109635299D01*
X125763284Y-109634394D01*
X125689452Y-109633492D01*
X125545081Y-109631728D01*
X125545079Y-109631728D01*
X125539911Y-109631665D01*
X125319091Y-109665455D01*
X125106756Y-109734857D01*
X124908607Y-109838007D01*
X124904474Y-109841110D01*
X124904471Y-109841112D01*
X124839927Y-109889573D01*
X124729965Y-109972135D01*
X124682106Y-110022216D01*
X124587568Y-110121145D01*
X124575629Y-110133638D01*
X124468201Y-110291121D01*
X124413293Y-110336121D01*
X124342768Y-110344292D01*
X124279021Y-110313038D01*
X124258324Y-110288554D01*
X124177822Y-110164117D01*
X124177820Y-110164114D01*
X124175014Y-110159777D01*
X124024670Y-109994551D01*
X124020619Y-109991352D01*
X124020615Y-109991348D01*
X123853414Y-109859300D01*
X123853410Y-109859298D01*
X123849359Y-109856098D01*
X123653789Y-109748138D01*
X123648920Y-109746414D01*
X123648916Y-109746412D01*
X123448087Y-109675295D01*
X123448083Y-109675294D01*
X123443212Y-109673569D01*
X123438119Y-109672662D01*
X123438116Y-109672661D01*
X123228373Y-109635300D01*
X123228367Y-109635299D01*
X123223284Y-109634394D01*
X123149452Y-109633492D01*
X123005081Y-109631728D01*
X123005079Y-109631728D01*
X122999911Y-109631665D01*
X122779091Y-109665455D01*
X122566756Y-109734857D01*
X122368607Y-109838007D01*
X122364474Y-109841110D01*
X122364471Y-109841112D01*
X122299927Y-109889573D01*
X122189965Y-109972135D01*
X122142106Y-110022216D01*
X122047568Y-110121145D01*
X122035629Y-110133638D01*
X122032720Y-110137903D01*
X122032714Y-110137911D01*
X122006873Y-110175792D01*
X121928204Y-110291118D01*
X121927898Y-110291566D01*
X121872987Y-110336569D01*
X121802462Y-110344740D01*
X121738715Y-110313486D01*
X121718017Y-110289001D01*
X121688062Y-110242697D01*
X121677377Y-110233495D01*
X121667812Y-110237898D01*
X120927022Y-110978688D01*
X120919408Y-110992632D01*
X120919539Y-110994465D01*
X120923790Y-111001080D01*
X121665474Y-111742764D01*
X121677484Y-111749323D01*
X121689223Y-111740355D01*
X121723022Y-111693319D01*
X121724277Y-111694221D01*
X121771391Y-111650855D01*
X121841330Y-111638648D01*
X121906767Y-111666191D01*
X121934580Y-111698013D01*
X121992287Y-111792183D01*
X121992291Y-111792188D01*
X121994987Y-111796588D01*
X122141250Y-111965438D01*
X122313126Y-112108132D01*
X122342374Y-112125223D01*
X122399070Y-112158353D01*
X122447794Y-112209991D01*
X122461500Y-112267141D01*
X122461500Y-128050406D01*
X122441498Y-128118527D01*
X122424595Y-128139501D01*
X122302222Y-128261874D01*
X122239910Y-128295900D01*
X122180516Y-128294486D01*
X122157642Y-128288357D01*
X122141463Y-128284022D01*
X121920000Y-128264647D01*
X121698537Y-128284022D01*
X121589219Y-128313314D01*
X121489114Y-128340137D01*
X121489112Y-128340138D01*
X121483804Y-128341560D01*
X121478823Y-128343882D01*
X121478822Y-128343883D01*
X121287311Y-128433186D01*
X121287306Y-128433189D01*
X121282324Y-128435512D01*
X121277817Y-128438668D01*
X121277815Y-128438669D01*
X121104730Y-128559864D01*
X121104727Y-128559866D01*
X121100219Y-128563023D01*
X120943023Y-128720219D01*
X120939866Y-128724727D01*
X120939864Y-128724730D01*
X120820052Y-128895840D01*
X120815512Y-128902324D01*
X120813189Y-128907306D01*
X120813186Y-128907311D01*
X120764195Y-129012373D01*
X120717277Y-129065658D01*
X120649000Y-129085119D01*
X120581040Y-129064577D01*
X120535805Y-129012373D01*
X120486814Y-128907311D01*
X120486811Y-128907306D01*
X120484488Y-128902324D01*
X120479948Y-128895840D01*
X120360136Y-128724730D01*
X120360134Y-128724727D01*
X120356977Y-128720219D01*
X120199781Y-128563023D01*
X120195273Y-128559866D01*
X120195270Y-128559864D01*
X120100651Y-128493611D01*
X120017677Y-128435512D01*
X120012695Y-128433189D01*
X120012690Y-128433186D01*
X119821178Y-128343883D01*
X119821177Y-128343882D01*
X119816196Y-128341560D01*
X119810888Y-128340138D01*
X119810886Y-128340137D01*
X119710781Y-128313314D01*
X119601463Y-128284022D01*
X119380000Y-128264647D01*
X119158537Y-128284022D01*
X119049219Y-128313314D01*
X118949114Y-128340137D01*
X118949112Y-128340138D01*
X118943804Y-128341560D01*
X118938823Y-128343882D01*
X118938822Y-128343883D01*
X118747311Y-128433186D01*
X118747306Y-128433189D01*
X118742324Y-128435512D01*
X118737817Y-128438668D01*
X118737815Y-128438669D01*
X118564730Y-128559864D01*
X118564727Y-128559866D01*
X118560219Y-128563023D01*
X118403023Y-128720219D01*
X118399866Y-128724727D01*
X118399864Y-128724730D01*
X118280052Y-128895840D01*
X118275512Y-128902324D01*
X118273189Y-128907306D01*
X118273186Y-128907311D01*
X118183883Y-129098822D01*
X118181560Y-129103804D01*
X118124022Y-129318537D01*
X118104647Y-129540000D01*
X116895446Y-129540000D01*
X116845475Y-129535628D01*
X116834525Y-129535628D01*
X116624104Y-129554038D01*
X116613309Y-129555941D01*
X116409285Y-129610609D01*
X116398993Y-129614355D01*
X116207559Y-129703623D01*
X116198068Y-129709103D01*
X116154235Y-129739794D01*
X116145860Y-129750271D01*
X93980000Y-129750271D01*
X93980000Y-123662561D01*
X105091610Y-123662561D01*
X105108147Y-123994755D01*
X105108788Y-123998486D01*
X105108789Y-123998494D01*
X105158442Y-124287451D01*
X105164474Y-124322557D01*
X105165562Y-124326196D01*
X105165563Y-124326199D01*
X105253103Y-124618911D01*
X105259774Y-124641218D01*
X105261287Y-124644689D01*
X105261289Y-124644695D01*
X105352458Y-124853870D01*
X105392666Y-124946122D01*
X105561226Y-125232852D01*
X105563527Y-125235867D01*
X105760712Y-125494242D01*
X105760717Y-125494248D01*
X105763012Y-125497255D01*
X105995102Y-125735502D01*
X106254132Y-125944140D01*
X106336035Y-125995219D01*
X106530503Y-126116500D01*
X106536352Y-126120148D01*
X106837672Y-126260976D01*
X106841281Y-126262159D01*
X107143141Y-126361114D01*
X107153729Y-126364585D01*
X107479944Y-126429473D01*
X107483716Y-126429760D01*
X107483724Y-126429761D01*
X107807815Y-126454414D01*
X107807820Y-126454414D01*
X107811592Y-126454701D01*
X108143869Y-126439903D01*
X108194631Y-126431454D01*
X108468220Y-126385917D01*
X108468225Y-126385916D01*
X108471961Y-126385294D01*
X108791116Y-126291664D01*
X108794583Y-126290174D01*
X108794587Y-126290173D01*
X109093228Y-126161866D01*
X109093230Y-126161865D01*
X109096712Y-126160369D01*
X109384321Y-125993313D01*
X109387343Y-125991032D01*
X109387347Y-125991029D01*
X109646753Y-125795197D01*
X109646754Y-125795196D01*
X109649777Y-125792914D01*
X109889235Y-125562075D01*
X110099227Y-125304141D01*
X110276710Y-125022847D01*
X110419114Y-124722267D01*
X110453597Y-124618911D01*
X110523180Y-124410344D01*
X110524377Y-124406757D01*
X110590972Y-124080886D01*
X110617936Y-123749375D01*
X110618542Y-123691500D01*
X110616895Y-123664181D01*
X110598755Y-123363272D01*
X110598754Y-123363265D01*
X110598527Y-123359497D01*
X110560456Y-123151045D01*
X110539451Y-123036030D01*
X110539450Y-123036025D01*
X110538770Y-123032303D01*
X110440139Y-122714657D01*
X110304061Y-122411162D01*
X110196187Y-122231985D01*
X110134466Y-122129466D01*
X110134462Y-122129460D01*
X110132507Y-122126213D01*
X110130180Y-122123229D01*
X110130175Y-122123222D01*
X109930294Y-121866925D01*
X109930288Y-121866918D01*
X109927963Y-121863937D01*
X109693392Y-121628134D01*
X109432191Y-121422220D01*
X109148144Y-121249177D01*
X109027046Y-121194117D01*
X108848817Y-121113080D01*
X108848809Y-121113077D01*
X108845365Y-121111511D01*
X108528240Y-121011218D01*
X108305896Y-120969406D01*
X108205087Y-120950449D01*
X108205085Y-120950449D01*
X108201364Y-120949749D01*
X107869470Y-120927996D01*
X107865690Y-120928204D01*
X107865689Y-120928204D01*
X107767918Y-120933585D01*
X107537366Y-120946273D01*
X107533639Y-120946934D01*
X107533635Y-120946934D01*
X107274510Y-120992858D01*
X107209864Y-121004315D01*
X107206239Y-121005420D01*
X107206234Y-121005421D01*
X106998683Y-121068678D01*
X106891707Y-121101282D01*
X106888243Y-121102813D01*
X106888236Y-121102816D01*
X106701051Y-121185570D01*
X106587503Y-121235769D01*
X106584249Y-121237705D01*
X106584243Y-121237708D01*
X106304918Y-121403889D01*
X106301659Y-121405828D01*
X106038316Y-121608996D01*
X106035617Y-121611652D01*
X106035618Y-121611652D01*
X105883819Y-121761085D01*
X105801288Y-121842329D01*
X105594009Y-122102449D01*
X105419481Y-122385586D01*
X105280232Y-122687640D01*
X105279073Y-122691240D01*
X105279070Y-122691247D01*
X105179442Y-123000626D01*
X105178280Y-123004235D01*
X105177561Y-123007951D01*
X105177559Y-123007959D01*
X105123367Y-123288056D01*
X105115100Y-123330785D01*
X105114833Y-123334561D01*
X105114832Y-123334566D01*
X105113067Y-123359497D01*
X105091610Y-123662561D01*
X93980000Y-123662561D01*
X93980000Y-110958195D01*
X106492251Y-110958195D01*
X106492548Y-110963348D01*
X106492548Y-110963351D01*
X106494910Y-111004312D01*
X106505110Y-111181215D01*
X106506247Y-111186261D01*
X106506248Y-111186267D01*
X106527275Y-111279569D01*
X106554222Y-111399139D01*
X106638266Y-111606116D01*
X106689942Y-111690444D01*
X106752291Y-111792188D01*
X106754987Y-111796588D01*
X106901250Y-111965438D01*
X107073126Y-112108132D01*
X107266000Y-112220838D01*
X107474692Y-112300530D01*
X107479760Y-112301561D01*
X107479763Y-112301562D01*
X107584604Y-112322892D01*
X107693597Y-112345067D01*
X107698772Y-112345257D01*
X107698774Y-112345257D01*
X107911673Y-112353064D01*
X107911677Y-112353064D01*
X107916837Y-112353253D01*
X107921957Y-112352597D01*
X107921959Y-112352597D01*
X108133288Y-112325525D01*
X108133289Y-112325525D01*
X108138416Y-112324868D01*
X108143366Y-112323383D01*
X108347429Y-112262161D01*
X108347434Y-112262159D01*
X108352384Y-112260674D01*
X108552994Y-112162396D01*
X108734860Y-112032673D01*
X108893096Y-111874989D01*
X108952594Y-111792189D01*
X109023453Y-111693577D01*
X109024776Y-111694528D01*
X109071645Y-111651357D01*
X109141580Y-111639125D01*
X109207026Y-111666644D01*
X109234875Y-111698494D01*
X109294987Y-111796588D01*
X109441250Y-111965438D01*
X109613126Y-112108132D01*
X109806000Y-112220838D01*
X110014692Y-112300530D01*
X110019760Y-112301561D01*
X110019763Y-112301562D01*
X110124604Y-112322892D01*
X110233597Y-112345067D01*
X110238772Y-112345257D01*
X110238774Y-112345257D01*
X110451673Y-112353064D01*
X110451677Y-112353064D01*
X110456837Y-112353253D01*
X110461957Y-112352597D01*
X110461959Y-112352597D01*
X110673288Y-112325525D01*
X110673289Y-112325525D01*
X110678416Y-112324868D01*
X110683366Y-112323383D01*
X110887429Y-112262161D01*
X110887434Y-112262159D01*
X110892384Y-112260674D01*
X111092994Y-112162396D01*
X111274860Y-112032673D01*
X111433096Y-111874989D01*
X111492594Y-111792189D01*
X111563453Y-111693577D01*
X111564776Y-111694528D01*
X111611645Y-111651357D01*
X111681580Y-111639125D01*
X111747026Y-111666644D01*
X111774875Y-111698494D01*
X111834987Y-111796588D01*
X111981250Y-111965438D01*
X112153126Y-112108132D01*
X112346000Y-112220838D01*
X112554692Y-112300530D01*
X112559760Y-112301561D01*
X112559763Y-112301562D01*
X112664604Y-112322892D01*
X112773597Y-112345067D01*
X112778772Y-112345257D01*
X112778774Y-112345257D01*
X112991673Y-112353064D01*
X112991677Y-112353064D01*
X112996837Y-112353253D01*
X113001957Y-112352597D01*
X113001959Y-112352597D01*
X113213288Y-112325525D01*
X113213289Y-112325525D01*
X113218416Y-112324868D01*
X113223366Y-112323383D01*
X113427429Y-112262161D01*
X113427434Y-112262159D01*
X113432384Y-112260674D01*
X113632994Y-112162396D01*
X113814860Y-112032673D01*
X113973096Y-111874989D01*
X114032594Y-111792189D01*
X114103453Y-111693577D01*
X114104776Y-111694528D01*
X114151645Y-111651357D01*
X114221580Y-111639125D01*
X114287026Y-111666644D01*
X114314875Y-111698494D01*
X114374987Y-111796588D01*
X114521250Y-111965438D01*
X114693126Y-112108132D01*
X114886000Y-112220838D01*
X115094692Y-112300530D01*
X115099760Y-112301561D01*
X115099763Y-112301562D01*
X115204604Y-112322892D01*
X115313597Y-112345067D01*
X115318772Y-112345257D01*
X115318774Y-112345257D01*
X115531673Y-112353064D01*
X115531677Y-112353064D01*
X115536837Y-112353253D01*
X115541957Y-112352597D01*
X115541959Y-112352597D01*
X115753288Y-112325525D01*
X115753289Y-112325525D01*
X115758416Y-112324868D01*
X115763366Y-112323383D01*
X115967429Y-112262161D01*
X115967434Y-112262159D01*
X115972384Y-112260674D01*
X116172994Y-112162396D01*
X116354860Y-112032673D01*
X116513096Y-111874989D01*
X116572594Y-111792189D01*
X116643453Y-111693577D01*
X116644776Y-111694528D01*
X116691645Y-111651357D01*
X116761580Y-111639125D01*
X116827026Y-111666644D01*
X116854875Y-111698494D01*
X116914987Y-111796588D01*
X117061250Y-111965438D01*
X117233126Y-112108132D01*
X117426000Y-112220838D01*
X117634692Y-112300530D01*
X117639760Y-112301561D01*
X117639763Y-112301562D01*
X117744604Y-112322892D01*
X117853597Y-112345067D01*
X117858772Y-112345257D01*
X117858774Y-112345257D01*
X118071673Y-112353064D01*
X118071677Y-112353064D01*
X118076837Y-112353253D01*
X118081957Y-112352597D01*
X118081959Y-112352597D01*
X118293288Y-112325525D01*
X118293289Y-112325525D01*
X118298416Y-112324868D01*
X118303366Y-112323383D01*
X118507429Y-112262161D01*
X118507434Y-112262159D01*
X118512384Y-112260674D01*
X118712994Y-112162396D01*
X118777544Y-112116353D01*
X119794977Y-112116353D01*
X119800258Y-112123407D01*
X119961756Y-112217779D01*
X119971042Y-112222229D01*
X120170001Y-112298203D01*
X120179899Y-112301079D01*
X120388595Y-112343538D01*
X120398823Y-112344757D01*
X120611650Y-112352562D01*
X120621936Y-112352095D01*
X120833185Y-112325034D01*
X120843262Y-112322892D01*
X121047255Y-112261691D01*
X121056842Y-112257933D01*
X121248098Y-112164238D01*
X121256944Y-112158965D01*
X121304247Y-112125223D01*
X121312648Y-112114523D01*
X121305660Y-112101370D01*
X120567812Y-111363522D01*
X120553868Y-111355908D01*
X120552035Y-111356039D01*
X120545420Y-111360290D01*
X119801737Y-112103973D01*
X119794977Y-112116353D01*
X118777544Y-112116353D01*
X118894860Y-112032673D01*
X119053096Y-111874989D01*
X119112594Y-111792189D01*
X119183453Y-111693577D01*
X119184640Y-111694430D01*
X119231960Y-111650862D01*
X119301897Y-111638645D01*
X119367338Y-111666178D01*
X119395166Y-111698012D01*
X119421459Y-111740919D01*
X119431916Y-111750380D01*
X119440694Y-111746596D01*
X120182978Y-111004312D01*
X120190592Y-110990368D01*
X120190461Y-110988535D01*
X120186210Y-110981920D01*
X119444849Y-110240559D01*
X119433313Y-110234259D01*
X119421031Y-110243882D01*
X119388499Y-110291572D01*
X119333587Y-110336575D01*
X119263063Y-110344746D01*
X119199316Y-110313492D01*
X119178618Y-110289008D01*
X119097822Y-110164117D01*
X119097820Y-110164114D01*
X119095014Y-110159777D01*
X118944670Y-109994551D01*
X118940619Y-109991352D01*
X118940615Y-109991348D01*
X118784338Y-109867927D01*
X119796223Y-109867927D01*
X119802968Y-109880258D01*
X120542188Y-110619478D01*
X120556132Y-110627092D01*
X120557965Y-110626961D01*
X120564580Y-110622710D01*
X121308389Y-109878901D01*
X121315410Y-109866044D01*
X121308611Y-109856713D01*
X121304554Y-109854018D01*
X121118117Y-109751099D01*
X121108705Y-109746869D01*
X120907959Y-109675780D01*
X120897989Y-109673146D01*
X120688327Y-109635801D01*
X120678073Y-109634831D01*
X120465116Y-109632228D01*
X120454832Y-109632948D01*
X120244321Y-109665161D01*
X120234293Y-109667550D01*
X120031868Y-109733712D01*
X120022359Y-109737709D01*
X119833466Y-109836040D01*
X119824734Y-109841539D01*
X119804677Y-109856599D01*
X119796223Y-109867927D01*
X118784338Y-109867927D01*
X118773414Y-109859300D01*
X118773410Y-109859298D01*
X118769359Y-109856098D01*
X118573789Y-109748138D01*
X118568920Y-109746414D01*
X118568916Y-109746412D01*
X118368087Y-109675295D01*
X118368083Y-109675294D01*
X118363212Y-109673569D01*
X118358119Y-109672662D01*
X118358116Y-109672661D01*
X118148373Y-109635300D01*
X118148367Y-109635299D01*
X118143284Y-109634394D01*
X118069452Y-109633492D01*
X117925081Y-109631728D01*
X117925079Y-109631728D01*
X117919911Y-109631665D01*
X117699091Y-109665455D01*
X117486756Y-109734857D01*
X117288607Y-109838007D01*
X117284474Y-109841110D01*
X117284471Y-109841112D01*
X117219927Y-109889573D01*
X117109965Y-109972135D01*
X117062106Y-110022216D01*
X116967568Y-110121145D01*
X116955629Y-110133638D01*
X116848201Y-110291121D01*
X116793293Y-110336121D01*
X116722768Y-110344292D01*
X116659021Y-110313038D01*
X116638324Y-110288554D01*
X116557822Y-110164117D01*
X116557820Y-110164114D01*
X116555014Y-110159777D01*
X116404670Y-109994551D01*
X116400619Y-109991352D01*
X116400615Y-109991348D01*
X116233414Y-109859300D01*
X116233410Y-109859298D01*
X116229359Y-109856098D01*
X116033789Y-109748138D01*
X116028920Y-109746414D01*
X116028916Y-109746412D01*
X115828087Y-109675295D01*
X115828083Y-109675294D01*
X115823212Y-109673569D01*
X115818119Y-109672662D01*
X115818116Y-109672661D01*
X115608373Y-109635300D01*
X115608367Y-109635299D01*
X115603284Y-109634394D01*
X115529452Y-109633492D01*
X115385081Y-109631728D01*
X115385079Y-109631728D01*
X115379911Y-109631665D01*
X115159091Y-109665455D01*
X114946756Y-109734857D01*
X114748607Y-109838007D01*
X114744474Y-109841110D01*
X114744471Y-109841112D01*
X114679927Y-109889573D01*
X114569965Y-109972135D01*
X114522106Y-110022216D01*
X114427568Y-110121145D01*
X114415629Y-110133638D01*
X114308201Y-110291121D01*
X114253293Y-110336121D01*
X114182768Y-110344292D01*
X114119021Y-110313038D01*
X114098324Y-110288554D01*
X114017822Y-110164117D01*
X114017820Y-110164114D01*
X114015014Y-110159777D01*
X113864670Y-109994551D01*
X113860619Y-109991352D01*
X113860615Y-109991348D01*
X113693414Y-109859300D01*
X113693410Y-109859298D01*
X113689359Y-109856098D01*
X113493789Y-109748138D01*
X113488920Y-109746414D01*
X113488916Y-109746412D01*
X113288087Y-109675295D01*
X113288083Y-109675294D01*
X113283212Y-109673569D01*
X113278119Y-109672662D01*
X113278116Y-109672661D01*
X113068373Y-109635300D01*
X113068367Y-109635299D01*
X113063284Y-109634394D01*
X112989452Y-109633492D01*
X112845081Y-109631728D01*
X112845079Y-109631728D01*
X112839911Y-109631665D01*
X112619091Y-109665455D01*
X112406756Y-109734857D01*
X112208607Y-109838007D01*
X112204474Y-109841110D01*
X112204471Y-109841112D01*
X112139927Y-109889573D01*
X112029965Y-109972135D01*
X111982106Y-110022216D01*
X111887568Y-110121145D01*
X111875629Y-110133638D01*
X111768201Y-110291121D01*
X111713293Y-110336121D01*
X111642768Y-110344292D01*
X111579021Y-110313038D01*
X111558324Y-110288554D01*
X111477822Y-110164117D01*
X111477820Y-110164114D01*
X111475014Y-110159777D01*
X111324670Y-109994551D01*
X111320619Y-109991352D01*
X111320615Y-109991348D01*
X111153414Y-109859300D01*
X111153410Y-109859298D01*
X111149359Y-109856098D01*
X110953789Y-109748138D01*
X110948920Y-109746414D01*
X110948916Y-109746412D01*
X110748087Y-109675295D01*
X110748083Y-109675294D01*
X110743212Y-109673569D01*
X110738119Y-109672662D01*
X110738116Y-109672661D01*
X110528373Y-109635300D01*
X110528367Y-109635299D01*
X110523284Y-109634394D01*
X110449452Y-109633492D01*
X110305081Y-109631728D01*
X110305079Y-109631728D01*
X110299911Y-109631665D01*
X110079091Y-109665455D01*
X109866756Y-109734857D01*
X109668607Y-109838007D01*
X109664474Y-109841110D01*
X109664471Y-109841112D01*
X109599927Y-109889573D01*
X109489965Y-109972135D01*
X109442106Y-110022216D01*
X109347568Y-110121145D01*
X109335629Y-110133638D01*
X109228201Y-110291121D01*
X109173293Y-110336121D01*
X109102768Y-110344292D01*
X109039021Y-110313038D01*
X109018324Y-110288554D01*
X108937822Y-110164117D01*
X108937820Y-110164114D01*
X108935014Y-110159777D01*
X108784670Y-109994551D01*
X108780619Y-109991352D01*
X108780615Y-109991348D01*
X108613414Y-109859300D01*
X108613410Y-109859298D01*
X108609359Y-109856098D01*
X108413789Y-109748138D01*
X108408920Y-109746414D01*
X108408916Y-109746412D01*
X108208087Y-109675295D01*
X108208083Y-109675294D01*
X108203212Y-109673569D01*
X108198119Y-109672662D01*
X108198116Y-109672661D01*
X107988373Y-109635300D01*
X107988367Y-109635299D01*
X107983284Y-109634394D01*
X107909452Y-109633492D01*
X107765081Y-109631728D01*
X107765079Y-109631728D01*
X107759911Y-109631665D01*
X107539091Y-109665455D01*
X107326756Y-109734857D01*
X107128607Y-109838007D01*
X107124474Y-109841110D01*
X107124471Y-109841112D01*
X107059927Y-109889573D01*
X106949965Y-109972135D01*
X106902106Y-110022216D01*
X106807568Y-110121145D01*
X106795629Y-110133638D01*
X106792720Y-110137903D01*
X106792714Y-110137911D01*
X106707556Y-110262749D01*
X106669743Y-110318180D01*
X106575688Y-110520805D01*
X106515989Y-110736070D01*
X106492251Y-110958195D01*
X93980000Y-110958195D01*
X93980000Y-95500669D01*
X109062001Y-95500669D01*
X109062371Y-95507490D01*
X109067895Y-95558352D01*
X109071521Y-95573604D01*
X109116676Y-95694054D01*
X109125214Y-95709649D01*
X109201715Y-95811724D01*
X109214276Y-95824285D01*
X109316351Y-95900786D01*
X109331946Y-95909324D01*
X109452394Y-95954478D01*
X109467649Y-95958105D01*
X109518514Y-95963631D01*
X109525328Y-95964000D01*
X115297885Y-95964000D01*
X115313124Y-95959525D01*
X115314329Y-95958135D01*
X115316000Y-95950452D01*
X115316000Y-95945884D01*
X115824000Y-95945884D01*
X115828475Y-95961123D01*
X115829865Y-95962328D01*
X115837548Y-95963999D01*
X121614669Y-95963999D01*
X121621490Y-95963629D01*
X121672352Y-95958105D01*
X121687606Y-95954478D01*
X121749771Y-95931174D01*
X121820578Y-95925991D01*
X121882947Y-95959912D01*
X121917076Y-96022167D01*
X121920000Y-96049156D01*
X121920000Y-106680000D01*
X142240000Y-106680000D01*
X142240000Y-78740000D01*
X121920000Y-78740000D01*
X121920000Y-88862844D01*
X121899998Y-88930965D01*
X121846342Y-88977458D01*
X121776068Y-88987562D01*
X121749771Y-88980826D01*
X121687609Y-88957522D01*
X121672351Y-88953895D01*
X121621486Y-88948369D01*
X121614672Y-88948000D01*
X115842115Y-88948000D01*
X115826876Y-88952475D01*
X115825671Y-88953865D01*
X115824000Y-88961548D01*
X115824000Y-95945884D01*
X115316000Y-95945884D01*
X115316000Y-92728115D01*
X115311525Y-92712876D01*
X115310135Y-92711671D01*
X115302452Y-92710000D01*
X109080116Y-92710000D01*
X109064877Y-92714475D01*
X109063672Y-92715865D01*
X109062001Y-92723548D01*
X109062001Y-95500669D01*
X93980000Y-95500669D01*
X93980000Y-92183885D01*
X109062000Y-92183885D01*
X109066475Y-92199124D01*
X109067865Y-92200329D01*
X109075548Y-92202000D01*
X115297885Y-92202000D01*
X115313124Y-92197525D01*
X115314329Y-92196135D01*
X115316000Y-92188452D01*
X115316000Y-88966116D01*
X115311525Y-88950877D01*
X115310135Y-88949672D01*
X115302452Y-88948001D01*
X109525331Y-88948001D01*
X109518510Y-88948371D01*
X109467648Y-88953895D01*
X109452396Y-88957521D01*
X109331946Y-89002676D01*
X109316351Y-89011214D01*
X109214276Y-89087715D01*
X109201715Y-89100276D01*
X109125214Y-89202351D01*
X109116676Y-89217946D01*
X109071522Y-89338394D01*
X109067895Y-89353649D01*
X109062369Y-89404514D01*
X109062000Y-89411328D01*
X109062000Y-92183885D01*
X93980000Y-92183885D01*
X93980000Y-74930000D01*
X121920000Y-74930000D01*
X142240000Y-74930000D01*
X142240000Y-64530500D01*
X142260002Y-64462379D01*
X142313658Y-64415886D01*
X142366000Y-64404500D01*
X148127385Y-64404500D01*
X148142624Y-64400025D01*
X148143829Y-64398635D01*
X148145500Y-64390952D01*
X148145500Y-64386384D01*
X148653500Y-64386384D01*
X148657975Y-64401623D01*
X148659365Y-64402828D01*
X148667048Y-64404499D01*
X154444169Y-64404499D01*
X154450990Y-64404129D01*
X154501852Y-64398605D01*
X154517104Y-64394979D01*
X154637554Y-64349824D01*
X154653149Y-64341286D01*
X154755224Y-64264785D01*
X154767785Y-64252224D01*
X154844286Y-64150149D01*
X154852824Y-64134554D01*
X154897978Y-64014106D01*
X154901605Y-63998851D01*
X154907131Y-63947986D01*
X154907500Y-63941172D01*
X154907500Y-61168615D01*
X154903025Y-61153376D01*
X154901635Y-61152171D01*
X154893952Y-61150500D01*
X148671615Y-61150500D01*
X148656376Y-61154975D01*
X148655171Y-61156365D01*
X148653500Y-61164048D01*
X148653500Y-64386384D01*
X148145500Y-64386384D01*
X148145500Y-60624385D01*
X148653500Y-60624385D01*
X148657975Y-60639624D01*
X148659365Y-60640829D01*
X148667048Y-60642500D01*
X154889384Y-60642500D01*
X154904623Y-60638025D01*
X154905828Y-60636635D01*
X154907499Y-60628952D01*
X154907499Y-57851831D01*
X154907129Y-57845010D01*
X154901605Y-57794148D01*
X154897979Y-57778896D01*
X154852824Y-57658446D01*
X154844286Y-57642851D01*
X154767785Y-57540776D01*
X154755224Y-57528215D01*
X154653149Y-57451714D01*
X154637554Y-57443176D01*
X154517106Y-57398022D01*
X154501851Y-57394395D01*
X154450986Y-57388869D01*
X154444172Y-57388500D01*
X148671615Y-57388500D01*
X148656376Y-57392975D01*
X148655171Y-57394365D01*
X148653500Y-57402048D01*
X148653500Y-60624385D01*
X148145500Y-60624385D01*
X148145500Y-57406616D01*
X148141025Y-57391377D01*
X148139635Y-57390172D01*
X148131952Y-57388501D01*
X142366000Y-57388501D01*
X142297879Y-57368499D01*
X142251386Y-57314843D01*
X142240000Y-57262501D01*
X142240000Y-50800000D01*
X146346685Y-50800000D01*
X146365931Y-51167241D01*
X146423459Y-51530459D01*
X146518639Y-51885674D01*
X146650427Y-52228994D01*
X146817380Y-52556657D01*
X147017668Y-52865075D01*
X147249098Y-53150867D01*
X147509133Y-53410902D01*
X147794925Y-53642332D01*
X148103342Y-53842620D01*
X148106276Y-53844115D01*
X148106283Y-53844119D01*
X148428066Y-54008075D01*
X148431006Y-54009573D01*
X148774326Y-54141361D01*
X149129541Y-54236541D01*
X149322558Y-54267112D01*
X149489511Y-54293555D01*
X149489519Y-54293556D01*
X149492759Y-54294069D01*
X149860000Y-54313315D01*
X150227241Y-54294069D01*
X150230481Y-54293556D01*
X150230489Y-54293555D01*
X150397442Y-54267112D01*
X150590459Y-54236541D01*
X150945674Y-54141361D01*
X151288994Y-54009573D01*
X151291934Y-54008075D01*
X151613717Y-53844119D01*
X151613724Y-53844115D01*
X151616658Y-53842620D01*
X151925075Y-53642332D01*
X152210867Y-53410902D01*
X152470902Y-53150867D01*
X152702332Y-52865075D01*
X152902620Y-52556657D01*
X153069573Y-52228994D01*
X153201361Y-51885674D01*
X153296541Y-51530459D01*
X153354069Y-51167241D01*
X153373315Y-50800000D01*
X153354069Y-50432759D01*
X153296541Y-50069541D01*
X153201361Y-49714326D01*
X153069573Y-49371006D01*
X152902620Y-49043343D01*
X152702332Y-48734925D01*
X152470902Y-48449133D01*
X152210867Y-48189098D01*
X151925075Y-47957668D01*
X151616658Y-47757380D01*
X151613724Y-47755885D01*
X151613717Y-47755881D01*
X151291934Y-47591925D01*
X151288994Y-47590427D01*
X150945674Y-47458639D01*
X150590459Y-47363459D01*
X150397442Y-47332888D01*
X150230489Y-47306445D01*
X150230481Y-47306444D01*
X150227241Y-47305931D01*
X149860000Y-47286685D01*
X149492759Y-47305931D01*
X149489519Y-47306444D01*
X149489511Y-47306445D01*
X149322558Y-47332888D01*
X149129541Y-47363459D01*
X148774326Y-47458639D01*
X148431006Y-47590427D01*
X148428066Y-47591925D01*
X148106284Y-47755881D01*
X148106277Y-47755885D01*
X148103343Y-47757380D01*
X147794925Y-47957668D01*
X147509133Y-48189098D01*
X147249098Y-48449133D01*
X147017668Y-48734925D01*
X146817380Y-49043343D01*
X146650427Y-49371006D01*
X146518639Y-49714326D01*
X146423459Y-50069541D01*
X146365931Y-50432759D01*
X146346685Y-50800000D01*
X142240000Y-50800000D01*
X142240000Y-46990000D01*
X121920000Y-46990000D01*
X121920000Y-74930000D01*
X93980000Y-74930000D01*
X93980000Y-50800000D01*
X104436685Y-50800000D01*
X104455931Y-51167241D01*
X104513459Y-51530459D01*
X104608639Y-51885674D01*
X104740427Y-52228994D01*
X104907380Y-52556657D01*
X105107668Y-52865075D01*
X105339098Y-53150867D01*
X105599133Y-53410902D01*
X105884925Y-53642332D01*
X106193342Y-53842620D01*
X106196276Y-53844115D01*
X106196283Y-53844119D01*
X106518066Y-54008075D01*
X106521006Y-54009573D01*
X106864326Y-54141361D01*
X107219541Y-54236541D01*
X107412558Y-54267112D01*
X107579511Y-54293555D01*
X107579519Y-54293556D01*
X107582759Y-54294069D01*
X107950000Y-54313315D01*
X108317241Y-54294069D01*
X108320481Y-54293556D01*
X108320489Y-54293555D01*
X108487442Y-54267112D01*
X108680459Y-54236541D01*
X109035674Y-54141361D01*
X109378994Y-54009573D01*
X109381934Y-54008075D01*
X109703717Y-53844119D01*
X109703724Y-53844115D01*
X109706658Y-53842620D01*
X110015075Y-53642332D01*
X110300867Y-53410902D01*
X110560902Y-53150867D01*
X110792332Y-52865075D01*
X110992620Y-52556657D01*
X111159573Y-52228994D01*
X111291361Y-51885674D01*
X111386541Y-51530459D01*
X111444069Y-51167241D01*
X111463315Y-50800000D01*
X111444069Y-50432759D01*
X111386541Y-50069541D01*
X111291361Y-49714326D01*
X111159573Y-49371006D01*
X110992620Y-49043343D01*
X110792332Y-48734925D01*
X110560902Y-48449133D01*
X110300867Y-48189098D01*
X110015075Y-47957668D01*
X109706658Y-47757380D01*
X109703724Y-47755885D01*
X109703717Y-47755881D01*
X109381934Y-47591925D01*
X109378994Y-47590427D01*
X109035674Y-47458639D01*
X108680459Y-47363459D01*
X108487442Y-47332888D01*
X108320489Y-47306445D01*
X108320481Y-47306444D01*
X108317241Y-47305931D01*
X107950000Y-47286685D01*
X107582759Y-47305931D01*
X107579519Y-47306444D01*
X107579511Y-47306445D01*
X107412558Y-47332888D01*
X107219541Y-47363459D01*
X106864326Y-47458639D01*
X106521006Y-47590427D01*
X106518066Y-47591925D01*
X106196284Y-47755881D01*
X106196277Y-47755885D01*
X106193343Y-47757380D01*
X105884925Y-47957668D01*
X105599133Y-48189098D01*
X105339098Y-48449133D01*
X105107668Y-48734925D01*
X104907380Y-49043343D01*
X104740427Y-49371006D01*
X104608639Y-49714326D01*
X104513459Y-50069541D01*
X104455931Y-50432759D01*
X104436685Y-50800000D01*
X93980000Y-50800000D01*
X93980000Y-45846000D01*
X94000002Y-45777879D01*
X94053658Y-45731386D01*
X94106000Y-45720000D01*
X162433238Y-45720000D01*
X162501359Y-45740002D01*
G37*
%TD.AperFunction*%
%TD*%
M02*
